<?xml version="1.0" encoding="utf-8"?>
<!-- Generator: Adobe Illustrator 26.0.0, SVG Export Plug-In . SVG Version: 6.00 Build 0)  -->
<svg version="1.1" xmlns="http://www.w3.org/2000/svg" xmlns:xlink="http://www.w3.org/1999/xlink" x="0px" y="0px"
	 viewBox="0 0 820 312" style="enable-background:new 0 0 820 312;" xml:space="preserve">
<style type="text/css">
	.st0{fill:url(#SVGID_1_);}
	.st1{opacity:0.7;}
	.st2{opacity:0.5;}
	.st3{fill:#2D2D84;}
	.st4{opacity:0.4;}
	.st5{fill:#D063E0;}
	.st6{fill:#44BDE2;}
	.st7{fill:url(#SVGID_00000121260398038785029300000008275835598969237401_);}
	.st8{clip-path:url(#XMLID_00000041982750404893588180000018070774011083411121_);}
	.st9{fill:#3548A0;}
	.st10{opacity:0.7;fill:#44BDE2;}
</style>
<g id="BACKGROUND">
	<linearGradient id="SVGID_1_" gradientUnits="userSpaceOnUse" x1="410" y1="268.8513" x2="410" y2="-28.3586">
		<stop  offset="2.184300e-02" style="stop-color:#4855EC"/>
		<stop  offset="0.5201" style="stop-color:#4538A7"/>
		<stop  offset="0.6268" style="stop-color:#3C3393"/>
		<stop  offset="0.8241" style="stop-color:#2E2B74"/>
		<stop  offset="0.934" style="stop-color:#292868"/>
	</linearGradient>
	<rect class="st0" width="820" height="312"/>
</g>
<g id="OBJECTS">
	<g class="st1">
		<g class="st2">
			<path class="st3" d="M316.3,224.1v42.3h8.7c-0.1-2.2-0.1-4.5-0.1-6.9c0-14.3,1.7-25.8,3.7-25.8c2.1,0,3.7,11.6,3.7,25.8
				c0,2.4,0,4.7-0.1,6.9h2.6c-0.1-2.2-0.1-4.5-0.1-6.9c0-14.3,1.7-25.8,3.7-25.8c2.1,0,3.7,11.6,3.7,25.8c0,2.4,0,4.7-0.1,6.9h6.4
				v-42.3H316.3z"/>
			<g class="st4">
				<polygon class="st3" points="280.8,197.8 275.5,207.5 302.9,266 268.6,266 268.6,182.1 				"/>
				<path class="st5" d="M272.8,229.5L272.8,229.5c-0.3,0-0.5-0.2-0.5-0.5v-8.6c0-0.3,0.2-0.5,0.5-0.5l0,0c0.3,0,0.5,0.2,0.5,0.5
					v8.6C273.3,229.3,273,229.5,272.8,229.5z"/>
				<path class="st5" d="M280.8,245.7L280.8,245.7c-0.3,0-0.5-0.2-0.5-0.5v-8.6c0-0.3,0.2-0.5,0.5-0.5l0,0c0.3,0,0.5,0.2,0.5,0.5
					v8.6C281.3,245.5,281.1,245.7,280.8,245.7z"/>
				<path class="st5" d="M277.9,254.5L277.9,254.5c-0.3,0-0.5-0.2-0.5-0.5v-26.1c0-0.3,0.2-0.5,0.5-0.5l0,0c0.3,0,0.5,0.2,0.5,0.5
					V254C278.4,254.2,278.2,254.5,277.9,254.5z"/>
			</g>
			<g class="st4">
				<g>
					<polygon class="st3" points="461.6,225.7 462.9,186.5 446.4,186.5 447.7,231 					"/>
					<polygon class="st3" points="447.7,239.8 447.7,277.4 461.6,277.4 461.6,231 					"/>
					<rect x="449.9" y="220.7" class="st3" width="9.1" height="24.2"/>
				</g>
				<path class="st6" d="M460.3,217.5L460.3,217.5c0.2,0,0.4-0.2,0.4-0.4v-25.3c0-0.2-0.2-0.4-0.4-0.4l0,0c-0.2,0-0.4,0.2-0.4,0.4
					v25.3C459.8,217.3,460,217.5,460.3,217.5z"/>
				<path class="st6" d="M452.5,224.8L452.5,224.8c0.2,0,0.4-0.2,0.4-0.4v-25.3c0-0.2-0.2-0.4-0.4-0.4l0,0c-0.2,0-0.4,0.2-0.4,0.4
					v25.3C452.1,224.6,452.3,224.8,452.5,224.8z"/>
				<path class="st6" d="M452.5,271.3L452.5,271.3c0.2,0,0.4-0.2,0.4-0.4v-25.3c0-0.2-0.2-0.4-0.4-0.4l0,0c-0.2,0-0.4,0.2-0.4,0.4
					v25.3C452.1,271.1,452.3,271.3,452.5,271.3z"/>
				<path class="st6" d="M456.8,213.1L456.8,213.1c0.2,0,0.4-0.2,0.4-0.4v-7.7c0-0.2-0.2-0.4-0.4-0.4l0,0c-0.2,0-0.4,0.2-0.4,0.4
					v7.7C456.3,212.9,456.5,213.1,456.8,213.1z"/>
				<path class="st6" d="M456.8,257L456.8,257c0.2,0,0.4-0.2,0.4-0.4v-7.7c0-0.2-0.2-0.4-0.4-0.4l0,0c-0.2,0-0.4,0.2-0.4,0.4v7.7
					C456.3,256.8,456.5,257,456.8,257z"/>
			</g>
			<g class="st4">
				<g>
					<polygon class="st3" points="382.2,248 381,284.6 396.4,284.6 395.2,243.1 					"/>
					<polygon class="st3" points="395.2,234.9 395.2,199.8 382.2,199.8 382.2,243.1 					"/>
					
						<rect x="384.6" y="230.1" transform="matrix(-1 -1.224647e-16 1.224647e-16 -1 777.7898 482.7904)" class="st3" width="8.5" height="22.5"/>
				</g>
				<path class="st6" d="M383.5,255.6L383.5,255.6c-0.2,0-0.4,0.2-0.4,0.4v23.6c0,0.2,0.2,0.4,0.4,0.4l0,0c0.2,0,0.4-0.2,0.4-0.4
					v-23.6C383.9,255.8,383.7,255.6,383.5,255.6z"/>
				<path class="st6" d="M390.7,248.9L390.7,248.9c-0.2,0-0.4,0.2-0.4,0.4v23.6c0,0.2,0.2,0.4,0.4,0.4l0,0c0.2,0,0.4-0.2,0.4-0.4
					v-23.6C391.1,249.1,390.9,248.9,390.7,248.9z"/>
				<path class="st6" d="M390.7,205.5L390.7,205.5c-0.2,0-0.4,0.2-0.4,0.4v23.6c0,0.2,0.2,0.4,0.4,0.4l0,0c0.2,0,0.4-0.2,0.4-0.4
					v-23.6C391.1,205.7,390.9,205.5,390.7,205.5z"/>
				<path class="st6" d="M386.7,259.8L386.7,259.8c-0.2,0-0.4,0.2-0.4,0.4v7.2c0,0.2,0.2,0.4,0.4,0.4l0,0c0.2,0,0.4-0.2,0.4-0.4
					v-7.2C387.2,260,387,259.8,386.7,259.8z"/>
				<path class="st6" d="M386.7,218.8L386.7,218.8c-0.2,0-0.4,0.2-0.4,0.4v7.2c0,0.2,0.2,0.4,0.4,0.4l0,0c0.2,0,0.4-0.2,0.4-0.4
					v-7.2C387.2,219,387,218.8,386.7,218.8z"/>
			</g>
			<g class="st4">
				<g>
					<polygon class="st3" points="408.7,248 407.5,284.6 422.9,284.6 421.7,243.1 					"/>
					<polygon class="st3" points="421.7,234.9 421.7,199.8 408.7,199.8 408.7,243.1 					"/>
					
						<rect x="411.2" y="230.1" transform="matrix(-1 -1.224647e-16 1.224647e-16 -1 830.8282 482.7904)" class="st3" width="8.5" height="22.5"/>
				</g>
				<path class="st6" d="M410,255.6L410,255.6c-0.2,0-0.4,0.2-0.4,0.4v23.6c0,0.2,0.2,0.4,0.4,0.4l0,0c0.2,0,0.4-0.2,0.4-0.4v-23.6
					C410.4,255.8,410.2,255.6,410,255.6z"/>
				<path class="st6" d="M417.2,248.9L417.2,248.9c-0.2,0-0.4,0.2-0.4,0.4v23.6c0,0.2,0.2,0.4,0.4,0.4l0,0c0.2,0,0.4-0.2,0.4-0.4
					v-23.6C417.6,249.1,417.5,248.9,417.2,248.9z"/>
				<path class="st6" d="M417.2,205.5L417.2,205.5c-0.2,0-0.4,0.2-0.4,0.4v23.6c0,0.2,0.2,0.4,0.4,0.4l0,0c0.2,0,0.4-0.2,0.4-0.4
					v-23.6C417.6,205.7,417.5,205.5,417.2,205.5z"/>
				<path class="st6" d="M413.3,259.8L413.3,259.8c-0.2,0-0.4,0.2-0.4,0.4v7.2c0,0.2,0.2,0.4,0.4,0.4l0,0c0.2,0,0.4-0.2,0.4-0.4
					v-7.2C413.7,260,413.5,259.8,413.3,259.8z"/>
				<path class="st6" d="M413.3,218.8L413.3,218.8c-0.2,0-0.4,0.2-0.4,0.4v7.2c0,0.2,0.2,0.4,0.4,0.4l0,0c0.2,0,0.4-0.2,0.4-0.4
					v-7.2C413.7,219,413.5,218.8,413.3,218.8z"/>
			</g>
			<g class="st4">
				<g>
					<path class="st3" d="M543,215.3h-1.4h-1.4c0,31.6-5.8,55.7-5.8,55.7h7.2h7.2C548.7,271,543,246.9,543,215.3z"/>
					<ellipse class="st3" cx="541.6" cy="217" rx="13.7" ry="7"/>
				</g>
				<path class="st5" d="M535.4,216.7L535.4,216.7c0,0.2,0.2,0.4,0.4,0.4h15c0.2,0,0.4-0.2,0.4-0.4l0,0c0-0.2-0.2-0.4-0.4-0.4h-15
					C535.6,216.3,535.4,216.5,535.4,216.7z"/>
			</g>
			<path class="st3" d="M411.2,262.7c0,0,95.8-14.9,128.6-34.3c32.9-19.4-16.2-28-16.2-28l-1.9-9c0,0,67.6,3.2,48,32.3
				c-19.6,29.1-158.5,42.3-158.5,42.3V262.7z"/>
			<g>
				<g>
					<polygon class="st3" points="523.6,203.1 525.5,146.7 501.8,146.7 503.7,210.7 					"/>
					<polygon class="st3" points="503.7,223.3 503.7,277.4 523.6,277.4 523.6,210.7 					"/>
					<rect x="506.8" y="195.9" class="st3" width="13.1" height="34.7"/>
				</g>
				<path class="st6" d="M521.7,191.4L521.7,191.4c0.4,0,0.6-0.3,0.6-0.6v-36.3c0-0.4-0.3-0.6-0.6-0.6l0,0c-0.4,0-0.6,0.3-0.6,0.6
					v36.3C521.1,191.1,521.4,191.4,521.7,191.4z"/>
				<path class="st6" d="M510.6,201.8L510.6,201.8c0.4,0,0.6-0.3,0.6-0.6v-36.3c0-0.4-0.3-0.6-0.6-0.6l0,0c-0.4,0-0.6,0.3-0.6,0.6
					v36.3C509.9,201.5,510.2,201.8,510.6,201.8z"/>
				<path class="st6" d="M510.6,268.6L510.6,268.6c0.4,0,0.6-0.3,0.6-0.6v-36.3c0-0.4-0.3-0.6-0.6-0.6l0,0c-0.4,0-0.6,0.3-0.6,0.6
					V268C509.9,268.3,510.2,268.6,510.6,268.6z"/>
				<path class="st6" d="M516.7,184.9L516.7,184.9c0.4,0,0.6-0.3,0.6-0.6v-11.1c0-0.4-0.3-0.6-0.6-0.6l0,0c-0.4,0-0.6,0.3-0.6,0.6
					v11.1C516,184.6,516.3,184.9,516.7,184.9z"/>
				<path class="st6" d="M516.7,248.1L516.7,248.1c0.4,0,0.6-0.3,0.6-0.6v-11.1c0-0.4-0.3-0.6-0.6-0.6l0,0c-0.4,0-0.6,0.3-0.6,0.6
					v11.1C516,247.8,516.3,248.1,516.7,248.1z"/>
			</g>
			<g>
				<g>
					<polygon class="st3" points="318.2,250.7 320.1,307.1 296.4,307.1 298.3,243.1 					"/>
					<polygon class="st3" points="298.3,230.5 298.3,176.4 318.2,176.4 318.2,243.1 					"/>
					<rect x="301.4" y="223.1" class="st3" width="13.1" height="34.7"/>
				</g>
				<path class="st6" d="M316.3,262.4L316.3,262.4c0.4,0,0.6,0.3,0.6,0.6v36.3c0,0.4-0.3,0.6-0.6,0.6l0,0c-0.4,0-0.6-0.3-0.6-0.6
					v-36.3C315.7,262.7,316,262.4,316.3,262.4z"/>
				<path class="st6" d="M305.2,252L305.2,252c0.4,0,0.6,0.3,0.6,0.6V289c0,0.4-0.3,0.6-0.6,0.6l0,0c-0.4,0-0.6-0.3-0.6-0.6v-36.3
					C304.5,252.3,304.8,252,305.2,252z"/>
				<path class="st6" d="M305.2,185.2L305.2,185.2c0.4,0,0.6,0.3,0.6,0.6v36.3c0,0.4-0.3,0.6-0.6,0.6l0,0c-0.4,0-0.6-0.3-0.6-0.6
					v-36.3C304.5,185.5,304.8,185.2,305.2,185.2z"/>
				<path class="st6" d="M311.3,268.9L311.3,268.9c0.4,0,0.6,0.3,0.6,0.6v11.1c0,0.4-0.3,0.6-0.6,0.6l0,0c-0.4,0-0.6-0.3-0.6-0.6
					v-11.1C310.6,269.2,310.9,268.9,311.3,268.9z"/>
				<path class="st6" d="M311.3,205.7L311.3,205.7c0.4,0,0.6,0.3,0.6,0.6v11.1c0,0.4-0.3,0.6-0.6,0.6l0,0c-0.4,0-0.6-0.3-0.6-0.6
					v-11.1C310.6,206,310.9,205.7,311.3,205.7z"/>
			</g>
			<g>
				<g>
					<path class="st3" d="M434,221.9h-1.4h-1.4c0,31.6-5.8,55.7-5.8,55.7h7.2h7.2C439.7,277.6,434,253.5,434,221.9z"/>
					<path class="st3" d="M418.8,223.6c0,3.9,6.1,7,13.7,7c7.6,0,13.7-3.2,13.7-7c0-3.9-6.1-7-13.7-7
						C425,216.6,418.8,219.7,418.8,223.6z"/>
				</g>
				<path class="st5" d="M426.4,223.3L426.4,223.3c0,0.2,0.2,0.4,0.4,0.4h15c0.2,0,0.4-0.2,0.4-0.4l0,0c0-0.2-0.2-0.4-0.4-0.4h-15
					C426.5,222.9,426.4,223.1,426.4,223.3z"/>
			</g>
			<g>
				<g>
					<path class="st3" d="M405.6,183.3h-2.3h-2.3c0,52.6-9.6,92.8-9.6,92.8h11.9h11.9C415.2,276.1,405.6,235.9,405.6,183.3z"/>
					<ellipse class="st3" cx="403.3" cy="186.1" rx="22.8" ry="11.7"/>
				</g>
				<path class="st5" d="M395.4,186.1L395.4,186.1c0,0.2,0.2,0.4,0.4,0.4h15c0.2,0,0.4-0.2,0.4-0.4l0,0c0-0.2-0.2-0.4-0.4-0.4h-15
					C395.5,185.7,395.4,185.9,395.4,186.1z"/>
			</g>
			<g>
				<g>
					<path class="st3" d="M330.1,233.8H329h-1.1c0,24.3-4.4,42.8-4.4,42.8h5.5h5.5C334.5,276.6,330.1,258.1,330.1,233.8z"/>
					<ellipse class="st3" cx="329" cy="235.1" rx="10.5" ry="5.4"/>
				</g>
				<path class="st5" d="M321.1,235.1L321.1,235.1c0,0.2,0.2,0.4,0.4,0.4h15c0.2,0,0.4-0.2,0.4-0.4l0,0c0-0.2-0.2-0.4-0.4-0.4h-15
					C321.2,234.7,321.1,234.9,321.1,235.1z"/>
			</g>
			<g>
				<path class="st3" d="M262,263.2c0-9.1,6.6-16.5,14.8-16.5c8.2,0,14.8,7.4,14.8,16.5c0,0.9-0.1,1.8-0.2,2.6h6
					c-0.1-0.9-0.1-1.7-0.1-2.6c0-9.1,3-16.5,6.8-16.5c3.8,0,6.8,7.4,6.8,16.5c0,0.9,0,1.8-0.1,2.6h17.7c0-19.6-15.9-35.5-35.5-35.5
					s-35.5,15.9-35.5,35.5h4.6C262.1,265,262,264.1,262,263.2z"/>
				<path class="st5" d="M295,240.9L295,240.9c0,0.2,0.2,0.4,0.4,0.4h15c0.2,0,0.4-0.2,0.4-0.4l0,0c0-0.2-0.2-0.4-0.4-0.4h-15
					C295.2,240.5,295,240.7,295,240.9z"/>
				<path class="st5" d="M282.1,235.7L282.1,235.7c0,0.2,0.2,0.4,0.4,0.4h4.9c0.2,0,0.4-0.2,0.4-0.4l0,0c0-0.2-0.2-0.4-0.4-0.4h-4.9
					C282.3,235.3,282.1,235.5,282.1,235.7z"/>
				<path class="st5" d="M288.7,235.7L288.7,235.7c0,0.2,0.2,0.4,0.4,0.4h1.7c0.2,0,0.4-0.2,0.4-0.4l0,0c0-0.2-0.2-0.4-0.4-0.4h-1.7
					C288.9,235.3,288.7,235.5,288.7,235.7z"/>
			</g>
			<g>
				<g>
					<defs>
						<polygon id="XMLID_00000121240759876984989550000015039013538796619449_" points="378.3,145.4 373.8,145.4 367.9,168.7 
							362.3,171.5 353.6,203.8 359.7,201.4 358.2,207.3 351.2,211.1 335.7,276.1 371.5,276.1 375.9,197.4 370.6,200.4 						"/>
					</defs>
					<use xlink:href="#XMLID_00000121240759876984989550000015039013538796619449_"  style="overflow:visible;fill:#2D2D84;"/>
					<clipPath id="XMLID_00000173151629158346450380000015352369561359105928_">
						<use xlink:href="#XMLID_00000121240759876984989550000015039013538796619449_"  style="overflow:visible;"/>
					</clipPath>
				</g>
				<path class="st6" d="M361.8,220.6L361.8,220.6c-0.2,0-0.4,0.1-0.5,0.3l-3,14.7c0,0.2,0.1,0.4,0.3,0.5l0,0c0.2,0,0.4-0.1,0.5-0.3
					l3-14.7C362.1,220.8,362,220.6,361.8,220.6z"/>
				<path class="st6" d="M358.3,238L358.3,238c-0.2,0-0.4,0.1-0.5,0.3l-0.5,2.4c0,0.2,0.1,0.4,0.3,0.5l0,0c0.2,0,0.4-0.1,0.5-0.3
					l0.5-2.4C358.6,238.3,358.5,238.1,358.3,238z"/>
				<path class="st6" d="M370.1,174.3L370.1,174.3c-0.2,0-0.4,0.1-0.5,0.3l-2.2,14.9c0,0.2,0.1,0.4,0.3,0.5l0,0
					c0.2,0,0.4-0.1,0.5-0.3l2.2-14.9C370.5,174.6,370.3,174.4,370.1,174.3z"/>
				<path class="st6" d="M367.5,192L367.5,192c-0.2,0-0.4,0.1-0.5,0.3l-0.4,2.4c0,0.2,0.1,0.4,0.3,0.5l0,0c0.2,0,0.4-0.1,0.5-0.3
					l0.4-2.4C367.9,192.2,367.8,192,367.5,192z"/>
				<path class="st6" d="M351.1,226.7L351.1,226.7c-0.2,0-0.4,0.1-0.5,0.3l-6.1,30.5c0,0.2,0.1,0.4,0.3,0.5l0,0
					c0.2,0,0.4-0.1,0.5-0.3l6.1-30.5C351.4,226.9,351.3,226.7,351.1,226.7z"/>
			</g>
			<g>
				<polygon class="st3" points="472.3,189.9 479.1,202.4 443.9,277.4 487.9,277.4 487.9,169.8 				"/>
				<path class="st5" d="M482.6,230.7L482.6,230.7c0.4,0,0.6-0.3,0.6-0.6v-11.1c0-0.4-0.3-0.6-0.6-0.6l0,0c-0.4,0-0.6,0.3-0.6,0.6
					V230C481.9,230.4,482.2,230.7,482.6,230.7z"/>
				<path class="st5" d="M472.2,251.5L472.2,251.5c0.4,0,0.6-0.3,0.6-0.6v-11.1c0-0.4-0.3-0.6-0.6-0.6h0c-0.4,0-0.6,0.3-0.6,0.6
					v11.1C471.6,251.2,471.9,251.5,472.2,251.5z"/>
				<path class="st5" d="M475.9,262.7L475.9,262.7c0.4,0,0.6-0.3,0.6-0.6v-33.5c0-0.4-0.3-0.6-0.6-0.6l0,0c-0.4,0-0.6,0.3-0.6,0.6
					V262C475.3,262.4,475.6,262.7,475.9,262.7z"/>
			</g>
			<path class="st3" d="M367.3,233.8v42.3h8.7c-0.1-2.2-0.1-4.5-0.1-6.9c0-14.3,1.7-25.8,3.7-25.8c2.1,0,3.7,11.6,3.7,25.8
				c0,2.4,0,4.7-0.1,6.9h2.6c-0.1-2.2-0.1-4.5-0.1-6.9c0-14.3,1.7-25.8,3.7-25.8c2.1,0,3.7,11.6,3.7,25.8c0,2.4,0,4.7-0.1,6.9h6.4
				v-42.3H367.3z"/>
		</g>
		<g>
			<g class="st4">
				<g>
					<polygon class="st3" points="722.4,201.8 720.8,155.9 740.2,155.9 738.6,208 					"/>
					<polygon class="st3" points="738.6,218.2 738.6,262.3 722.4,262.3 722.4,208 					"/>
					
						<rect x="725.4" y="195.9" transform="matrix(-1 -1.224647e-16 1.224647e-16 -1 1461.4839 420.1681)" class="st3" width="10.7" height="28.3"/>
				</g>
				<path class="st6" d="M723.9,192.2L723.9,192.2c-0.3,0-0.5-0.2-0.5-0.5v-29.6c0-0.3,0.2-0.5,0.5-0.5l0,0c0.3,0,0.5,0.2,0.5,0.5
					v29.6C724.5,192,724.2,192.2,723.9,192.2z"/>
				<path class="st6" d="M733,200.7L733,200.7c-0.3,0-0.5-0.2-0.5-0.5v-29.6c0-0.3,0.2-0.5,0.5-0.5l0,0c0.3,0,0.5,0.2,0.5,0.5v29.6
					C733.5,200.5,733.3,200.7,733,200.7z"/>
				<path class="st6" d="M733,255.1L733,255.1c-0.3,0-0.5-0.2-0.5-0.5V225c0-0.3,0.2-0.5,0.5-0.5l0,0c0.3,0,0.5,0.2,0.5,0.5v29.6
					C733.5,254.9,733.3,255.1,733,255.1z"/>
				<path class="st6" d="M728,187L728,187c-0.3,0-0.5-0.2-0.5-0.5v-9c0-0.3,0.2-0.5,0.5-0.5l0,0c0.3,0,0.5,0.2,0.5,0.5v9
					C728.6,186.7,728.3,187,728,187z"/>
				<path class="st6" d="M728,238.4L728,238.4c-0.3,0-0.5-0.2-0.5-0.5v-9c0-0.3,0.2-0.5,0.5-0.5l0,0c0.3,0,0.5,0.2,0.5,0.5v9
					C728.6,238.2,728.3,238.4,728,238.4z"/>
			</g>
			<g class="st4">
				<g>
					<polygon class="st3" points="763.6,232 765,274.8 747,274.8 748.5,226.2 					"/>
					<polygon class="st3" points="748.5,216.7 748.5,175.6 763.6,175.6 763.6,226.2 					"/>
					<rect x="750.8" y="211.1" class="st3" width="10" height="26.4"/>
				</g>
				<path class="st6" d="M762.1,240.9L762.1,240.9c0.3,0,0.5,0.2,0.5,0.5V269c0,0.3-0.2,0.5-0.5,0.5l0,0c-0.3,0-0.5-0.2-0.5-0.5
					v-27.6C761.6,241.2,761.9,240.9,762.1,240.9z"/>
				<path class="st6" d="M753.7,233L753.7,233c0.3,0,0.5,0.2,0.5,0.5v27.6c0,0.3-0.2,0.5-0.5,0.5l0,0c-0.3,0-0.5-0.2-0.5-0.5v-27.6
					C753.2,233.2,753.4,233,753.7,233z"/>
				<path class="st6" d="M753.7,182.3L753.7,182.3c0.3,0,0.5,0.2,0.5,0.5v27.6c0,0.3-0.2,0.5-0.5,0.5l0,0c-0.3,0-0.5-0.2-0.5-0.5
					v-27.6C753.2,182.5,753.4,182.3,753.7,182.3z"/>
				<path class="st6" d="M758.3,245.8L758.3,245.8c0.3,0,0.5,0.2,0.5,0.5v8.4c0,0.3-0.2,0.5-0.5,0.5l0,0c-0.3,0-0.5-0.2-0.5-0.5
					v-8.4C757.8,246,758,245.8,758.3,245.8z"/>
				<path class="st6" d="M758.3,197.8L758.3,197.8c0.3,0,0.5,0.2,0.5,0.5v8.4c0,0.3-0.2,0.5-0.5,0.5l0,0c-0.3,0-0.5-0.2-0.5-0.5
					v-8.4C757.8,198.1,758,197.8,758.3,197.8z"/>
			</g>
			<g class="st4">
				<g>
					<path class="st3" d="M627.1,199.4h1.6h1.6c0,37,6.7,65.2,6.7,65.2h-8.4h-8.4C620.4,264.6,627.1,236.4,627.1,199.4z"/>
					<ellipse class="st3" cx="628.8" cy="201.4" rx="16.1" ry="8.2"/>
				</g>
				<path class="st5" d="M636,201.1L636,201.1c0,0.3-0.2,0.5-0.5,0.5h-17.6c-0.3,0-0.5-0.2-0.5-0.5l0,0c0-0.3,0.2-0.5,0.5-0.5h17.6
					C635.8,200.6,636,200.8,636,201.1z"/>
			</g>
			<path class="st3" d="M781.4,245c0,0-112.1-17.5-150.6-40.2c-38.5-22.7,19-32.8,19-32.8l2.3-10.5c0,0-79.1,3.7-56.2,37.8
				c22.9,34,185.6,49.5,185.6,49.5V245z"/>
			<g>
				<g>
					<polygon class="st3" points="649.8,175.3 647.5,109.3 675.3,109.3 673.1,184.2 					"/>
					<polygon class="st3" points="673.1,198.9 673.1,262.3 649.8,262.3 649.8,184.2 					"/>
					
						<rect x="654.1" y="166.9" transform="matrix(-1 -1.224647e-16 1.224647e-16 -1 1323.6185 374.484)" class="st3" width="15.4" height="40.7"/>
				</g>
				<path class="st6" d="M652,161.5L652,161.5c-0.4,0-0.8-0.3-0.8-0.8v-42.5c0-0.4,0.3-0.8,0.8-0.8l0,0c0.4,0,0.8,0.3,0.8,0.8v42.5
					C652.8,161.2,652.4,161.5,652,161.5z"/>
				<path class="st6" d="M665.1,173.8L665.1,173.8c-0.4,0-0.8-0.3-0.8-0.8v-42.5c0-0.4,0.3-0.8,0.8-0.8l0,0c0.4,0,0.8,0.3,0.8,0.8
					V173C665.8,173.4,665.5,173.8,665.1,173.8z"/>
				<path class="st6" d="M665.1,252L665.1,252c-0.4,0-0.8-0.3-0.8-0.8v-42.5c0-0.4,0.3-0.8,0.8-0.8l0,0c0.4,0,0.8,0.3,0.8,0.8v42.5
					C665.8,251.6,665.5,252,665.1,252z"/>
				<path class="st6" d="M657.9,154L657.9,154c-0.4,0-0.8-0.3-0.8-0.8v-13c0-0.4,0.3-0.8,0.8-0.8l0,0c0.4,0,0.8,0.3,0.8,0.8v13
					C658.7,153.7,658.3,154,657.9,154z"/>
				<path class="st6" d="M657.9,228L657.9,228c-0.4,0-0.8-0.3-0.8-0.8v-13c0-0.4,0.3-0.8,0.8-0.8l0,0c0.4,0,0.8,0.3,0.8,0.8v13
					C658.7,227.7,658.3,228,657.9,228z"/>
			</g>
			<g>
				<path class="st3" d="M642,267.1c0-10.7-7.8-19.3-17.4-19.3c-9.6,0-17.4,8.7-17.4,19.3c0,1.1,0.1,2.1,0.2,3.1h-7
					c0.1-1,0.1-2,0.1-3.1c0-10.7-3.6-19.3-8-19.3c-4.4,0-8,8.7-8,19.3c0,1.1,0,2.1,0.1,3.1H564c0-23,18.6-41.6,41.6-41.6
					c23,0,41.6,18.6,41.6,41.6h-5.4C641.9,269.2,642,268.2,642,267.1z"/>
				<path class="st5" d="M603.4,240.9L603.4,240.9c0,0.3-0.2,0.5-0.5,0.5h-17.6c-0.3,0-0.5-0.2-0.5-0.5l0,0c0-0.3,0.2-0.5,0.5-0.5
					H603C603.2,240.5,603.4,240.7,603.4,240.9z"/>
				<path class="st5" d="M618.5,234.9L618.5,234.9c0,0.3-0.2,0.5-0.5,0.5h-5.7c-0.3,0-0.5-0.2-0.5-0.5l0,0c0-0.3,0.2-0.5,0.5-0.5
					h5.7C618.3,234.4,618.5,234.6,618.5,234.9z"/>
				<path class="st5" d="M610.8,234.9L610.8,234.9c0,0.3-0.2,0.5-0.5,0.5h-2c-0.3,0-0.5-0.2-0.5-0.5l0,0c0-0.3,0.2-0.5,0.5-0.5h2
					C610.6,234.4,610.8,234.6,610.8,234.9z"/>
			</g>
			<g>
				<polygon class="st3" points="704.8,159.8 696.8,174.5 738,262.3 686.5,262.3 686.5,136.3 				"/>
				<path class="st5" d="M692.7,207.6L692.7,207.6c-0.4,0-0.8-0.3-0.8-0.8v-13c0-0.4,0.3-0.8,0.8-0.8l0,0c0.4,0,0.8,0.3,0.8,0.8v13
					C693.5,207.2,693.2,207.6,692.7,207.6z"/>
				<path class="st5" d="M704.8,231.9L704.8,231.9c-0.4,0-0.8-0.3-0.8-0.8v-13c0-0.4,0.3-0.8,0.8-0.8l0,0c0.4,0,0.8,0.3,0.8,0.8v13
					C705.6,231.6,705.2,231.9,704.8,231.9z"/>
				<path class="st5" d="M700.5,245L700.5,245c-0.4,0-0.8-0.3-0.8-0.8V205c0-0.4,0.3-0.8,0.8-0.8l0,0c0.4,0,0.8,0.3,0.8,0.8v39.2
					C701.3,244.7,700.9,245,700.5,245z"/>
			</g>
			<g>
				<g>
					<g>
						<path class="st3" d="M735,153.2h2.7h2.7c0,61.6,11.2,108.6,11.2,108.6h-14h-14C723.8,261.9,735,214.9,735,153.2z"/>
						<ellipse class="st3" cx="737.7" cy="156.5" rx="26.8" ry="13.7"/>
					</g>
					<path class="st5" d="M747,156.5L747,156.5c0,0.3-0.2,0.5-0.5,0.5h-17.6c-0.3,0-0.5-0.2-0.5-0.5l0,0c0-0.3,0.2-0.5,0.5-0.5h17.6
						C746.8,156,747,156.3,747,156.5z"/>
				</g>
				<g>
					<g>
						<defs>
							<polygon id="XMLID_00000056413092054621721590000008173935854206480535_" points="767,108.9 772.3,108.9 779.2,136.2 
								785.8,139.5 795.9,177.2 788.8,174.4 790.5,181.3 798.7,185.9 816.8,261.9 774.9,261.9 769.8,169.8 776,173.2 							"/>
						</defs>
						<use xlink:href="#XMLID_00000056413092054621721590000008173935854206480535_"  style="overflow:visible;fill:#2D2D84;"/>
						<clipPath id="XMLID_00000068672460810022523820000003071506584298930586_">
							<use xlink:href="#XMLID_00000056413092054621721590000008173935854206480535_"  style="overflow:visible;"/>
						</clipPath>
					</g>
					<path class="st6" d="M786.3,196.9L786.3,196.9c0.3-0.1,0.5,0.1,0.6,0.4l3.5,17.3c0.1,0.3-0.1,0.5-0.4,0.6l0,0
						c-0.3,0.1-0.5-0.1-0.6-0.4l-3.5-17.3C785.9,197.2,786.1,196.9,786.3,196.9z"/>
					<path class="st6" d="M790.5,217.4L790.5,217.4c0.3-0.1,0.5,0.1,0.6,0.4l0.6,2.8c0.1,0.3-0.1,0.5-0.4,0.6l0,0
						c-0.3,0.1-0.5-0.1-0.6-0.4l-0.6-2.8C790,217.7,790.2,217.4,790.5,217.4z"/>
					<path class="st6" d="M776.6,142.8L776.6,142.8c0.3,0,0.5,0.1,0.5,0.4l2.6,17.4c0,0.3-0.1,0.5-0.4,0.5l0,0
						c-0.3,0-0.5-0.1-0.5-0.4l-2.6-17.4C776.1,143.1,776.3,142.8,776.6,142.8z"/>
					<path class="st6" d="M779.6,163.4L779.6,163.4c0.3,0,0.5,0.1,0.5,0.4l0.4,2.9c0,0.3-0.1,0.5-0.4,0.5l0,0
						c-0.3,0-0.5-0.1-0.5-0.4l-0.4-2.9C779.1,163.7,779.3,163.5,779.6,163.4z"/>
					<path class="st6" d="M798.9,204L798.9,204c0.3-0.1,0.5,0.1,0.6,0.4l7.2,35.7c0.1,0.3-0.1,0.5-0.4,0.6l0,0
						c-0.3,0.1-0.5-0.1-0.6-0.4l-7.2-35.7C798.4,204.3,798.6,204.1,798.9,204z"/>
				</g>
				<path class="st3" d="M779.9,212.4v49.5h-10.2c0.1-2.6,0.2-5.3,0.2-8.1c0-16.7-2-30.2-4.4-30.2c-2.4,0-4.4,13.5-4.4,30.2
					c0,2.8,0.1,5.5,0.2,8.1h-3c0.1-2.6,0.2-5.3,0.2-8.1c0-16.7-2-30.2-4.4-30.2s-4.4,13.5-4.4,30.2c0,2.8,0.1,5.5,0.2,8.1h-7.5
					v-49.5H779.9z"/>
			</g>
		</g>
		<g>
			<g class="st4">
				<g>
					<polygon class="st3" points="106.2,201.8 107.7,155.9 88.4,155.9 89.9,208 					"/>
					<polygon class="st3" points="89.9,218.2 89.9,262.3 106.2,262.3 106.2,208 					"/>
					<rect x="92.4" y="195.9" class="st3" width="10.7" height="28.3"/>
				</g>
				<path class="st6" d="M104.6,192.2L104.6,192.2c0.3,0,0.5-0.2,0.5-0.5v-29.6c0-0.3-0.2-0.5-0.5-0.5l0,0c-0.3,0-0.5,0.2-0.5,0.5
					v29.6C104.1,192,104.3,192.2,104.6,192.2z"/>
				<path class="st6" d="M95.5,200.7L95.5,200.7c0.3,0,0.5-0.2,0.5-0.5v-29.6c0-0.3-0.2-0.5-0.5-0.5l0,0c-0.3,0-0.5,0.2-0.5,0.5
					v29.6C95,200.5,95.2,200.7,95.5,200.7z"/>
				<path class="st6" d="M95.5,255.1L95.5,255.1c0.3,0,0.5-0.2,0.5-0.5V225c0-0.3-0.2-0.5-0.5-0.5l0,0c-0.3,0-0.5,0.2-0.5,0.5v29.6
					C95,254.9,95.2,255.1,95.5,255.1z"/>
				<path class="st6" d="M100.5,187L100.5,187c0.3,0,0.5-0.2,0.5-0.5v-9c0-0.3-0.2-0.5-0.5-0.5l0,0c-0.3,0-0.5,0.2-0.5,0.5v9
					C100,186.7,100.2,187,100.5,187z"/>
				<path class="st6" d="M100.5,238.4L100.5,238.4c0.3,0,0.5-0.2,0.5-0.5v-9c0-0.3-0.2-0.5-0.5-0.5l0,0c-0.3,0-0.5,0.2-0.5,0.5v9
					C100,238.2,100.2,238.4,100.5,238.4z"/>
			</g>
			<g class="st4">
				<g>
					<polygon class="st3" points="64.9,232 63.5,274.8 81.5,274.8 80.1,226.2 					"/>
					<polygon class="st3" points="80.1,216.7 80.1,175.6 64.9,175.6 64.9,226.2 					"/>
					
						<rect x="67.8" y="211.1" transform="matrix(-1 -1.224647e-16 1.224647e-16 -1 145.4846 448.5484)" class="st3" width="10" height="26.4"/>
				</g>
				<path class="st6" d="M66.4,240.9L66.4,240.9c-0.3,0-0.5,0.2-0.5,0.5V269c0,0.3,0.2,0.5,0.5,0.5l0,0c0.3,0,0.5-0.2,0.5-0.5v-27.6
					C66.9,241.2,66.7,240.9,66.4,240.9z"/>
				<path class="st6" d="M74.9,233L74.9,233c-0.3,0-0.5,0.2-0.5,0.5v27.6c0,0.3,0.2,0.5,0.5,0.5l0,0c0.3,0,0.5-0.2,0.5-0.5v-27.6
					C75.4,233.2,75.1,233,74.9,233z"/>
				<path class="st6" d="M74.9,182.3L74.9,182.3c-0.3,0-0.5,0.2-0.5,0.5v27.6c0,0.3,0.2,0.5,0.5,0.5l0,0c0.3,0,0.5-0.2,0.5-0.5
					v-27.6C75.4,182.5,75.1,182.3,74.9,182.3z"/>
				<path class="st6" d="M70.2,245.8L70.2,245.8c-0.3,0-0.5,0.2-0.5,0.5v8.4c0,0.3,0.2,0.5,0.5,0.5l0,0c0.3,0,0.5-0.2,0.5-0.5v-8.4
					C70.7,246,70.5,245.8,70.2,245.8z"/>
				<path class="st6" d="M70.2,197.8L70.2,197.8c-0.3,0-0.5,0.2-0.5,0.5v8.4c0,0.3,0.2,0.5,0.5,0.5l0,0c0.3,0,0.5-0.2,0.5-0.5v-8.4
					C70.7,198.1,70.5,197.8,70.2,197.8z"/>
			</g>
			<g class="st4">
				<g>
					<path class="st3" d="M201.4,199.4h-1.6h-1.6c0,37-6.7,65.2-6.7,65.2h8.4h8.4C208.1,264.6,201.4,236.4,201.4,199.4z"/>
					<ellipse class="st3" cx="199.8" cy="201.4" rx="16.1" ry="8.2"/>
				</g>
				<path class="st5" d="M192.5,201.1L192.5,201.1c0,0.3,0.2,0.5,0.5,0.5h17.6c0.3,0,0.5-0.2,0.5-0.5l0,0c0-0.3-0.2-0.5-0.5-0.5H193
					C192.7,200.6,192.5,200.8,192.5,201.1z"/>
			</g>
			<path class="st3" d="M47.1,245c0,0,112.1-17.5,150.6-40.2s-19-32.8-19-32.8l-2.3-10.5c0,0,79.1,3.7,56.2,37.8
				c-22.9,34-185.6,49.5-185.6,49.5V245z"/>
			<g>
				<g>
					<polygon class="st3" points="178.8,175.3 181,109.3 153.2,109.3 155.4,184.2 					"/>
					<polygon class="st3" points="155.4,198.9 155.4,262.3 178.8,262.3 178.8,184.2 					"/>
					<rect x="159" y="166.9" class="st3" width="15.4" height="40.7"/>
				</g>
				<path class="st6" d="M176.5,161.5L176.5,161.5c0.4,0,0.8-0.3,0.8-0.8v-42.5c0-0.4-0.3-0.8-0.8-0.8l0,0c-0.4,0-0.8,0.3-0.8,0.8
					v42.5C175.8,161.2,176.1,161.5,176.5,161.5z"/>
				<path class="st6" d="M163.4,173.8L163.4,173.8c0.4,0,0.8-0.3,0.8-0.8v-42.5c0-0.4-0.3-0.8-0.8-0.8l0,0c-0.4,0-0.8,0.3-0.8,0.8
					V173C162.7,173.4,163,173.8,163.4,173.8z"/>
				<path class="st6" d="M163.4,252L163.4,252c0.4,0,0.8-0.3,0.8-0.8v-42.5c0-0.4-0.3-0.8-0.8-0.8l0,0c-0.4,0-0.8,0.3-0.8,0.8v42.5
					C162.7,251.6,163,252,163.4,252z"/>
				<path class="st6" d="M170.6,154L170.6,154c0.4,0,0.8-0.3,0.8-0.8v-13c0-0.4-0.3-0.8-0.8-0.8l0,0c-0.4,0-0.8,0.3-0.8,0.8v13
					C169.9,153.7,170.2,154,170.6,154z"/>
				<path class="st6" d="M170.6,228L170.6,228c0.4,0,0.8-0.3,0.8-0.8v-13c0-0.4-0.3-0.8-0.8-0.8l0,0c-0.4,0-0.8,0.3-0.8,0.8v13
					C169.9,227.7,170.2,228,170.6,228z"/>
			</g>
			<g>
				<path class="st3" d="M186.5,267.1c0-10.7,7.8-19.3,17.4-19.3s17.4,8.7,17.4,19.3c0,1.1-0.1,2.1-0.2,3.1h7c-0.1-1-0.1-2-0.1-3.1
					c0-10.7,3.6-19.3,8-19.3c4.4,0,8,8.7,8,19.3c0,1.1,0,2.1-0.1,3.1h20.8c0-23-18.6-41.6-41.6-41.6c-23,0-41.6,18.6-41.6,41.6h5.4
					C186.6,269.2,186.5,268.2,186.5,267.1z"/>
				<path class="st5" d="M225.1,240.9L225.1,240.9c0,0.3,0.2,0.5,0.5,0.5h17.6c0.3,0,0.5-0.2,0.5-0.5l0,0c0-0.3-0.2-0.5-0.5-0.5
					h-17.6C225.3,240.5,225.1,240.7,225.1,240.9z"/>
				<path class="st5" d="M210,234.9L210,234.9c0,0.3,0.2,0.5,0.5,0.5h5.7c0.3,0,0.5-0.2,0.5-0.5l0,0c0-0.3-0.2-0.5-0.5-0.5h-5.7
					C210.2,234.4,210,234.6,210,234.9z"/>
				<path class="st5" d="M217.7,234.9L217.7,234.9c0,0.3,0.2,0.5,0.5,0.5h2c0.3,0,0.5-0.2,0.5-0.5l0,0c0-0.3-0.2-0.5-0.5-0.5h-2
					C218,234.4,217.7,234.6,217.7,234.9z"/>
			</g>
			<g>
				<polygon class="st3" points="123.8,159.8 131.7,174.5 90.5,262.3 142,262.3 142,136.3 				"/>
				<path class="st5" d="M135.8,207.6L135.8,207.6c0.4,0,0.8-0.3,0.8-0.8v-13c0-0.4-0.3-0.8-0.8-0.8l0,0c-0.4,0-0.8,0.3-0.8,0.8v13
					C135,207.2,135.4,207.6,135.8,207.6z"/>
				<path class="st5" d="M123.7,231.9L123.7,231.9c0.4,0,0.8-0.3,0.8-0.8v-13c0-0.4-0.3-0.8-0.8-0.8l0,0c-0.4,0-0.8,0.3-0.8,0.8v13
					C123,231.6,123.3,231.9,123.7,231.9z"/>
				<path class="st5" d="M128,245L128,245c0.4,0,0.8-0.3,0.8-0.8V205c0-0.4-0.3-0.8-0.8-0.8l0,0c-0.4,0-0.8,0.3-0.8,0.8v39.2
					C127.3,244.7,127.6,245,128,245z"/>
			</g>
			<g>
				<g>
					<g>
						<path class="st3" d="M93.5,153.2h-2.7h-2.7c0,61.6-11.2,108.6-11.2,108.6h14h14C104.8,261.9,93.5,214.9,93.5,153.2z"/>
						<ellipse class="st3" cx="90.8" cy="156.5" rx="26.8" ry="13.7"/>
					</g>
					<path class="st5" d="M81.5,156.5L81.5,156.5c0,0.3,0.2,0.5,0.5,0.5h17.6c0.3,0,0.5-0.2,0.5-0.5l0,0c0-0.3-0.2-0.5-0.5-0.5H82
						C81.7,156,81.5,156.3,81.5,156.5z"/>
				</g>
				<g>
					<g>
						<defs>
							<polygon id="XMLID_00000032631836347143817270000004367988914791306680_" points="61.6,108.9 56.3,108.9 49.4,136.2 
								42.8,139.5 32.6,177.2 39.8,174.4 38,181.3 29.9,185.9 11.7,261.9 53.6,261.9 58.7,169.8 52.5,173.2 							"/>
						</defs>
						<use xlink:href="#XMLID_00000032631836347143817270000004367988914791306680_"  style="overflow:visible;fill:#2D2D84;"/>
						<clipPath id="XMLID_00000148653272858372399840000006945345735051691176_">
							<use xlink:href="#XMLID_00000032631836347143817270000004367988914791306680_"  style="overflow:visible;"/>
						</clipPath>
					</g>
					<path class="st6" d="M42.2,196.9L42.2,196.9c-0.3-0.1-0.5,0.1-0.6,0.4l-3.5,17.3c-0.1,0.3,0.1,0.5,0.4,0.6l0,0
						c0.3,0.1,0.5-0.1,0.6-0.4l3.5-17.3C42.6,197.2,42.4,196.9,42.2,196.9z"/>
					<path class="st6" d="M38.1,217.4L38.1,217.4c-0.3-0.1-0.5,0.1-0.6,0.4l-0.6,2.8c-0.1,0.3,0.1,0.5,0.4,0.6l0,0
						c0.3,0.1,0.5-0.1,0.6-0.4l0.6-2.8C38.5,217.7,38.3,217.4,38.1,217.4z"/>
					<path class="st6" d="M52,142.8L52,142.8c-0.3,0-0.5,0.1-0.5,0.4l-2.6,17.4c0,0.3,0.1,0.5,0.4,0.5l0,0c0.3,0,0.5-0.1,0.5-0.4
						l2.6-17.4C52.4,143.1,52.2,142.8,52,142.8z"/>
					<path class="st6" d="M48.9,163.4L48.9,163.4c-0.3,0-0.5,0.1-0.5,0.4l-0.4,2.9c0,0.3,0.1,0.5,0.4,0.5l0,0c0.3,0,0.5-0.1,0.5-0.4
						l0.4-2.9C49.4,163.7,49.2,163.5,48.9,163.4z"/>
					<path class="st6" d="M29.7,204L29.7,204c-0.3-0.1-0.5,0.1-0.6,0.4l-7.2,35.7c-0.1,0.3,0.1,0.5,0.4,0.6l0,0
						c0.3,0.1,0.5-0.1,0.6-0.4l7.2-35.7C30.1,204.3,29.9,204.1,29.7,204z"/>
				</g>
				<path class="st3" d="M48.7,212.4v49.5h10.2c-0.1-2.6-0.2-5.3-0.2-8.1c0-16.7,2-30.2,4.4-30.2c2.4,0,4.4,13.5,4.4,30.2
					c0,2.8-0.1,5.5-0.2,8.1h3c-0.1-2.6-0.2-5.3-0.2-8.1c0-16.7,2-30.2,4.4-30.2c2.4,0,4.4,13.5,4.4,30.2c0,2.8-0.1,5.5-0.2,8.1h7.5
					v-49.5H48.7z"/>
			</g>
		</g>
		
			<linearGradient id="SVGID_00000137100322759610274080000009659682845187270586_" gradientUnits="userSpaceOnUse" x1="410" y1="287.4345" x2="410" y2="38.8975">
			<stop  offset="4.485000e-02" style="stop-color:#4AC3FF"/>
			<stop  offset="0.259" style="stop-color:#000000"/>
		</linearGradient>
		<path style="fill:url(#SVGID_00000137100322759610274080000009659682845187270586_);" d="M0,189.7c279.5,22.2,553.5,24.5,820,0
			V292H0V189.7z"/>
		<g>
			<defs>
				<path id="XMLID_00000105424056764139115070000017373253350322806147_" d="M0,244.1c279.5,31.8,553.5,34.2,820,0V312H0V244.1z"/>
			</defs>
			<use xlink:href="#XMLID_00000105424056764139115070000017373253350322806147_"  style="overflow:visible;fill:#2D2D84;"/>
			<clipPath id="XMLID_00000053546490231001005160000015473061448052774567_">
				<use xlink:href="#XMLID_00000105424056764139115070000017373253350322806147_"  style="overflow:visible;"/>
			</clipPath>
			<g style="clip-path:url(#XMLID_00000053546490231001005160000015473061448052774567_);">
				<g>
					<polygon class="st9" points="-403.1,325 -406.2,325 -128.1,283.9 -78.8,280.2 139.9,246.2 141,246.2 -77.6,280.3 -127,284 
											"/>
				</g>
				<g>
					<polygon class="st9" points="-219.8,325 -222.9,325 -107.4,302.9 -48,297.3 202.8,246.2 203.9,246.2 -46.5,297.5 -105.9,303.1 
											"/>
				</g>
				<g>
					<polygon class="st9" points="-49.5,324.7 -52.6,324.7 152.6,271.1 142.1,268.5 234.4,246.2 235.5,246.2 144.1,268.4 154.6,271 
											"/>
				</g>
				<g>
					<polygon class="st9" points="-292.5,325 -295.6,325 164.6,246.2 165.7,246.2 					"/>
				</g>
				<g>
					<polygon class="st9" points="57.2,325 54.1,325 284.6,246.2 285.7,246.2 					"/>
				</g>
				<g>
					<polygon class="st9" points="165.1,325 162,325 245.3,283.9 277.1,280.2 334.9,246.2 336,246.2 278.8,280.3 247.1,284 					"/>
				</g>
				<g>
					<polygon class="st9" points="348.4,325 345.3,325 356.3,302.9 388.9,297.3 397.8,246.2 398.9,246.2 391.2,297.5 358.7,303.1 
											"/>
				</g>
				<g>
					<polygon class="st9" points="517.2,324.7 514.2,324.7 465.2,271.1 442.4,268.5 429.2,246.2 430.3,246.2 443.9,268.4 466.8,271 
											"/>
				</g>
				<g>
					<polygon class="st9" points="275.7,325 272.6,325 359.6,246.2 360.6,246.2 					"/>
				</g>
				<g>
					<polygon class="st9" points="625.4,325 622.3,325 479.6,246.2 480.6,246.2 					"/>
				</g>
				<g>
					<polygon class="st9" points="-403.1,325 -406.2,325 -128.1,283.9 -78.8,280.2 139.9,246.2 141,246.2 -77.6,280.3 -127,284 
											"/>
				</g>
				<g>
					<polygon class="st9" points="-219.8,325 -222.9,325 -107.4,302.9 -48,297.3 202.8,246.2 203.9,246.2 -46.5,297.5 -105.9,303.1 
											"/>
				</g>
				<g>
					<polygon class="st9" points="-49.5,324.7 -52.6,324.7 152.6,271.1 142.1,268.5 234.4,246.2 235.5,246.2 144.1,268.4 154.6,271 
											"/>
				</g>
				<g>
					<polygon class="st9" points="-292.5,325 -295.6,325 164.6,246.2 165.7,246.2 					"/>
				</g>
				<g>
					<polygon class="st9" points="57.2,325 54.1,325 284.6,246.2 285.7,246.2 					"/>
				</g>
				<g>
					<polygon class="st9" points="165.1,325 162,325 245.3,283.9 277.1,280.2 334.9,246.2 336,246.2 278.8,280.3 247.1,284 					"/>
				</g>
				<g>
					<polygon class="st9" points="348.4,325 345.3,325 356.3,302.9 388.9,297.3 397.8,246.2 398.9,246.2 391.2,297.5 358.7,303.1 
											"/>
				</g>
				<g>
					<polygon class="st9" points="517.2,324.7 514.2,324.7 465.2,271.1 442.4,268.5 429.2,246.2 430.3,246.2 443.9,268.4 466.8,271 
											"/>
				</g>
				<g>
					<polygon class="st9" points="275.7,325 272.6,325 359.6,246.2 360.6,246.2 					"/>
				</g>
				<g>
					<polygon class="st9" points="625.4,325 622.3,325 479.6,246.2 480.6,246.2 					"/>
				</g>
				<g>
					<polygon class="st9" points="-219.8,325 -222.9,325 -107.4,302.9 -48,297.3 202.8,246.2 203.9,246.2 -46.5,297.5 -105.9,303.1 
											"/>
				</g>
				<g>
					<polygon class="st9" points="-49.5,324.7 -52.6,324.7 152.6,271.1 142.1,268.5 234.4,246.2 235.5,246.2 144.1,268.4 154.6,271 
											"/>
				</g>
				<g>
					<polygon class="st9" points="-292.5,325 -295.6,325 164.6,246.2 165.7,246.2 					"/>
				</g>
				<g>
					<polygon class="st9" points="57.2,325 54.1,325 284.6,246.2 285.7,246.2 					"/>
				</g>
				<g>
					<polygon class="st9" points="165.1,325 162,325 245.3,283.9 277.1,280.2 334.9,246.2 336,246.2 278.8,280.3 247.1,284 					"/>
				</g>
				<g>
					<polygon class="st9" points="348.4,325 345.3,325 356.3,302.9 388.9,297.3 397.8,246.2 398.9,246.2 391.2,297.5 358.7,303.1 
											"/>
				</g>
				<g>
					<polygon class="st9" points="517.2,324.7 514.2,324.7 465.2,271.1 442.4,268.5 429.2,246.2 430.3,246.2 443.9,268.4 466.8,271 
											"/>
				</g>
				<g>
					<polygon class="st9" points="275.7,325 272.6,325 359.6,246.2 360.6,246.2 					"/>
				</g>
				<g>
					<polygon class="st9" points="625.4,325 622.3,325 479.6,246.2 480.6,246.2 					"/>
				</g>
				<g>
					<polygon class="st9" points="-448.4,322.1 -451.5,322.1 -173.5,281 -124.1,277.3 94.6,243.3 95.7,243.3 -122.9,277.4 
						-172.3,281.1 					"/>
				</g>
				<g>
					<polygon class="st9" points="-219.8,325 -222.9,325 -107.4,302.9 -48,297.3 202.8,246.2 203.9,246.2 -46.5,297.5 -105.9,303.1 
											"/>
				</g>
				<g>
					<polygon class="st9" points="-49.5,324.7 -52.6,324.7 152.6,271.1 142.1,268.5 234.4,246.2 235.5,246.2 144.1,268.4 154.6,271 
											"/>
				</g>
				<g>
					<polygon class="st9" points="-292.5,325 -295.6,325 164.6,246.2 165.7,246.2 					"/>
				</g>
				<g>
					<polygon class="st9" points="57.2,325 54.1,325 284.6,246.2 285.7,246.2 					"/>
				</g>
				<g>
					<polygon class="st9" points="165.1,325 162,325 245.3,283.9 277.1,280.2 334.9,246.2 336,246.2 278.8,280.3 247.1,284 					"/>
				</g>
				<g>
					<polygon class="st9" points="348.4,325 345.3,325 356.3,302.9 388.9,297.3 397.8,246.2 398.9,246.2 391.2,297.5 358.7,303.1 
											"/>
				</g>
				<g>
					<polygon class="st9" points="517.2,324.7 514.2,324.7 465.2,271.1 442.4,268.5 429.2,246.2 430.3,246.2 443.9,268.4 466.8,271 
											"/>
				</g>
				<g>
					<polygon class="st9" points="275.7,325 272.6,325 359.6,246.2 360.6,246.2 					"/>
				</g>
				<g>
					<polygon class="st9" points="720.6,325 717.5,325 660,302.9 675.1,297.3 525.5,246.2 526.6,246.2 678,297.5 663.1,303.1 					
						"/>
				</g>
				<g>
					<polygon class="st9" points="888.5,324.7 885.4,324.7 670,271.1 639,268.5 556.9,246.2 557.9,246.2 640.4,268.4 671.4,271 
											"/>
				</g>
				<g>
					<polygon class="st9" points="997.7,325 994.6,325 607.3,246.2 608.4,246.2 					"/>
				</g>
				<g>
					<polygon class="st9" points="1105.6,325 1102.5,325 863.4,283.9 866.1,280.2 657.6,246.2 658.7,246.2 868.7,280.3 866.2,284 
											"/>
				</g>
				<g>
					<polygon class="st9" points="720.6,325 717.5,325 660,302.9 675.1,297.3 525.5,246.2 526.6,246.2 678,297.5 663.1,303.1 					
						"/>
				</g>
				<g>
					<polygon class="st9" points="888.5,324.7 885.4,324.7 670,271.1 639,268.5 556.9,246.2 557.9,246.2 640.4,268.4 671.4,271 
											"/>
				</g>
				<g>
					<polygon class="st9" points="997.7,325 994.6,325 607.3,246.2 608.4,246.2 					"/>
				</g>
				<g>
					<polygon class="st9" points="1105.6,325 1102.5,325 863.4,283.9 866.1,280.2 657.6,246.2 658.7,246.2 868.7,280.3 866.2,284 
											"/>
				</g>
				<g>
					<polygon class="st9" points="720.6,325 717.5,325 660,302.9 675.1,297.3 525.5,246.2 526.6,246.2 678,297.5 663.1,303.1 					
						"/>
				</g>
				<g>
					<polygon class="st9" points="888.5,324.7 885.4,324.7 670,271.1 639,268.5 556.9,246.2 557.9,246.2 640.4,268.4 671.4,271 
											"/>
				</g>
				<g>
					<polygon class="st9" points="997.7,325 994.6,325 607.3,246.2 608.4,246.2 					"/>
				</g>
				<g>
					<polygon class="st9" points="1105.6,325 1102.5,325 863.4,283.9 866.1,280.2 657.6,246.2 658.7,246.2 868.7,280.3 866.2,284 
											"/>
				</g>
				<g>
					<polygon class="st9" points="720.6,325 717.5,325 660,302.9 675.1,297.3 525.5,246.2 526.6,246.2 678,297.5 663.1,303.1 					
						"/>
				</g>
				<g>
					<polygon class="st9" points="888.5,324.7 885.4,324.7 670,271.1 639,268.5 556.9,246.2 557.9,246.2 640.4,268.4 671.4,271 
											"/>
				</g>
				<g>
					<polygon class="st9" points="997.7,325 994.6,325 607.3,246.2 608.4,246.2 					"/>
				</g>
				<g>
					<polygon class="st9" points="1105.6,325 1102.5,325 863.4,283.9 866.1,280.2 657.6,246.2 658.7,246.2 868.7,280.3 866.2,284 
											"/>
				</g>
				<g>
					<polygon class="st9" points="1274.7,320.8 1271.6,320.8 740.8,242.1 741.9,242.1 					"/>
				</g>
				<g>
					<polygon class="st9" points="625.4,325 622.3,325 479.6,246.2 480.6,246.2 					"/>
				</g>
			</g>
		</g>
	</g>
	<g>
		<path class="st10" d="M529,103.4c0,0.5-0.4,1-1,1s-1-0.4-1-1c0-0.5,0.4-1,1-1S529,102.8,529,103.4z"/>
		<path class="st10" d="M720.6,68.3c0,0.5-0.4,1-1,1s-1-0.4-1-1c0-0.5,0.4-1,1-1S720.6,67.8,720.6,68.3z"/>
		<path class="st10" d="M550,76.2c0,0.5-0.4,1-1,1s-1-0.4-1-1c0-0.5,0.4-1,1-1S550,75.7,550,76.2z"/>
		<path class="st10" d="M728.6,127.2c0,0.5-0.4,1-1,1c-0.5,0-1-0.4-1-1c0-0.5,0.4-1,1-1C728.2,126.2,728.6,126.7,728.6,127.2z"/>
		<path class="st10" d="M561.3,50.1c0,0.5-0.4,1-1,1c-0.5,0-1-0.4-1-1c0-0.5,0.4-1,1-1C560.9,49.1,561.3,49.6,561.3,50.1z"/>
		<circle class="st10" cx="587.7" cy="71.7" r="1"/>
		<path class="st10" d="M645.9,104.4c0,0.5-0.4,1-1,1c-0.5,0-1-0.4-1-1c0-0.5,0.4-1,1-1C645.5,103.4,645.9,103.8,645.9,104.4z"/>
		<path class="st10" d="M516.3,144.1c0,0.3-0.2,0.5-0.5,0.5c-0.3,0-0.5-0.2-0.5-0.5c0-0.3,0.2-0.5,0.5-0.5
			C516.1,143.6,516.3,143.8,516.3,144.1z"/>
		<path class="st10" d="M728.1,88.8c0,0.3-0.2,0.5-0.5,0.5c-0.3,0-0.5-0.2-0.5-0.5c0-0.3,0.2-0.5,0.5-0.5
			C727.9,88.3,728.1,88.6,728.1,88.8z"/>
		<path class="st10" d="M277,87.1c0,0.5-0.4,1-1,1c-0.5,0-1-0.4-1-1c0-0.5,0.4-1,1-1C276.6,86.1,277,86.6,277,87.1z"/>
		<path class="st10" d="M468.6,52.1c0,0.5-0.4,1-1,1c-0.5,0-1-0.4-1-1c0-0.5,0.4-1,1-1C468.2,51.1,468.6,51.5,468.6,52.1z"/>
		<path class="st10" d="M298,60c0,0.5-0.4,1-1,1s-1-0.4-1-1c0-0.5,0.4-1,1-1S298,59.4,298,60z"/>
		<path class="st10" d="M476.6,111c0,0.5-0.4,1-1,1c-0.5,0-1-0.4-1-1c0-0.5,0.4-1,1-1C476.2,110,476.6,110.4,476.6,111z"/>
		<path class="st10" d="M309.3,33.9c0,0.5-0.4,1-1,1c-0.5,0-1-0.4-1-1s0.4-1,1-1C308.9,32.9,309.3,33.3,309.3,33.9z"/>
		<path class="st10" d="M336.7,55.4c0,0.5-0.4,1-1,1c-0.5,0-1-0.4-1-1c0-0.5,0.4-1,1-1C336.3,54.5,336.7,54.9,336.7,55.4z"/>
		<path class="st10" d="M393.9,88.1c0,0.5-0.4,1-1,1c-0.5,0-1-0.4-1-1c0-0.5,0.4-1,1-1C393.5,87.1,393.9,87.6,393.9,88.1z"/>
		<path class="st10" d="M234.4,55.5c0,0.3-0.2,0.5-0.5,0.5c-0.3,0-0.5-0.2-0.5-0.5c0-0.3,0.2-0.5,0.5-0.5
			C234.2,55,234.4,55.2,234.4,55.5z"/>
		<path class="st10" d="M476.1,72.6c0,0.3-0.2,0.5-0.5,0.5c-0.3,0-0.5-0.2-0.5-0.5s0.2-0.5,0.5-0.5
			C475.9,72.1,476.1,72.3,476.1,72.6z"/>
	</g>
</g>
<g id="TEXTS">
</g>
</svg>
