<?xml version="1.0" encoding="utf-8"?>
<!-- Generator: Adobe Illustrator 26.0.0, SVG Export Plug-In . SVG Version: 6.00 Build 0)  -->
<svg version="1.1" xmlns="http://www.w3.org/2000/svg" xmlns:xlink="http://www.w3.org/1999/xlink" x="0px" y="0px"
	 viewBox="0 0 331 296.6" style="enable-background:new 0 0 331 296.6;" xml:space="preserve">
<style type="text/css">
	.st0{fill:#E0E0E0;}
	.st1{fill:#F0F0F0;}
	.st2{fill:#EBEBEB;}
	.st3{fill:#E6E6E6;}
	.st4{fill:#F0F0F0;stroke:#E0E0E0;stroke-width:2;stroke-linecap:round;stroke-linejoin:round;stroke-miterlimit:10;}
	.st5{display:none;}
	.st6{display:inline;}
	.st7{fill:#407BFF;}
	.st8{opacity:0.9;fill:#FFFFFF;}
	.st9{fill:#F5F5F5;}
</style>
<g id="Background_Complete">
	<g>
		<g>
			<polygon class="st0" points="139,222.5 130.5,222.5 125,222.5 140.6,235.4 143.4,235.4 146,235.4 142.3,229.9 153,235.4 
				155.5,235.4 158.5,235.4 			"/>
			<g>
				<polygon class="st0" points="28.5,235.4 34.1,235.4 46.5,229 41.1,235.4 46.5,235.4 62,222.5 48,222.5 				"/>
				<polygon class="st1" points="43.6,235.4 56.5,222.5 48,222.5 28.5,235.4 31.5,235.4 46.5,227.2 41.1,235.4 				"/>
			</g>
			<path class="st0" d="M0,235.4v61.2h188.4v-61.2H0z M185.3,259.4H34.1v-20h151.3V259.4z"/>
			<path class="st2" d="M30,235.4v61.2h158.5v-61.2H30z M185.3,259.4H34.1v-20h151.3V259.4z"/>
			<rect x="157.8" y="239.4" class="st0" width="27.6" height="20"/>
			<rect x="34.1" y="249.4" class="st0" width="39.9" height="10"/>
			<rect x="76.5" y="253.5" class="st0" width="25.7" height="5.9"/>
			<rect x="108.2" y="247.2" class="st0" width="30.3" height="12.1"/>
			<polygon class="st0" points="64.1,263.7 63.4,266.1 53.6,266.1 52.9,263.7 34.1,263.7 34.1,290.3 82.9,290.3 82.9,263.7 			"/>
			<polygon class="st0" points="115.3,263.7 114.6,266.1 104.7,266.1 104,263.7 85.2,263.7 85.2,290.3 134.1,290.3 134.1,263.7 			
				"/>
			<polygon class="st0" points="166.4,263.7 165.7,266.1 155.9,266.1 155.1,263.7 136.4,263.7 136.4,290.3 185.2,290.3 185.2,263.7 
							"/>
			<g>
				<path class="st0" d="M155.2,224.2H25.4c-1.9,0-3.5-1.6-3.5-3.5v-75.6c0-1.9,1.6-3.5,3.5-3.5h129.8c1.9,0,3.5,1.6,3.5,3.5v75.6
					C158.8,222.7,157.2,224.2,155.2,224.2z"/>
				<path class="st3" d="M158.4,224.2H28.7c-1.9,0-3.5-1.6-3.5-3.5v-75.6c0-1.9,1.6-3.5,3.5-3.5h129.8c1.9,0,3.5,1.6,3.5,3.5v75.6
					C162,222.7,160.4,224.2,158.4,224.2z"/>
				
					<rect x="56.2" y="118.5" transform="matrix(-1.836970e-16 1 -1 -1.836970e-16 276.4496 89.3438)" class="st1" width="74.7" height="128.8"/>
			</g>
		</g>
		<g>
			
				<ellipse transform="matrix(0.9695 -0.2452 0.2452 0.9695 1.7002 77.4921)" class="st0" cx="312.1" cy="31.9" rx="18.9" ry="18.9"/>
			
				<ellipse transform="matrix(0.2298 -0.9732 0.9732 0.2298 209.2962 328.2932)" class="st1" cx="312.1" cy="31.9" rx="16.1" ry="16.1"/>
			<polyline class="st4" points="311.3,20.9 311.3,32.1 303.8,27.9 			"/>
		</g>
		<g>
			<path class="st3" d="M54.1,32c0,0-0.9-6,3.5-9.9c4.4-3.9,4-6.2,2.8-6.5c-1.3-0.3-2.4,3.6-4.3,4.6c0,0-0.1-5.5,1.9-7.5
				c2-2,3-7.3,1.1-7.3c-1.9-0.1-2.1,3.1-2.4,5.4c-0.4,2.3-2.5,5.5-2.5,5.5s-0.4-4.9-1.7-7c-1.3-2,2.1-6.7,0.8-8.7
				c-1.3-2-3.6,1.8-3.4,6.2s3.1,9,2.4,13.5c0,0-1.3-3.2-2.4-3.5c-1.1-0.3-2.3-2.4-3.1-3.2c-0.8-0.8-1.7,1.9,0,4.4
				c1.7,2.5,6.2,9.2,5.5,14.7L54.1,32z"/>
			<path class="st3" d="M56.7,29.2l1.4,9c0.4,2.8-1.7,5.3-4.5,5.3h-1.5c-2.8,0-5-2.5-4.5-5.3l1.4-9H56.7z"/>
			
				<rect x="35" y="40.3" transform="matrix(-1 -1.224647e-16 1.224647e-16 -1 171.6632 85.7312)" class="st0" width="101.7" height="5.2"/>
			
				<rect x="127.5" y="21" transform="matrix(-1 -1.224647e-16 1.224647e-16 -1 259.5389 61.2398)" class="st2" width="4.5" height="19.3"/>
			
				<rect x="105.9" y="21" transform="matrix(-1 -1.224647e-16 1.224647e-16 -1 216.2006 61.2398)" class="st2" width="4.5" height="19.3"/>
			
				<rect x="79.6" y="20.7" transform="matrix(-0.9855 -0.1698 0.1698 -0.9855 157.3157 74.2151)" class="st2" width="4.5" height="19.3"/>
			
				<rect x="122" y="23.5" transform="matrix(-1 -1.224647e-16 1.224647e-16 -1 248.4333 63.7785)" class="st2" width="4.5" height="16.7"/>
			
				<rect x="111.7" y="23.5" transform="matrix(-1 -1.224647e-16 1.224647e-16 -1 227.8323 63.7785)" class="st2" width="4.5" height="16.7"/>
			
				<rect x="85.7" y="23.5" transform="matrix(-1 -1.224647e-16 1.224647e-16 -1 175.8335 63.7785)" class="st2" width="4.5" height="16.7"/>
			
				<rect x="98.1" y="23.2" transform="matrix(-0.9762 -0.2169 0.2169 -0.9762 191.4504 84.2173)" class="st2" width="4.5" height="16.7"/>
			
				<rect x="118.1" y="20" transform="matrix(-1 -1.224647e-16 1.224647e-16 -1 238.4426 60.2833)" class="st2" width="2.2" height="20.2"/>
			
				<rect x="91.4" y="20" transform="matrix(-1 -1.224647e-16 1.224647e-16 -1 185.132 60.2833)" class="st2" width="2.2" height="20.2"/>
		</g>
		<g>
			<rect x="35" y="79.3" class="st0" width="101.7" height="5.2"/>
			<rect x="39.7" y="60" class="st2" width="4.5" height="19.3"/>
			<rect x="61.3" y="60" class="st2" width="4.5" height="19.3"/>
			
				<rect x="87.6" y="59.8" transform="matrix(0.9855 -0.1698 0.1698 0.9855 -10.481 16.265)" class="st2" width="4.5" height="19.3"/>
			<rect x="45.2" y="62.5" class="st2" width="4.5" height="16.7"/>
			<rect x="55.5" y="62.5" class="st2" width="4.5" height="16.7"/>
			<rect x="81.5" y="62.5" class="st2" width="4.5" height="16.7"/>
			
				<rect x="69.1" y="62.3" transform="matrix(0.9762 -0.2169 0.2169 0.9762 -13.6191 17.149)" class="st2" width="4.5" height="16.7"/>
			<rect x="51.3" y="59" class="st2" width="2.2" height="20.2"/>
			<rect x="78" y="59" class="st2" width="2.2" height="20.2"/>
			<rect x="105.1" y="64" class="st2" width="21.8" height="15.1"/>
		</g>
	</g>
</g>
<g id="Background_Simple" class="st5">
	<g class="st6">
		<path class="st7" d="M23.1,199.5c-19.7-41.3-24.5-92.6-5.4-135C35,26.3,73.3,1.4,114.1-4.5c49.2-7,86.6,12.7,106.1,58.7
			c9,21.2,13.7,47.3,30.6,64c22.3,22.1,54,3.4,80.5,11.2c30.4,8.9,35.8,44.7,32.6,71.8c-7.9,66.5-73.9,94.3-132.9,101.8
			c-64.3,8.1-134.2-10.9-178.7-59.6C41,231,31,215.9,23.1,199.5z"/>
		<path class="st8" d="M23.1,199.5c-19.7-41.3-24.5-92.6-5.4-135C35,26.3,73.3,1.4,114.1-4.5c49.2-7,86.6,12.7,106.1,58.7
			c9,21.2,13.7,47.3,30.6,64c22.3,22.1,54,3.4,80.5,11.2c30.4,8.9,35.8,44.7,32.6,71.8c-7.9,66.5-73.9,94.3-132.9,101.8
			c-64.3,8.1-134.2-10.9-178.7-59.6C41,231,31,215.9,23.1,199.5z"/>
	</g>
</g>
<g id="Shadow_1_">
</g>
<g id="Plant">
</g>
<g id="Interior">
</g>
<g id="Device">
</g>
<g id="Speech_bubbles">
</g>
<g id="Character">
</g>
</svg>
