<?xml version="1.0" encoding="utf-8"?>
<!-- Generator: Adobe Illustrator 26.0.0, SVG Export Plug-In . SVG Version: 6.00 Build 0)  -->
<svg version="1.1" xmlns="http://www.w3.org/2000/svg" xmlns:xlink="http://www.w3.org/1999/xlink" x="0px" y="0px"
	 viewBox="0 0 500 372.6" style="enable-background:new 0 0 500 372.6;" xml:space="preserve">
<style type="text/css">
	.st0{fill:#EBEBEB;}
	.st1{fill:#E0E0E0;}
	.st2{fill:#F0F0F0;}
	.st3{fill:#E6E6E6;}
	.st4{fill:#F0F0F0;stroke:#E0E0E0;stroke-width:2;stroke-linecap:round;stroke-linejoin:round;stroke-miterlimit:10;}
	.st5{display:none;}
	.st6{display:inline;}
	.st7{fill:#407BFF;}
	.st8{opacity:0.9;fill:#FFFFFF;}
	.st9{fill:#F5F5F5;}
	.st10{fill:none;stroke:#407BFF;stroke-miterlimit:10;}
	.st11{opacity:0.2;fill:#FFFFFF;enable-background:new    ;}
	.st12{opacity:0.5;fill:#FFFFFF;enable-background:new    ;}
	.st13{fill:#263238;}
	.st14{opacity:0.2;enable-background:new    ;}
	.st15{fill:#FFFFFF;}
	.st16{opacity:0.4;fill:#FFFFFF;enable-background:new    ;}
	.st17{opacity:0.5;enable-background:new    ;}
	.st18{fill:#EBB376;}
	.st19{opacity:0.1;enable-background:new    ;}
	.st20{opacity:0.6;fill:#FFFFFF;enable-background:new    ;}
	.st21{fill:#D58745;}
	.st22{fill:none;stroke:#263238;stroke-width:0.7247;stroke-linecap:round;stroke-linejoin:round;stroke-miterlimit:10;}
	.st23{fill:none;stroke:#263238;stroke-width:0.708;stroke-linecap:round;stroke-linejoin:round;stroke-miterlimit:10;}
	.st24{opacity:0.5;fill:#FFFFFF;}
	.st25{fill:none;stroke:#FFFFFF;stroke-linecap:round;stroke-linejoin:round;stroke-miterlimit:10;}
</style>
<g id="Background_Complete">
	<g>
		<rect y="327.4" class="st0" width="500" height="0.2"/>
		<rect x="416.8" y="343.5" class="st0" width="33.1" height="0.2"/>
		<rect x="322.5" y="346.3" class="st0" width="8.7" height="0.2"/>
		<rect x="396.6" y="334.3" class="st0" width="19.2" height="0.2"/>
		<rect x="52.5" y="335.9" class="st0" width="43.2" height="0.2"/>
		<rect x="104.6" y="335.9" class="st0" width="6.3" height="0.2"/>
		<rect x="131.5" y="340.2" class="st0" width="93.7" height="0.2"/>
		<path class="st0" d="M237,282.8H43.9c-3.1,0-5.7-2.6-5.7-5.7V5.7c0-3.1,2.6-5.7,5.7-5.7H237c3.1,0,5.7,2.6,5.7,5.7v271.4
			C242.7,280.3,240.2,282.8,237,282.8z M43.9,0.2c-3,0-5.5,2.4-5.5,5.5v271.4c0,3,2.4,5.5,5.5,5.5H237c3,0,5.5-2.4,5.5-5.5V5.7
			c0-3-2.4-5.5-5.5-5.5H43.9z"/>
		<path class="st0" d="M453.3,282.8H260.2c-3.1,0-5.7-2.6-5.7-5.7V5.7c0-3.1,2.6-5.7,5.7-5.7h193.1c3.1,0,5.7,2.6,5.7,5.7v271.4
			C459,280.3,456.5,282.8,453.3,282.8z M260.2,0.2c-3,0-5.5,2.4-5.5,5.5v271.4c0,3,2.4,5.5,5.5,5.5h193.1c3,0,5.5-2.4,5.5-5.5V5.7
			c0-3-2.4-5.5-5.5-5.5H260.2z"/>
	</g>
	<g>
		<g>
			<polygon class="st1" points="199.2,253.8 190.8,253.8 185.2,253.8 200.8,266.7 203.7,266.7 206.2,266.7 202.6,261.2 213.2,266.7 
				215.8,266.7 218.8,266.7 			"/>
			<g>
				<polygon class="st1" points="88.7,266.7 94.3,266.7 106.7,260.3 101.3,266.7 106.7,266.7 122.3,253.8 108.3,253.8 				"/>
				<polygon class="st2" points="103.9,266.7 116.7,253.8 108.3,253.8 88.7,266.7 91.8,266.7 106.7,258.5 101.3,266.7 				"/>
			</g>
			<path class="st1" d="M60.3,266.7v61.2h188.4v-61.2H60.3z M245.6,290.7H94.3v-20h151.3V290.7z"/>
			<path class="st0" d="M90.2,266.7v61.2h158.5v-61.2H90.2z M245.6,290.7H94.3v-20h151.3V290.7z"/>
			<rect x="218" y="270.7" class="st1" width="27.6" height="20"/>
			<rect x="94.3" y="280.7" class="st1" width="39.9" height="10"/>
			<rect x="136.8" y="284.8" class="st1" width="25.7" height="5.9"/>
			<rect x="168.4" y="278.6" class="st1" width="30.3" height="12.1"/>
			<polygon class="st1" points="124.4,295.1 123.7,297.4 113.8,297.4 113.1,295.1 94.3,295.1 94.3,321.6 143.2,321.6 143.2,295.1 
							"/>
			<polygon class="st1" points="175.5,295.1 174.8,297.4 165,297.4 164.3,295.1 145.5,295.1 145.5,321.6 194.3,321.6 194.3,295.1 
							"/>
			<polygon class="st1" points="226.7,295.1 226,297.4 216.1,297.4 215.4,295.1 196.6,295.1 196.6,321.6 245.5,321.6 245.5,295.1 
							"/>
			<g>
				<path class="st1" d="M215.5,255.5H85.7c-1.9,0-3.5-1.6-3.5-3.5v-75.6c0-1.9,1.6-3.5,3.5-3.5h129.8c1.9,0,3.5,1.6,3.5,3.5V252
					C219,254,217.4,255.5,215.5,255.5z"/>
				<path class="st3" d="M218.7,255.5H88.9c-1.9,0-3.5-1.6-3.5-3.5v-75.6c0-1.9,1.6-3.5,3.5-3.5h129.8c1.9,0,3.5,1.6,3.5,3.5V252
					C222.2,254,220.7,255.5,218.7,255.5z"/>
				
					<rect x="116.5" y="149.8" transform="matrix(-1.836970e-16 1 -1 -1.836970e-16 368.0121 60.3881)" class="st2" width="74.7" height="128.8"/>
			</g>
		</g>
		<g>
			
				<ellipse transform="matrix(0.9695 -0.2452 0.2452 0.9695 -4.1359 93.2235)" class="st1" cx="372.3" cy="63.2" rx="18.9" ry="18.9"/>
			
				<ellipse transform="matrix(0.2298 -0.9732 0.9732 0.2298 225.2446 411.0516)" class="st2" cx="372.3" cy="63.2" rx="16.1" ry="16.1"/>
			<polyline class="st4" points="371.6,52.2 371.6,63.4 364.1,59.2 			"/>
		</g>
		<g>
			<path class="st3" d="M114.4,63.3c0,0-0.9-6,3.5-9.9c4.4-3.9,4-6.2,2.8-6.5c-1.3-0.3-2.4,3.6-4.3,4.6c0,0-0.1-5.5,1.9-7.5
				c2-2,3-7.3,1.1-7.3c-1.9-0.1-2.1,3.1-2.4,5.4c-0.4,2.3-2.5,5.5-2.5,5.5s-0.4-4.9-1.7-7c-1.3-2,2.1-6.7,0.8-8.7
				c-1.3-2-3.6,1.8-3.4,6.2s3.1,9,2.4,13.5c0,0-1.3-3.2-2.4-3.5c-1.1-0.3-2.3-2.4-3.1-3.2c-0.8-0.8-1.7,1.9,0,4.4
				c1.7,2.5,6.2,9.2,5.5,14.7L114.4,63.3z"/>
			<path class="st3" d="M117,60.5l1.4,9c0.4,2.8-1.7,5.3-4.5,5.3h-1.5c-2.8,0-5-2.5-4.5-5.3l1.4-9H117z"/>
			
				<rect x="95.2" y="71.6" transform="matrix(-1 -1.224647e-16 1.224647e-16 -1 292.1814 148.338)" class="st1" width="101.7" height="5.2"/>
			
				<rect x="187.8" y="52.3" transform="matrix(-1 -1.224647e-16 1.224647e-16 -1 380.0571 123.8466)" class="st0" width="4.5" height="19.3"/>
			
				<rect x="166.1" y="52.3" transform="matrix(-1 -1.224647e-16 1.224647e-16 -1 336.7188 123.8466)" class="st0" width="4.5" height="19.3"/>
			
				<rect x="139.9" y="52.1" transform="matrix(-0.9855 -0.1698 0.1698 -0.9855 271.642 146.6013)" class="st0" width="4.5" height="19.3"/>
			
				<rect x="182.2" y="54.8" transform="matrix(-1 -1.224647e-16 1.224647e-16 -1 368.9515 126.3853)" class="st0" width="4.5" height="16.7"/>
			
				<rect x="171.9" y="54.8" transform="matrix(-1 -1.224647e-16 1.224647e-16 -1 348.3505 126.3853)" class="st0" width="4.5" height="16.7"/>
			
				<rect x="145.9" y="54.8" transform="matrix(-1 -1.224647e-16 1.224647e-16 -1 296.3517 126.3853)" class="st0" width="4.5" height="16.7"/>
			
				<rect x="158.4" y="54.5" transform="matrix(-0.9762 -0.2169 0.2169 -0.9762 303.7444 159.1489)" class="st0" width="4.5" height="16.7"/>
			
				<rect x="178.4" y="51.3" transform="matrix(-1 -1.224647e-16 1.224647e-16 -1 358.9608 122.8901)" class="st0" width="2.2" height="20.2"/>
			
				<rect x="151.7" y="51.3" transform="matrix(-1 -1.224647e-16 1.224647e-16 -1 305.6502 122.8901)" class="st0" width="2.2" height="20.2"/>
		</g>
		<g>
			<rect x="95.2" y="110.6" class="st1" width="101.7" height="5.2"/>
			<rect x="99.9" y="91.3" class="st0" width="4.5" height="19.3"/>
			<rect x="121.6" y="91.3" class="st0" width="4.5" height="19.3"/>
			
				<rect x="147.8" y="91.1" transform="matrix(0.9855 -0.1698 0.1698 0.9855 -14.9221 26.9541)" class="st0" width="4.5" height="19.3"/>
			<rect x="105.5" y="93.8" class="st0" width="4.5" height="16.7"/>
			<rect x="115.8" y="93.8" class="st0" width="4.5" height="16.7"/>
			<rect x="141.8" y="93.8" class="st0" width="4.5" height="16.7"/>
			
				<rect x="129.3" y="93.6" transform="matrix(0.9762 -0.2169 0.2169 0.9762 -18.9741 30.964)" class="st0" width="4.5" height="16.7"/>
			<rect x="111.6" y="90.4" class="st0" width="2.2" height="20.2"/>
			<rect x="138.2" y="90.4" class="st0" width="2.2" height="20.2"/>
			<rect x="165.4" y="95.3" class="st0" width="21.8" height="15.1"/>
		</g>
	</g>
</g>
<g id="Background_Simple" class="st5">
</g>
<g id="Shadow_1_">
	
		<ellipse id="_x3C_Path_x3E__00000090293017350900755120000012961052979075639185_" class="st9" cx="250" cy="361.3" rx="193.9" ry="11.3"/>
</g>
<g id="Plant">
</g>
<g id="Interior">
</g>
<g id="Device">
</g>
<g id="Speech_bubbles">
</g>
<g id="Character">
</g>
</svg>
