<?xml version="1.0" encoding="utf-8"?>
<!-- Generator: Adobe Illustrator 26.0.0, SVG Export Plug-In . SVG Version: 6.00 Build 0)  -->
<svg version="1.1" id="Layer_1" xmlns="http://www.w3.org/2000/svg" xmlns:xlink="http://www.w3.org/1999/xlink" x="0px" y="0px"
	 viewBox="0 0 62.9 53.4" style="enable-background:new 0 0 62.9 53.4;" xml:space="preserve">
<style type="text/css">
	.st0{display:none;}
	.st1{fill:#366DB3;}
	.st2{fill:#352F84;}
</style>
<g id="Background_Complete">
</g>
<g id="Background_Simple" class="st0">
</g>
<g id="Floor">
</g>
<g id="Speech_Bubble">
</g>
<g id="Plant">
</g>
<g id="Character_1_">
</g>
<g id="Screen_00000089537828550865289390000016151936575028998044_">
	<g>
		<path class="st1" d="M32.7,48.9c-0.1-0.4-0.3-0.8-0.6-1.2c-0.7-1-1.9-1.6-3.3-1.6c-0.1,0-0.3,0-0.4,0c-0.3,0-0.6,0.1-1,0.2
			c-0.4,0.2-0.8,0.4-1.2,0.7c-0.3,0.2-0.5,0.5-0.8,0.8c-0.5,0.8-0.8,1.7-0.7,2.8c0.2,2.2,1.9,3.7,4.1,3.7c0.1,0,0.3,0,0.4,0
			c2.2-0.2,3.8-2.1,3.7-4.2c0-0.1,0-0.2,0-0.3C32.8,49.4,32.8,49.1,32.7,48.9z"/>
		<path class="st1" d="M54.5,44.7c-0.3-0.2-0.6-0.4-1-0.6c-0.4-0.2-0.9-0.3-1.4-0.3H52c-0.1,0-0.3,0-0.4,0c-1.3,0.1-2.6,0.9-3.2,2.1
			c-0.2,0.4-0.4,0.9-0.5,1.4c0,0.3-0.1,0.7,0,1v0.1c0.3,2.1,2,3.6,4.1,3.6c0.1,0,0.3,0,0.4,0c2.3-0.2,3.9-2.3,3.7-4.5
			C55.9,46.4,55.4,45.4,54.5,44.7z"/>
		<path class="st1" d="M17.7,23.6l-0.7-7.5c-0.3-3.6-3.4-6.4-7-6.4c-0.2,0-0.4,0-0.6,0l-6.8,0.7c-1.7,0.2-3.1,1.7-2.9,3.5
			c0.1,1.7,1.5,3,3.2,3c0.1,0,0.2,0,0.3,0l6.7-0.6c0,0,0,0,0.1,0c0.3,0,0.5,0.2,0.5,0.5l0.7,7.5c0.1,1.4,0.4,2.8,0.7,4.1
			c0.4-0.4,0.9-0.7,1.4-0.9l4.7-1.4C17.9,25.3,17.8,24.4,17.7,23.6z"/>
		<path class="st1" d="M63.8,19.3l-0.4-3.9c-0.2-1.6-1.5-3-3.2-3c-0.1,0-0.2,0-0.3,0c-1.7,0.2-3.1,1.7-2.9,3.5l0.4,3.9
			c0,0.5,0.1,1.1,0.1,1.6c0.1,6.9-3.4,13.1-8.7,16.7c-2.7,1.8-5.8,3-9.2,3.3c-0.6,0.1-1.2,0.1-1.9,0.1c-2.6,0-4.9-0.5-7.2-1.3
			c-2.2-0.8-4.1-2.1-5.8-3.5l-0.5,1.5c-0.5,1.4-1.7,2.3-3.2,2.3c-1.4,0-2.7-0.8-3.2-2.2l-1.1-3l-1.9-1c2.5,4.4,6.2,8.1,10.7,10.5
			c0.9-0.7,2-1.1,3.2-1.2c0.2,0,0.4,0,0.6,0l0,0c2.8,0,5,1.7,5.9,4.2c0.9,0.1,1.8,0.1,2.7,0.1s1.6,0,2.6-0.1c2-0.2,3.9-0.6,5.7-1.2
			c0.2-1,0.6-2.1,1.3-3c1-1.3,2.6-2.1,4.2-2.3c0.2,0,0.4,0,0.6,0l0,0c0.8,0,1.6,0.2,2.4,0.5C60.8,36.7,64.6,28.2,63.8,19.3z"/>
	</g>
	<path class="st1" d="M55,19.4c-1.1-0.8-2.5-1.3-4-1.7c3.4-2.2,5-5.3,4.6-9c-0.6-6.1-6-9.9-16.9-8.8L24.8,1.1
		c-3.9,0.4-6.8,3.9-6.4,7.8L20,24.7c0,0.2,0.1,0.5,0.1,0.7l3-0.9c0.3-0.1,0.7-0.1,1-0.1c1.1,0,2.2,0.5,2.8,1.4
		c0.6,0.9,0.8,2.1,0.4,3.1l-2,5.7c0.1,0.1,0.2,0.2,0.3,0.3c3.3,2.9,7.5,4.5,11.9,4.5c0.5,0,1.1,0,1.7-0.1c4.7-0.4,9-2.8,12-6.4
		s4.4-8.3,4-13L55,19.4z M31.7,9.9l6.1-0.6c3-0.3,4.4,0.6,4.6,2.5c0.2,2-1,3.1-4.1,3.3l-6.1,0.6L31.7,9.9z M41.6,29.9l-8,0.7
		L33,24.4l8-0.7c2.9-0.3,4.5,0.6,4.7,2.7C45.9,28.4,44.6,29.7,41.6,29.9z"/>
	<path class="st1" d="M24,26.3c-0.1,0-0.3,0-0.4,0.1l-9.6,3c-1.2,0.4-1.4,2.2-0.2,2.7l3.7,1.8c0.3,0.2,0.6,0.4,0.7,0.8l1.2,3.2
		c0.2,0.6,0.8,0.9,1.3,0.9c0.6,0,1.1-0.3,1.4-1l3.3-9.5C25.7,27.2,25,26.3,24,26.3z"/>
</g>
<g id="Character_00000168809528228489356590000013378359212435172503_">
</g>
<g id="Screen">
	<g>
		<path class="st2" d="M32.4,48.1c-0.1-0.4-0.3-0.8-0.6-1.2c-0.7-1-1.9-1.6-3.2-1.6c-0.1,0-0.3,0-0.4,0c-0.3,0-0.6,0.1-1,0.2
			c-0.4,0.2-0.8,0.4-1.2,0.7c-0.3,0.2-0.5,0.5-0.8,0.8c-0.5,0.8-0.8,1.7-0.7,2.7c0.2,2.1,1.9,3.6,4,3.6c0.1,0,0.3,0,0.4,0
			c2.1-0.2,3.7-2,3.6-4.1c0-0.1,0-0.2,0-0.3C32.5,48.6,32.5,48.3,32.4,48.1z"/>
		<path class="st2" d="M53.7,44c-0.3-0.2-0.6-0.4-1-0.6c-0.4-0.2-0.9-0.3-1.4-0.3h-0.1c-0.1,0-0.3,0-0.4,0c-1.3,0.1-2.5,0.9-3.1,2
			c-0.2,0.4-0.4,0.9-0.5,1.4c0,0.3-0.1,0.7,0,1v0.1c0.3,2,2,3.5,4,3.5c0.1,0,0.3,0,0.4,0c2.2-0.2,3.8-2.2,3.6-4.4
			C55,45.7,54.5,44.7,53.7,44z"/>
		<path class="st2" d="M17.7,23.5L17,16.2c-0.3-3.5-3.3-6.2-6.8-6.2c-0.2,0-0.4,0-0.6,0L3,10.7c-1.7,0.2-3,1.7-2.8,3.4
			C0.3,15.8,1.7,17,3.3,17c0.1,0,0.2,0,0.3,0l6.5-0.6c0,0,0,0,0.1,0c0.3,0,0.5,0.2,0.5,0.5l0.7,7.3c0.1,1.4,0.4,2.7,0.7,4
			c0.4-0.4,0.9-0.7,1.4-0.9l4.6-1.4C17.9,25.1,17.8,24.3,17.7,23.5z"/>
		<path class="st2" d="M62.7,19.3l-0.4-3.8c-0.2-1.6-1.5-2.9-3.1-2.9c-0.1,0-0.2,0-0.3,0c-1.7,0.2-3,1.7-2.8,3.4l0.4,3.8
			c0,0.5,0.1,1.1,0.1,1.6c0.1,6.7-3.3,12.8-8.5,16.3c-2.6,1.8-5.7,2.9-9,3.2C38.5,41,37.9,41,37.2,41c-2.5,0-4.8-0.5-7-1.3
			c-2.1-0.8-4-2-5.7-3.4L24,37.8c-0.5,1.4-1.7,2.2-3.1,2.2s-2.6-0.8-3.1-2.1L16.7,35l-1.9-1c2.4,4.3,6.1,7.9,10.4,10.2
			c0.9-0.7,2-1.1,3.1-1.2c0.2,0,0.4,0,0.6,0l0,0c2.7,0,4.9,1.7,5.8,4.1c0.9,0.1,1.8,0.1,2.6,0.1s1.6,0,2.5-0.1
			c2-0.2,3.8-0.6,5.6-1.2c0.2-1,0.6-2,1.3-2.9c1-1.3,2.5-2,4.1-2.2c0.2,0,0.4,0,0.6,0l0,0c0.8,0,1.6,0.2,2.3,0.5
			C59.8,36.2,63.5,28,62.7,19.3z"/>
	</g>
	<path class="st2" d="M54.2,19.4c-1.1-0.8-2.4-1.3-3.9-1.7c3.3-2.1,4.9-5.2,4.5-8.8C54.2,3,48.9-0.7,38.3,0.3L24.7,1.6
		c-3.8,0.4-6.6,3.8-6.2,7.6L20,24.6c0,0.2,0.1,0.5,0.1,0.7l2.9-0.9c0.3-0.1,0.7-0.1,1-0.1c1.1,0,2.1,0.5,2.7,1.4s0.8,2,0.4,3l-2,5.6
		c0.1,0.1,0.2,0.2,0.3,0.3C28.6,37.4,32.7,39,37,39c0.5,0,1.1,0,1.7-0.1c4.6-0.4,8.8-2.7,11.7-6.2s4.3-8.1,3.9-12.7L54.2,19.4z
		 M31.4,10.1l6-0.6c2.9-0.3,4.3,0.6,4.5,2.4c0.2,1.9-1,3-4,3.2l-6,0.6L31.4,10.1z M41.1,29.6l-7.8,0.7l-0.6-6l7.8-0.7
		c2.8-0.3,4.4,0.6,4.6,2.6C45.3,28.2,44,29.4,41.1,29.6z"/>
	<path class="st2" d="M23.9,26.1c-0.1,0-0.3,0-0.4,0.1l-9.4,2.9c-1.2,0.4-1.4,2.1-0.2,2.6l3.6,1.8c0.3,0.2,0.6,0.4,0.7,0.8l1.2,3.1
		c0.2,0.6,0.8,0.9,1.3,0.9c0.6,0,1.1-0.3,1.4-1l3.2-9.3C25.6,27,24.9,26.1,23.9,26.1z"/>
</g>
</svg>
