<?xml version="1.0" encoding="utf-8"?>
<!-- Generator: Adobe Illustrator 26.0.0, SVG Export Plug-In . SVG Version: 6.00 Build 0)  -->
<svg version="1.1" xmlns="http://www.w3.org/2000/svg" xmlns:xlink="http://www.w3.org/1999/xlink" x="0px" y="0px"
	 viewBox="0 0 1227.3 507.9" style="enable-background:new 0 0 1227.3 507.9;" xml:space="preserve">
<style type="text/css">
	.st0{fill:url(#SVGID_1_);}
	.st1{fill:url(#SVGID_00000099647910776325290760000012450800784566642345_);}
	.st2{fill:url(#SVGID_00000014596766390634107490000011453785726056791945_);}
	.st3{fill:url(#SVGID_00000036247099809759472910000011131847059523175359_);}
	.st4{opacity:0.7;}
	.st5{opacity:0.5;}
	.st6{fill:#2D2D84;}
	.st7{opacity:0.4;}
	.st8{fill:#D063E0;}
	.st9{fill:#44BDE2;}
	.st10{fill:url(#SVGID_00000096032677113323282810000014566406284555728052_);}
	.st11{clip-path:url(#XMLID_00000183968278010783581720000003705523929333220024_);}
	.st12{fill:#3548A0;}
	.st13{opacity:0.7;fill:#44BDE2;}
	.st14{fill:#99691C;}
	.st15{clip-path:url(#XMLID_00000128460209524749630750000018173883764840940171_);fill:#8356DB;}
	.st16{clip-path:url(#XMLID_00000128460209524749630750000018173883764840940171_);fill:#FFFFFF;}
	.st17{opacity:0.3;clip-path:url(#XMLID_00000128460209524749630750000018173883764840940171_);fill:#8356DB;}
	.st18{clip-path:url(#XMLID_00000029022481543792464530000005332933777910582446_);fill:#8356DB;}
	.st19{clip-path:url(#XMLID_00000029022481543792464530000005332933777910582446_);fill:#FFFFFF;}
	.st20{opacity:0.3;clip-path:url(#XMLID_00000029022481543792464530000005332933777910582446_);fill:#8356DB;}
	.st21{fill:#25214C;}
	.st22{fill:#F29875;}
	.st23{clip-path:url(#XMLID_00000093141860516825148100000010635814550660453290_);fill:#483AA9;}
	.st24{fill:#472D87;}
	.st25{clip-path:url(#XMLID_00000044178374873399985110000006592269431161503679_);fill:#D5BBFF;}
	.st26{opacity:0.23;clip-path:url(#XMLID_00000044178374873399985110000006592269431161503679_);fill:#472D87;}
	.st27{clip-path:url(#XMLID_00000053515895323042689220000012193133009946171022_);fill:#44BDE2;}
	.st28{fill:#8356DB;}
	.st29{fill:#D19834;}
	.st30{fill:#CC6A56;}
	.st31{clip-path:url(#XMLID_00000165938312255712667150000006538737508222177175_);fill:#772E22;}
	.st32{clip-path:url(#XMLID_00000165938312255712667150000006538737508222177175_);fill:#35140F;}
	.st33{clip-path:url(#XMLID_00000165938312255712667150000006538737508222177175_);fill:#FFFFFF;}
	.st34{clip-path:url(#XMLID_00000103953702431472390780000016924802806306023317_);}
	.st35{clip-path:url(#XMLID_00000149375154474322142940000011428147338198586807_);fill:#35140F;}
	.st36{clip-path:url(#XMLID_00000103953702431472390780000016924802806306023317_);fill:#FFFFFF;}
	.st37{clip-path:url(#XMLID_00000015330791975454836540000014451698158748781756_);fill:#CC5A58;}
	.st38{clip-path:url(#XMLID_00000015330791975454836540000014451698158748781756_);fill:#FFFFFF;}
	.st39{fill:#35140F;}
	.st40{fill:#772E22;}
	.st41{clip-path:url(#XMLID_00000029015281448630262640000007820842123401392290_);fill:#44BDE2;}
	.st42{fill:#EFCE43;}
	.st43{opacity:0.59;clip-path:url(#XMLID_00000178178799220130614020000012804907022213851794_);fill:#D19834;}
	.st44{opacity:0.59;clip-path:url(#XMLID_00000080189655106435386180000009696139327225935544_);fill:#D19834;}
	.st45{clip-path:url(#XMLID_00000005237963359182896370000002968677420286693011_);fill:#25214C;}
	.st46{clip-path:url(#XMLID_00000090272119279225443960000016378970548687052191_);fill:#25214C;}
	.st47{fill:#FFFFFF;}
	.st48{enable-background:new    ;}
	.st49{clip-path:url(#XMLID_00000106828512533006799270000008980705129412422297_);fill:#25214C;}
	.st50{clip-path:url(#XMLID_00000106828512533006799270000008980705129412422297_);fill:#8356DB;}
	.st51{clip-path:url(#XMLID_00000106828512533006799270000008980705129412422297_);fill:#FFFFFF;}
	.st52{clip-path:url(#XMLID_00000106828512533006799270000008980705129412422297_);fill:#44BDE2;}
	.st53{fill:#DDB63A;}
	.st54{clip-path:url(#XMLID_00000161599055373136200330000001664786637075628456_);fill:#FFF7D4;}
	.st55{clip-path:url(#XMLID_00000120521471204855608350000012819979091698688948_);}
	.st56{fill:#EBCB42;}
	.st57{opacity:0.46;clip-path:url(#XMLID_00000120521471204855608350000012819979091698688948_);fill:#FFF0B3;}
	.st58{fill:url(#SVGID_00000158710013785175277500000006328503644834666645_);}
	.st59{clip-path:url(#XMLID_00000158708782427347311850000016235834001040152721_);}
	.st60{fill:url(#SVGID_00000131367920943145797320000010600405121077733019_);}
	.st61{clip-path:url(#XMLID_00000166660261977029571620000002746322100619525001_);}
	.st62{fill:url(#SVGID_00000134972442331580503180000014147401302528718741_);}
	.st63{clip-path:url(#XMLID_00000032646321666389348180000010909064485666426766_);}
	.st64{clip-path:url(#XMLID_00000058565027280081382050000009056985450071323019_);fill:#FFFFFF;}
	.st65{opacity:0.49;clip-path:url(#XMLID_00000109003950004253175710000015137559934811855525_);fill:#4744AA;}
	.st66{clip-path:url(#XMLID_00000017479599276962197340000011549678391115073214_);fill:#25214C;}
	.st67{clip-path:url(#XMLID_00000017479599276962197340000011549678391115073214_);fill:#8356DB;}
	.st68{clip-path:url(#XMLID_00000017479599276962197340000011549678391115073214_);fill:#FFFFFF;}
	.st69{clip-path:url(#XMLID_00000017479599276962197340000011549678391115073214_);fill:#44BDE2;}
	.st70{clip-path:url(#XMLID_00000036233716910163196930000012323811403757604772_);fill:#FFF7D4;}
	.st71{clip-path:url(#XMLID_00000067208222092691927720000004917890399810842768_);}
	.st72{opacity:0.46;clip-path:url(#XMLID_00000067208222092691927720000004917890399810842768_);fill:#FFF0B3;}
	.st73{fill:#3C6EFD;}
	.st74{clip-path:url(#XMLID_00000106856618958860229960000002316237015402906528_);fill:#44BDE2;}
	.st75{opacity:0.53;clip-path:url(#XMLID_00000106856618958860229960000002316237015402906528_);fill:#2D6296;}
	.st76{clip-path:url(#XMLID_00000061457418660179737910000016918189792794284939_);}
	.st77{clip-path:url(#XMLID_00000167380922955748379630000011266114211368843694_);fill:#25214C;}
	.st78{clip-path:url(#XMLID_00000070099478649391198350000007821361359010157447_);fill:#D19834;}
	.st79{opacity:0.64;clip-path:url(#XMLID_00000070099478649391198350000007821361359010157447_);fill:#D19834;}
	.st80{opacity:0.66;clip-path:url(#XMLID_00000070099478649391198350000007821361359010157447_);fill:#D19834;}
	.st81{clip-path:url(#XMLID_00000070099478649391198350000007821361359010157447_);fill:#FFF7D4;}
	.st82{clip-path:url(#XMLID_00000070798851682735894680000009710042781010078357_);fill:#A04738;}
	.st83{fill:#A04738;}
	.st84{clip-path:url(#XMLID_00000124135199238646243590000001369590752385795506_);fill:#FFDACF;}
	.st85{clip-path:url(#XMLID_00000062168479430009321820000016174248119763403914_);fill:#CC5A58;}
	.st86{clip-path:url(#XMLID_00000062168479430009321820000016174248119763403914_);fill:#FFFFFF;}
	.st87{clip-path:url(#XMLID_00000010274141474507598550000017476028854153747381_);fill:#8356DB;}
	.st88{clip-path:url(#XMLID_00000008827461763180025740000002284111741336096947_);fill:#87BCF4;}
	.st89{opacity:0.66;clip-path:url(#XMLID_00000098198364291858750640000016247944933303079588_);fill:#D19834;}
	.st90{clip-path:url(#XMLID_00000098198364291858750640000016247944933303079588_);fill:#FFF7D4;}
	.st91{opacity:0.69;clip-path:url(#XMLID_00000020367662547822989190000009828764333196487306_);fill:#CC6A56;}
</style>
<g id="BACKGROUND">
	<linearGradient id="SVGID_1_" gradientUnits="userSpaceOnUse" x1="613.6649" y1="437.6433" x2="613.6649" y2="-46.1629">
		<stop  offset="2.184300e-02" style="stop-color:#4855EC"/>
		<stop  offset="0.5201" style="stop-color:#4538A7"/>
		<stop  offset="0.6268" style="stop-color:#3C3393"/>
		<stop  offset="0.8241" style="stop-color:#2E2B74"/>
		<stop  offset="0.934" style="stop-color:#292868"/>
	</linearGradient>
	<rect class="st0" width="1227.3" height="507.9"/>
</g>
<g id="OBJECTS">
	<g>
		<g class="st4">
			<g class="st5">
				<path class="st6" d="M877.9,353.7V417h-13c0.1-3.3,0.2-6.7,0.2-10.3c0-21.3-2.5-38.6-5.6-38.6c-3.1,0-5.6,17.3-5.6,38.6
					c0,3.6,0.1,7,0.2,10.3h-3.8c0.1-3.3,0.2-6.7,0.2-10.3c0-21.3-2.5-38.6-5.6-38.6c-3.1,0-5.6,17.3-5.6,38.6c0,3.6,0.1,7,0.2,10.3
					h-9.6v-63.3H877.9z"/>
				<g class="st7">
					<polygon class="st6" points="931.1,314.3 939,328.9 898,416.3 949.3,416.3 949.3,290.9 					"/>
					<path class="st8" d="M943.1,361.8L943.1,361.8c0.4,0,0.7-0.3,0.7-0.7v-12.9c0-0.4-0.3-0.7-0.7-0.7l0,0c-0.4,0-0.7,0.3-0.7,0.7
						v12.9C942.4,361.5,942.7,361.8,943.1,361.8z"/>
					<path class="st8" d="M931.1,386L931.1,386c0.4,0,0.7-0.3,0.7-0.7v-12.9c0-0.4-0.3-0.7-0.7-0.7l0,0c-0.4,0-0.7,0.3-0.7,0.7v12.9
						C930.3,385.7,930.7,386,931.1,386z"/>
					<path class="st8" d="M935.4,399.1L935.4,399.1c0.4,0,0.7-0.3,0.7-0.7v-39.1c0-0.4-0.3-0.7-0.7-0.7l0,0c-0.4,0-0.7,0.3-0.7,0.7
						v39.1C934.6,398.8,935,399.1,935.4,399.1z"/>
				</g>
				<g class="st7">
					<g>
						<polygon class="st6" points="660.4,356.1 658.4,297.4 683.2,297.4 681.2,364 						"/>
						<polygon class="st6" points="681.2,377.1 681.2,433.5 660.4,433.5 660.4,364 						"/>
						
							<rect x="664.3" y="348.6" transform="matrix(-1 -1.224647e-16 1.224647e-16 -1 1342.259 733.421)" class="st6" width="13.7" height="36.2"/>
					</g>
					<path class="st9" d="M662.4,343.9L662.4,343.9c-0.4,0-0.7-0.3-0.7-0.7v-37.8c0-0.4,0.3-0.7,0.7-0.7l0,0c0.4,0,0.7,0.3,0.7,0.7
						v37.8C663.1,343.6,662.8,343.9,662.4,343.9z"/>
					<path class="st9" d="M674,354.7L674,354.7c-0.4,0-0.7-0.3-0.7-0.7v-37.8c0-0.4,0.3-0.7,0.7-0.7l0,0c0.4,0,0.7,0.3,0.7,0.7V354
						C674.7,354.4,674.4,354.7,674,354.7z"/>
					<path class="st9" d="M674,424.3L674,424.3c-0.4,0-0.7-0.3-0.7-0.7v-37.8c0-0.4,0.3-0.7,0.7-0.7l0,0c0.4,0,0.7,0.3,0.7,0.7v37.8
						C674.7,424,674.4,424.3,674,424.3z"/>
					<path class="st9" d="M667.7,337.2L667.7,337.2c-0.4,0-0.7-0.3-0.7-0.7v-11.6c0-0.4,0.3-0.7,0.7-0.7l0,0c0.4,0,0.7,0.3,0.7,0.7
						v11.6C668.3,336.9,668,337.2,667.7,337.2z"/>
					<path class="st9" d="M667.7,403L667.7,403c-0.4,0-0.7-0.3-0.7-0.7v-11.6c0-0.4,0.3-0.7,0.7-0.7l0,0c0.4,0,0.7,0.3,0.7,0.7v11.6
						C668.3,402.7,668,403,667.7,403z"/>
				</g>
				<g class="st7">
					<g>
						<polygon class="st6" points="779.3,389.4 781.1,444.2 758.1,444.2 759.9,382.1 						"/>
						<polygon class="st6" points="759.9,369.9 759.9,317.3 779.3,317.3 779.3,382.1 						"/>
						<rect x="762.9" y="362.7" class="st6" width="12.7" height="33.7"/>
					</g>
					<path class="st9" d="M777.4,400.9L777.4,400.9c0.3,0,0.6,0.3,0.6,0.6v35.3c0,0.3-0.3,0.6-0.6,0.6l0,0c-0.3,0-0.6-0.3-0.6-0.6
						v-35.3C776.8,401.1,777,400.9,777.4,400.9z"/>
					<path class="st9" d="M766.6,390.7L766.6,390.7c0.3,0,0.6,0.3,0.6,0.6v35.3c0,0.3-0.3,0.6-0.6,0.6l0,0c-0.3,0-0.6-0.3-0.6-0.6
						v-35.3C765.9,391,766.2,390.7,766.6,390.7z"/>
					<path class="st9" d="M766.6,325.9L766.6,325.9c0.3,0,0.6,0.3,0.6,0.6v35.3c0,0.3-0.3,0.6-0.6,0.6l0,0c-0.3,0-0.6-0.3-0.6-0.6
						v-35.3C765.9,326.1,766.2,325.9,766.6,325.9z"/>
					<path class="st9" d="M772.5,407.1L772.5,407.1c0.3,0,0.6,0.3,0.6,0.6v10.8c0,0.3-0.3,0.6-0.6,0.6l0,0c-0.3,0-0.6-0.3-0.6-0.6
						v-10.8C771.9,407.4,772.2,407.1,772.5,407.1z"/>
					<path class="st9" d="M772.5,345.8L772.5,345.8c0.3,0,0.6,0.3,0.6,0.6v10.8c0,0.3-0.3,0.6-0.6,0.6l0,0c-0.3,0-0.6-0.3-0.6-0.6
						v-10.8C771.9,346,772.2,345.8,772.5,345.8z"/>
				</g>
				<g class="st7">
					<g>
						<polygon class="st6" points="739.6,389.4 741.4,444.2 718.4,444.2 720.2,382.1 						"/>
						<polygon class="st6" points="720.2,369.9 720.2,317.3 739.6,317.3 739.6,382.1 						"/>
						<rect x="723.2" y="362.7" class="st6" width="12.7" height="33.7"/>
					</g>
					<path class="st9" d="M737.7,400.9L737.7,400.9c0.3,0,0.6,0.3,0.6,0.6v35.3c0,0.3-0.3,0.6-0.6,0.6l0,0c-0.3,0-0.6-0.3-0.6-0.6
						v-35.3C737.1,401.1,737.4,400.9,737.7,400.9z"/>
					<path class="st9" d="M726.9,390.7L726.9,390.7c0.3,0,0.6,0.3,0.6,0.6v35.3c0,0.3-0.3,0.6-0.6,0.6l0,0c-0.3,0-0.6-0.3-0.6-0.6
						v-35.3C726.2,391,726.5,390.7,726.9,390.7z"/>
					<path class="st9" d="M726.9,325.9L726.9,325.9c0.3,0,0.6,0.3,0.6,0.6v35.3c0,0.3-0.3,0.6-0.6,0.6l0,0c-0.3,0-0.6-0.3-0.6-0.6
						v-35.3C726.2,326.1,726.5,325.9,726.9,325.9z"/>
					<path class="st9" d="M732.8,407.1L732.8,407.1c0.3,0,0.6,0.3,0.6,0.6v10.8c0,0.3-0.3,0.6-0.6,0.6l0,0c-0.3,0-0.6-0.3-0.6-0.6
						v-10.8C732.2,407.4,732.5,407.1,732.8,407.1z"/>
					<path class="st9" d="M732.8,345.8L732.8,345.8c0.3,0,0.6,0.3,0.6,0.6v10.8c0,0.3-0.3,0.6-0.6,0.6l0,0c-0.3,0-0.6-0.3-0.6-0.6
						v-10.8C732.2,346,732.5,345.8,732.8,345.8z"/>
				</g>
				<g class="st7">
					<g>
						<path class="st6" d="M538.7,340.5h2.1h2.1c0,47.3,8.6,83.3,8.6,83.3h-10.7h-10.7C530.1,423.9,538.7,387.8,538.7,340.5z"/>
						<ellipse class="st6" cx="540.8" cy="343.1" rx="20.5" ry="10.5"/>
					</g>
					<path class="st8" d="M550,342.6L550,342.6c0,0.3-0.3,0.6-0.6,0.6h-22.5c-0.3,0-0.6-0.3-0.6-0.6l0,0c0-0.3,0.3-0.6,0.6-0.6h22.5
						C549.8,342,550,342.3,550,342.6z"/>
				</g>
				<path class="st6" d="M735.9,411.4c0,0-143.3-22.4-192.5-51.4c-49.2-29,24.3-41.9,24.3-41.9l2.9-13.4c0,0-101.1,4.8-71.9,48.3
					c29.3,43.5,237.3,63.2,237.3,63.2V411.4z"/>
				<g>
					<g>
						<polygon class="st6" points="567.6,322.3 564.8,237.9 600.3,237.9 597.5,333.7 						"/>
						<polygon class="st6" points="597.5,352.5 597.5,433.5 567.6,433.5 567.6,333.7 						"/>
						
							<rect x="573.2" y="311.5" transform="matrix(-1 -1.224647e-16 1.224647e-16 -1 1166.0073 675.0169)" class="st6" width="19.6" height="52"/>
					</g>
					<path class="st9" d="M570.5,304.7L570.5,304.7c-0.5,0-1-0.4-1-1v-54.4c0-0.5,0.4-1,1-1l0,0c0.5,0,1,0.4,1,1v54.4
						C571.5,304.2,571,304.7,570.5,304.7z"/>
					<path class="st9" d="M587.2,320.3L587.2,320.3c-0.5,0-1-0.4-1-1v-54.4c0-0.5,0.4-1,1-1l0,0c0.5,0,1,0.4,1,1v54.4
						C588.1,319.8,587.7,320.3,587.2,320.3z"/>
					<path class="st9" d="M587.2,420.3L587.2,420.3c-0.5,0-1-0.4-1-1v-54.4c0-0.5,0.4-1,1-1l0,0c0.5,0,1,0.4,1,1v54.4
						C588.1,419.8,587.7,420.3,587.2,420.3z"/>
					<path class="st9" d="M578,295L578,295c-0.5,0-1-0.4-1-1v-16.6c0-0.5,0.4-1,1-1l0,0c0.5,0,1,0.4,1,1v16.6
						C579,294.6,578.5,295,578,295z"/>
					<path class="st9" d="M578,389.6L578,389.6c-0.5,0-1-0.4-1-1V372c0-0.5,0.4-1,1-1l0,0c0.5,0,1,0.4,1,1v16.6
						C579,389.2,578.5,389.6,578,389.6z"/>
				</g>
				<g>
					<g>
						<polygon class="st6" points="875,393.5 872.2,477.9 907.7,477.9 904.9,382.1 						"/>
						<polygon class="st6" points="904.9,363.3 904.9,282.2 875,282.2 875,382.1 						"/>
						
							<rect x="880.6" y="352.2" transform="matrix(-1 -1.224647e-16 1.224647e-16 -1 1780.8524 756.4331)" class="st6" width="19.6" height="52"/>
					</g>
					<path class="st9" d="M877.9,411.1L877.9,411.1c-0.5,0-1,0.4-1,1v54.4c0,0.5,0.4,1,1,1l0,0c0.5,0,1-0.4,1-1V412
						C878.9,411.5,878.4,411.1,877.9,411.1z"/>
					<path class="st9" d="M894.6,395.5L894.6,395.5c-0.5,0-1,0.4-1,1v54.4c0,0.5,0.4,1,1,1l0,0c0.5,0,1-0.4,1-1v-54.4
						C895.6,395.9,895.1,395.5,894.6,395.5z"/>
					<path class="st9" d="M894.6,295.5L894.6,295.5c-0.5,0-1,0.4-1,1v54.4c0,0.5,0.4,1,1,1l0,0c0.5,0,1-0.4,1-1v-54.4
						C895.6,295.9,895.1,295.5,894.6,295.5z"/>
					<path class="st9" d="M885.4,420.7L885.4,420.7c-0.5,0-1,0.4-1,1v16.6c0,0.5,0.4,1,1,1l0,0c0.5,0,1-0.4,1-1v-16.6
						C886.4,421.1,886,420.7,885.4,420.7z"/>
					<path class="st9" d="M885.4,326.1L885.4,326.1c-0.5,0-1,0.4-1,1v16.6c0,0.5,0.4,1,1,1l0,0c0.5,0,1-0.4,1-1v-16.6
						C886.4,326.5,886,326.1,885.4,326.1z"/>
				</g>
				<g>
					<g>
						<path class="st6" d="M701.8,350.4h2.1h2.1c0,47.3,8.6,83.3,8.6,83.3h-10.7h-10.7C693.2,433.8,701.8,397.7,701.8,350.4z"/>
						<ellipse class="st6" cx="703.9" cy="353" rx="20.5" ry="10.5"/>
					</g>
					<path class="st8" d="M713.2,352.5L713.2,352.5c0,0.3-0.3,0.6-0.6,0.6h-22.5c-0.3,0-0.6-0.3-0.6-0.6l0,0c0-0.3,0.3-0.6,0.6-0.6
						h22.5C712.9,351.9,713.2,352.2,713.2,352.5z"/>
				</g>
				<g>
					<g>
						<path class="st6" d="M744.2,292.6h3.5h3.5c0,78.8,14.3,138.9,14.3,138.9h-17.9h-17.9C729.9,431.5,744.2,371.4,744.2,292.6z"/>
						<ellipse class="st6" cx="747.7" cy="296.8" rx="34.2" ry="17.6"/>
					</g>
					<path class="st8" d="M759.6,296.8L759.6,296.8c0,0.3-0.3,0.6-0.6,0.6h-22.5c-0.3,0-0.6-0.3-0.6-0.6l0,0c0-0.3,0.3-0.6,0.6-0.6
						H759C759.3,296.2,759.6,296.4,759.6,296.8z"/>
				</g>
				<g>
					<g>
						<path class="st6" d="M857.3,368.2h1.6h1.6c0,36.4,6.6,64.1,6.6,64.1h-8.2h-8.2C850.7,432.3,857.3,404.6,857.3,368.2z"/>
						<ellipse class="st6" cx="858.9" cy="370.1" rx="15.8" ry="8.1"/>
					</g>
					<path class="st8" d="M870.8,370.1L870.8,370.1c0,0.3-0.3,0.6-0.6,0.6h-22.5c-0.3,0-0.6-0.3-0.6-0.6l0,0c0-0.3,0.3-0.6,0.6-0.6
						h22.5C870.5,369.5,870.8,369.8,870.8,370.1z"/>
				</g>
				<g>
					<path class="st6" d="M959.2,412.3c0-13.6-10-24.7-22.2-24.7c-12.3,0-22.2,11.1-22.2,24.7c0,1.3,0.1,2.7,0.3,3.9h-9
						c0.1-1.3,0.1-2.6,0.1-3.9c0-13.6-4.6-24.7-10.2-24.7c-5.6,0-10.2,11.1-10.2,24.7c0,1.3,0,2.7,0.1,3.9h-26.5
						c0-29.4,23.8-53.2,53.2-53.2c29.4,0,53.2,23.8,53.2,53.2h-6.9C959.1,414.9,959.2,413.6,959.2,412.3z"/>
					<path class="st8" d="M909.9,378.8L909.9,378.8c0,0.3-0.3,0.6-0.6,0.6h-22.5c-0.3,0-0.6-0.3-0.6-0.6l0,0c0-0.3,0.3-0.6,0.6-0.6
						h22.5C909.6,378.2,909.9,378.5,909.9,378.8z"/>
					<path class="st8" d="M929.2,371.1L929.2,371.1c0,0.3-0.3,0.6-0.6,0.6h-7.3c-0.3,0-0.6-0.3-0.6-0.6l0,0c0-0.3,0.3-0.6,0.6-0.6
						h7.3C928.9,370.5,929.2,370.7,929.2,371.1z"/>
					<path class="st8" d="M919.3,371.1L919.3,371.1c0,0.3-0.3,0.6-0.6,0.6h-2.5c-0.3,0-0.6-0.3-0.6-0.6l0,0c0-0.3,0.3-0.6,0.6-0.6
						h2.5C919,370.5,919.3,370.7,919.3,371.1z"/>
				</g>
				<g>
					<g>
						<defs>
							<polygon id="XMLID_00000072969647484128096800000005526075354699104690_" points="785.1,235.8 791.9,235.8 800.7,270.8 
								809.1,275 822.1,323.2 813,319.6 815.2,328.5 825.6,334.3 848.9,431.5 795.2,431.5 788.8,313.7 796.7,318.1 							"/>
						</defs>
						<use xlink:href="#XMLID_00000072969647484128096800000005526075354699104690_"  style="overflow:visible;fill:#2D2D84;"/>
						<clipPath id="XMLID_00000182499210445917589610000000882723605830752393_">
							<use xlink:href="#XMLID_00000072969647484128096800000005526075354699104690_"  style="overflow:visible;"/>
						</clipPath>
					</g>
					<path class="st9" d="M809.9,348.4L809.9,348.4c0.3-0.1,0.7,0.1,0.7,0.5l4.4,22.1c0.1,0.3-0.1,0.7-0.5,0.7l0,0
						c-0.3,0.1-0.7-0.1-0.7-0.5l-4.4-22.1C809.3,348.8,809.6,348.4,809.9,348.4z"/>
					<path class="st9" d="M815.1,374.6L815.1,374.6c0.3-0.1,0.7,0.1,0.7,0.5l0.7,3.6c0.1,0.3-0.1,0.7-0.5,0.7l0,0
						c-0.3,0.1-0.7-0.1-0.7-0.5l-0.7-3.6C814.6,374.9,814.8,374.6,815.1,374.6z"/>
					<path class="st9" d="M797.4,279.2L797.4,279.2c0.3,0,0.6,0.2,0.7,0.5l3.3,22.3c0,0.3-0.2,0.6-0.5,0.7l0,0
						c-0.3,0-0.6-0.2-0.7-0.5l-3.3-22.3C796.8,279.6,797,279.3,797.4,279.2z"/>
					<path class="st9" d="M801.2,305.6L801.2,305.6c0.3,0,0.6,0.2,0.7,0.5l0.5,3.7c0,0.3-0.2,0.6-0.5,0.7l0,0
						c-0.3,0-0.6-0.2-0.7-0.5l-0.5-3.7C800.7,306,800.9,305.7,801.2,305.6z"/>
					<path class="st9" d="M825.9,357.5L825.9,357.5c0.3-0.1,0.7,0.1,0.7,0.5l9.2,45.7c0.1,0.3-0.1,0.7-0.5,0.7l0,0
						c-0.3,0.1-0.7-0.1-0.7-0.5l-9.2-45.7C825.3,357.9,825.5,357.6,825.9,357.5z"/>
				</g>
				<g>
					<polygon class="st6" points="644.5,302.5 634.3,321.2 687,433.5 621.1,433.5 621.1,272.4 					"/>
					<path class="st8" d="M629.1,363.5L629.1,363.5c-0.5,0-1-0.4-1-1v-16.6c0-0.5,0.4-1,1-1l0,0c0.5,0,1,0.4,1,1v16.6
						C630.1,363.1,629.6,363.5,629.1,363.5z"/>
					<path class="st8" d="M644.5,394.6L644.5,394.6c-0.5,0-1-0.4-1-1V377c0-0.5,0.4-1,1-1l0,0c0.5,0,1,0.4,1,1v16.6
						C645.5,394.2,645.1,394.6,644.5,394.6z"/>
					<path class="st8" d="M639,411.4L639,411.4c-0.5,0-1-0.4-1-1v-50.2c0-0.5,0.4-1,1-1l0,0c0.5,0,1,0.4,1,1v50.2
						C640,411,639.5,411.4,639,411.4z"/>
				</g>
				<path class="st6" d="M801.6,368.2v63.3h-13c0.1-3.3,0.2-6.7,0.2-10.3c0-21.3-2.5-38.6-5.6-38.6s-5.6,17.3-5.6,38.6
					c0,3.6,0.1,7,0.2,10.3H774c0.1-3.3,0.2-6.7,0.2-10.3c0-21.3-2.5-38.6-5.6-38.6c-3.1,0-5.6,17.3-5.6,38.6c0,3.6,0.1,7,0.2,10.3
					h-9.6v-63.3H801.6z"/>
			</g>
			<g>
				<g class="st7">
					<g>
						<polygon class="st6" points="1068.4,311 1066.1,242.2 1095.1,242.2 1092.7,320.3 						"/>
						<polygon class="st6" points="1092.7,335.6 1092.7,401.6 1068.4,401.6 1068.4,320.3 						"/>
						
							<rect x="1073" y="302.2" transform="matrix(-1 -1.224647e-16 1.224647e-16 -1 2161.9277 646.805)" class="st6" width="16" height="42.3"/>
					</g>
					<path class="st9" d="M1070.8,296.6L1070.8,296.6c-0.4,0-0.8-0.4-0.8-0.8v-44.3c0-0.4,0.4-0.8,0.8-0.8l0,0
						c0.4,0,0.8,0.4,0.8,0.8v44.3C1071.6,296.3,1071.2,296.6,1070.8,296.6z"/>
					<path class="st9" d="M1084.4,309.4L1084.4,309.4c-0.4,0-0.8-0.4-0.8-0.8v-44.3c0-0.4,0.4-0.8,0.8-0.8l0,0
						c0.4,0,0.8,0.4,0.8,0.8v44.3C1085.2,309,1084.8,309.4,1084.4,309.4z"/>
					<path class="st9" d="M1084.4,390.8L1084.4,390.8c-0.4,0-0.8-0.4-0.8-0.8v-44.3c0-0.4,0.4-0.8,0.8-0.8l0,0
						c0.4,0,0.8,0.4,0.8,0.8V390C1085.2,390.5,1084.8,390.8,1084.4,390.8z"/>
					<path class="st9" d="M1076.9,288.8L1076.9,288.8c-0.4,0-0.8-0.4-0.8-0.8v-13.5c0-0.4,0.4-0.8,0.8-0.8l0,0
						c0.4,0,0.8,0.4,0.8,0.8V288C1077.7,288.4,1077.3,288.8,1076.9,288.8z"/>
					<path class="st9" d="M1076.9,365.8L1076.9,365.8c-0.4,0-0.8-0.4-0.8-0.8v-13.5c0-0.4,0.4-0.8,0.8-0.8l0,0
						c0.4,0,0.8,0.4,0.8,0.8v13.5C1077.7,365.5,1077.3,365.8,1076.9,365.8z"/>
				</g>
				<g class="st7">
					<g>
						<polygon class="st6" points="1130.1,356.2 1132.3,420.3 1105.3,420.3 1107.5,347.6 						"/>
						<polygon class="st6" points="1107.5,333.3 1107.5,271.7 1130.1,271.7 1130.1,347.6 						"/>
						<rect x="1111" y="324.9" class="st6" width="14.9" height="39.5"/>
					</g>
					<path class="st9" d="M1128,369.6L1128,369.6c0.4,0,0.7,0.3,0.7,0.7v41.3c0,0.4-0.3,0.7-0.7,0.7l0,0c-0.4,0-0.7-0.3-0.7-0.7
						v-41.3C1127.2,369.9,1127.6,369.6,1128,369.6z"/>
					<path class="st9" d="M1115.3,357.7L1115.3,357.7c0.4,0,0.7,0.3,0.7,0.7v41.3c0,0.4-0.3,0.7-0.7,0.7l0,0c-0.4,0-0.7-0.3-0.7-0.7
						v-41.3C1114.5,358.1,1114.9,357.7,1115.3,357.7z"/>
					<path class="st9" d="M1115.3,281.8L1115.3,281.8c0.4,0,0.7,0.3,0.7,0.7v41.3c0,0.4-0.3,0.7-0.7,0.7l0,0c-0.4,0-0.7-0.3-0.7-0.7
						v-41.3C1114.5,282.1,1114.9,281.8,1115.3,281.8z"/>
					<path class="st9" d="M1122.2,376.9L1122.2,376.9c0.4,0,0.7,0.3,0.7,0.7v12.6c0,0.4-0.3,0.7-0.7,0.7l0,0c-0.4,0-0.7-0.3-0.7-0.7
						v-12.6C1121.5,377.2,1121.8,376.9,1122.2,376.9z"/>
					<path class="st9" d="M1122.2,305.1L1122.2,305.1c0.4,0,0.7,0.3,0.7,0.7v12.6c0,0.4-0.3,0.7-0.7,0.7l0,0c-0.4,0-0.7-0.3-0.7-0.7
						v-12.6C1121.5,305.4,1121.8,305.1,1122.2,305.1z"/>
				</g>
				<g class="st7">
					<g>
						<path class="st6" d="M925.9,307.5h2.5h2.5c0,55.3,10.1,97.6,10.1,97.6h-12.5h-12.5C915.8,405,925.9,362.8,925.9,307.5z"/>
						<ellipse class="st6" cx="928.4" cy="310.4" rx="24" ry="12.3"/>
					</g>
					<path class="st8" d="M939.2,309.9L939.2,309.9c0,0.4-0.3,0.7-0.7,0.7h-26.3c-0.4,0-0.7-0.3-0.7-0.7l0,0c0-0.4,0.3-0.7,0.7-0.7
						h26.3C938.9,309.2,939.2,309.5,939.2,309.9z"/>
				</g>
				<path class="st6" d="M1156.8,375.7c0,0-167.8-26.2-225.4-60.2c-57.6-34,28.4-49.1,28.4-49.1l3.4-15.7c0,0-118.4,5.6-84.1,56.5
					c34.3,50.9,277.8,74,277.8,74V375.7z"/>
				<g>
					<g>
						<polygon class="st6" points="959.8,271.4 956.4,172.6 998,172.6 994.7,284.7 						"/>
						<polygon class="st6" points="994.7,306.7 994.7,401.6 959.8,401.6 959.8,284.7 						"/>
						
							<rect x="966.3" y="258.8" transform="matrix(-1 -1.224647e-16 1.224647e-16 -1 1955.5786 578.4276)" class="st6" width="23" height="60.9"/>
					</g>
					<path class="st9" d="M963.1,250.8L963.1,250.8c-0.6,0-1.1-0.5-1.1-1.1v-63.7c0-0.6,0.5-1.1,1.1-1.1l0,0c0.6,0,1.1,0.5,1.1,1.1
						v63.7C964.3,250.2,963.8,250.8,963.1,250.8z"/>
					<path class="st9" d="M982.7,269L982.7,269c-0.6,0-1.1-0.5-1.1-1.1v-63.7c0-0.6,0.5-1.1,1.1-1.1l0,0c0.6,0,1.1,0.5,1.1,1.1v63.7
						C983.8,268.5,983.3,269,982.7,269z"/>
					<path class="st9" d="M982.7,386.1L982.7,386.1c-0.6,0-1.1-0.5-1.1-1.1v-63.7c0-0.6,0.5-1.1,1.1-1.1l0,0c0.6,0,1.1,0.5,1.1,1.1
						V385C983.8,385.6,983.3,386.1,982.7,386.1z"/>
					<path class="st9" d="M972,239.5L972,239.5c-0.6,0-1.1-0.5-1.1-1.1v-19.4c0-0.6,0.5-1.1,1.1-1.1l0,0c0.6,0,1.1,0.5,1.1,1.1v19.4
						C973.1,239,972.6,239.5,972,239.5z"/>
					<path class="st9" d="M972,350.2L972,350.2c-0.6,0-1.1-0.5-1.1-1.1v-19.4c0-0.6,0.5-1.1,1.1-1.1l0,0c0.6,0,1.1,0.5,1.1,1.1v19.4
						C973.1,349.7,972.6,350.2,972,350.2z"/>
				</g>
				<g>
					<path class="st6" d="M948.2,408.8c0-16-11.6-28.9-26-28.9c-14.4,0-26,13-26,28.9c0,1.6,0.1,3.1,0.3,4.6H886
						c0.1-1.5,0.2-3,0.2-4.6c0-16-5.3-28.9-11.9-28.9c-6.6,0-11.9,13-11.9,28.9c0,1.6,0.1,3.1,0.2,4.6h-31.1
						c0-34.4,27.9-62.3,62.3-62.3c34.4,0,62.3,27.9,62.3,62.3h-8C948,411.9,948.2,410.3,948.2,408.8z"/>
					<path class="st8" d="M890.4,369.6L890.4,369.6c0,0.4-0.3,0.7-0.7,0.7h-26.3c-0.4,0-0.7-0.3-0.7-0.7l0,0c0-0.4,0.3-0.7,0.7-0.7
						h26.3C890.1,368.9,890.4,369.2,890.4,369.6z"/>
					<path class="st8" d="M913,360.6L913,360.6c0,0.4-0.3,0.7-0.7,0.7h-8.5c-0.4,0-0.7-0.3-0.7-0.7l0,0c0-0.4,0.3-0.7,0.7-0.7h8.5
						C912.7,359.8,913,360.2,913,360.6z"/>
					<path class="st8" d="M901.4,360.6L901.4,360.6c0,0.4-0.3,0.7-0.7,0.7h-2.9c-0.4,0-0.7-0.3-0.7-0.7l0,0c0-0.4,0.3-0.7,0.7-0.7
						h2.9C901.1,359.8,901.4,360.2,901.4,360.6z"/>
				</g>
				<g>
					<polygon class="st6" points="1042.1,248.2 1030.2,270.1 1091.9,401.6 1014.8,401.6 1014.8,213 					"/>
					<path class="st8" d="M1024.1,319.6L1024.1,319.6c-0.6,0-1.1-0.5-1.1-1.1v-19.4c0-0.6,0.5-1.1,1.1-1.1l0,0
						c0.6,0,1.1,0.5,1.1,1.1v19.4C1025.2,319.1,1024.7,319.6,1024.1,319.6z"/>
					<path class="st8" d="M1042.1,356.1L1042.1,356.1c-0.6,0-1.1-0.5-1.1-1.1v-19.4c0-0.6,0.5-1.1,1.1-1.1l0,0
						c0.6,0,1.1,0.5,1.1,1.1v19.4C1043.3,355.6,1042.8,356.1,1042.1,356.1z"/>
					<path class="st8" d="M1035.7,375.7L1035.7,375.7c-0.6,0-1.1-0.5-1.1-1.1v-58.7c0-0.6,0.5-1.1,1.1-1.1l0,0
						c0.6,0,1.1,0.5,1.1,1.1v58.7C1036.8,375.2,1036.3,375.7,1035.7,375.7z"/>
				</g>
				<g>
					<g>
						<g>
							<path class="st6" d="M1087.3,238.3h4.1h4.1c0,92.2,16.8,162.6,16.8,162.6h-20.9h-20.9
								C1070.5,400.9,1087.3,330.6,1087.3,238.3z"/>
							<ellipse class="st6" cx="1091.4" cy="243.2" rx="40" ry="20.6"/>
						</g>
						<path class="st8" d="M1105.3,243.2L1105.3,243.2c0,0.4-0.3,0.7-0.7,0.7h-26.3c-0.4,0-0.7-0.3-0.7-0.7l0,0
							c0-0.4,0.3-0.7,0.7-0.7h26.3C1105,242.5,1105.3,242.8,1105.3,243.2z"/>
					</g>
					<g>
						<g>
							<defs>
								<polygon id="XMLID_00000070819024413379806220000007799054891295088543_" points="1135.2,171.9 1143.1,171.9 1153.4,212.8 
									1163.3,217.7 1178.5,274.2 1167.8,270 1170.4,280.3 1182.6,287.1 1209.8,400.9 1147,400.9 1139.5,263.1 1148.7,268.3 
																	"/>
							</defs>
							<use xlink:href="#XMLID_00000070819024413379806220000007799054891295088543_"  style="overflow:visible;fill:#2D2D84;"/>
							<clipPath id="XMLID_00000109736484970537868130000006569061709576382092_">
								<use xlink:href="#XMLID_00000070819024413379806220000007799054891295088543_"  style="overflow:visible;"/>
							</clipPath>
						</g>
						<path class="st9" d="M1164.2,303.6L1164.2,303.6c0.4-0.1,0.8,0.2,0.8,0.6l5.2,25.8c0.1,0.4-0.2,0.8-0.6,0.8l0,0
							c-0.4,0.1-0.8-0.2-0.8-0.6l-5.2-25.8C1163.6,304.1,1163.8,303.7,1164.2,303.6z"/>
						<path class="st9" d="M1170.3,334.3L1170.3,334.3c0.4-0.1,0.8,0.2,0.8,0.6l0.9,4.2c0.1,0.4-0.2,0.8-0.6,0.8l0,0
							c-0.4,0.1-0.8-0.2-0.8-0.6l-0.9-4.2C1169.7,334.7,1170,334.4,1170.3,334.3z"/>
						<path class="st9" d="M1149.5,222.7L1149.5,222.7c0.4-0.1,0.8,0.2,0.8,0.6l3.8,26.1c0.1,0.4-0.2,0.8-0.6,0.8l0,0
							c-0.4,0.1-0.8-0.2-0.8-0.6l-3.8-26.1C1148.9,223.1,1149.1,222.7,1149.5,222.7z"/>
						<path class="st9" d="M1154.1,253.6L1154.1,253.6c0.4-0.1,0.8,0.2,0.8,0.6l0.6,4.3c0.1,0.4-0.2,0.8-0.6,0.8l0,0
							c-0.4,0.1-0.8-0.2-0.8-0.6l-0.6-4.3C1153.4,254,1153.7,253.6,1154.1,253.6z"/>
						<path class="st9" d="M1182.9,314.4L1182.9,314.4c0.4-0.1,0.8,0.2,0.8,0.6l10.7,53.5c0.1,0.4-0.2,0.8-0.6,0.8l0,0
							c-0.4,0.1-0.8-0.2-0.8-0.6l-10.7-53.5C1182.3,314.8,1182.5,314.4,1182.9,314.4z"/>
					</g>
					<path class="st6" d="M1154.5,326.9v74.1h-15.2c0.2-3.8,0.2-7.9,0.2-12.1c0-25-2.9-45.2-6.6-45.2c-3.6,0-6.6,20.2-6.6,45.2
						c0,4.2,0.1,8.2,0.2,12.1h-4.5c0.2-3.8,0.2-7.9,0.2-12.1c0-25-2.9-45.2-6.6-45.2s-6.6,20.2-6.6,45.2c0,4.2,0.1,8.2,0.2,12.1
						h-11.2v-74.1H1154.5z"/>
				</g>
			</g>
			
				<linearGradient id="SVGID_00000085959302717702880850000010502760763604616628_" gradientUnits="userSpaceOnUse" x1="-1274.6726" y1="437.9389" x2="-1274.6726" y2="65.9425" gradientTransform="matrix(-1 0 0 1 -661.0076 0)">
				<stop  offset="4.485000e-02" style="stop-color:#4AC3FF"/>
				<stop  offset="0.259" style="stop-color:#000000"/>
			</linearGradient>
			<path style="fill:url(#SVGID_00000085959302717702880850000010502760763604616628_);" d="M1227.3,291.6
				c-418.4,33.2-828.4,36.6-1227.3,0v153.2h1227.3V291.6z"/>
			<g>
				<defs>
					<path id="XMLID_00000122705725040421037030000004427448154825322401_" d="M1227.3,374.4C809,415.8,398.9,419,0,374.4V540
						h1227.3V374.4z"/>
				</defs>
				<use xlink:href="#XMLID_00000122705725040421037030000004427448154825322401_"  style="overflow:visible;fill:#25214C;"/>
				<clipPath id="XMLID_00000067232605361305069490000000722323284674853051_">
					<use xlink:href="#XMLID_00000122705725040421037030000004427448154825322401_"  style="overflow:visible;"/>
				</clipPath>
				<g style="clip-path:url(#XMLID_00000067232605361305069490000000722323284674853051_);">
					<g>
						<polygon class="st12" points="1743.6,540 1747.9,540 1358.8,464.2 1289.7,457.4 983.7,394.8 982.2,394.8 1288.1,457.6 
							1357.2,464.5 						"/>
					</g>
					<g>
						<polygon class="st12" points="1487.1,540 1491.4,540 1329.8,499.3 1246.6,488.9 895.6,394.8 894.2,394.8 1244.5,489.2 
							1327.7,499.7 						"/>
					</g>
					<g>
						<polygon class="st12" points="1248.7,539.4 1253,539.4 966,440.6 980.5,435.7 851.4,394.7 849.9,394.7 977.8,435.6 
							963.1,440.4 						"/>
					</g>
					<g>
						<polygon class="st12" points="1588.8,540 1593.1,540 949.1,394.8 947.7,394.8 						"/>
					</g>
					<g>
						<polygon class="st12" points="1099.4,540 1103.7,540 781.2,394.8 779.7,394.8 						"/>
					</g>
					<g>
						<polygon class="st12" points="948.4,540 952.7,540 836.2,464.2 791.7,457.4 710.8,394.8 709.3,394.8 789.3,457.6 833.7,464.5 
													"/>
					</g>
					<g>
						<polygon class="st12" points="691.9,540 696.2,540 680.9,499.3 635.3,488.9 622.8,394.8 621.3,394.8 632,489.2 677.5,499.7 
													"/>
					</g>
					<g>
						<polygon class="st12" points="455.6,539.4 459.9,539.4 528.4,440.6 560.4,435.7 578.8,394.7 577.3,394.7 558.2,435.6 
							526.2,440.4 						"/>
					</g>
					<g>
						<polygon class="st12" points="793.6,540 797.9,540 676.3,394.8 674.8,394.8 						"/>
					</g>
					<g>
						<polygon class="st12" points="304.2,540 308.5,540 508.3,394.8 506.8,394.8 						"/>
					</g>
					<g>
						<polygon class="st12" points="1743.6,540 1747.9,540 1358.8,464.2 1289.7,457.4 983.7,394.8 982.2,394.8 1288.1,457.6 
							1357.2,464.5 						"/>
					</g>
					<g>
						<polygon class="st12" points="1487.1,540 1491.4,540 1329.8,499.3 1246.6,488.9 895.6,394.8 894.2,394.8 1244.5,489.2 
							1327.7,499.7 						"/>
					</g>
					<g>
						<polygon class="st12" points="1248.7,539.4 1253,539.4 966,440.6 980.5,435.7 851.4,394.7 849.9,394.7 977.8,435.6 
							963.1,440.4 						"/>
					</g>
					<g>
						<polygon class="st12" points="1588.8,540 1593.1,540 949.1,394.8 947.7,394.8 						"/>
					</g>
					<g>
						<polygon class="st12" points="1099.4,540 1103.7,540 781.2,394.8 779.7,394.8 						"/>
					</g>
					<g>
						<polygon class="st12" points="948.4,540 952.7,540 836.2,464.2 791.7,457.4 710.8,394.8 709.3,394.8 789.3,457.6 833.7,464.5 
													"/>
					</g>
					<g>
						<polygon class="st12" points="691.9,540 696.2,540 680.9,499.3 635.3,488.9 622.8,394.8 621.3,394.8 632,489.2 677.5,499.7 
													"/>
					</g>
					<g>
						<polygon class="st12" points="455.6,539.4 459.9,539.4 528.4,440.6 560.4,435.7 578.8,394.7 577.3,394.7 558.2,435.6 
							526.2,440.4 						"/>
					</g>
					<g>
						<polygon class="st12" points="793.6,540 797.9,540 676.3,394.8 674.8,394.8 						"/>
					</g>
					<g>
						<polygon class="st12" points="304.2,540 308.5,540 508.3,394.8 506.8,394.8 						"/>
					</g>
					<g>
						<polygon class="st12" points="1487.1,540 1491.4,540 1329.8,499.3 1246.6,488.9 895.6,394.8 894.2,394.8 1244.5,489.2 
							1327.7,499.7 						"/>
					</g>
					<g>
						<polygon class="st12" points="1248.7,539.4 1253,539.4 966,440.6 980.5,435.7 851.4,394.7 849.9,394.7 977.8,435.6 
							963.1,440.4 						"/>
					</g>
					<g>
						<polygon class="st12" points="1588.8,540 1593.1,540 949.1,394.8 947.7,394.8 						"/>
					</g>
					<g>
						<polygon class="st12" points="1099.4,540 1103.7,540 781.2,394.8 779.7,394.8 						"/>
					</g>
					<g>
						<polygon class="st12" points="948.4,540 952.7,540 836.2,464.2 791.7,457.4 710.8,394.8 709.3,394.8 789.3,457.6 833.7,464.5 
													"/>
					</g>
					<g>
						<polygon class="st12" points="691.9,540 696.2,540 680.9,499.3 635.3,488.9 622.8,394.8 621.3,394.8 632,489.2 677.5,499.7 
													"/>
					</g>
					<g>
						<polygon class="st12" points="455.6,539.4 459.9,539.4 528.4,440.6 560.4,435.7 578.8,394.7 577.3,394.7 558.2,435.6 
							526.2,440.4 						"/>
					</g>
					<g>
						<polygon class="st12" points="793.6,540 797.9,540 676.3,394.8 674.8,394.8 						"/>
					</g>
					<g>
						<polygon class="st12" points="304.2,540 308.5,540 508.3,394.8 506.8,394.8 						"/>
					</g>
					<g>
						<polygon class="st12" points="1807,534.6 1811.3,534.6 1422.3,458.8 1353.2,452 1047.1,389.4 1045.6,389.4 1351.5,452.2 
							1420.6,459.1 						"/>
					</g>
					<g>
						<polygon class="st12" points="1487.1,540 1491.4,540 1329.8,499.3 1246.6,488.9 895.6,394.8 894.2,394.8 1244.5,489.2 
							1327.7,499.7 						"/>
					</g>
					<g>
						<polygon class="st12" points="1248.7,539.4 1253,539.4 966,440.6 980.5,435.7 851.4,394.7 849.9,394.7 977.8,435.6 
							963.1,440.4 						"/>
					</g>
					<g>
						<polygon class="st12" points="1588.8,540 1593.1,540 949.1,394.8 947.7,394.8 						"/>
					</g>
					<g>
						<polygon class="st12" points="1099.4,540 1103.7,540 781.2,394.8 779.7,394.8 						"/>
					</g>
					<g>
						<polygon class="st12" points="948.4,540 952.7,540 836.2,464.2 791.7,457.4 710.8,394.8 709.3,394.8 789.3,457.6 833.7,464.5 
													"/>
					</g>
					<g>
						<polygon class="st12" points="691.9,540 696.2,540 680.9,499.3 635.3,488.9 622.8,394.8 621.3,394.8 632,489.2 677.5,499.7 
													"/>
					</g>
					<g>
						<polygon class="st12" points="455.6,539.4 459.9,539.4 528.4,440.6 560.4,435.7 578.8,394.7 577.3,394.7 558.2,435.6 
							526.2,440.4 						"/>
					</g>
					<g>
						<polygon class="st12" points="793.6,540 797.9,540 676.3,394.8 674.8,394.8 						"/>
					</g>
					<g>
						<polygon class="st12" points="171,540 175.3,540 255.8,499.3 234.8,488.9 444,394.8 442.5,394.8 230.7,489.2 251.5,499.7 
													"/>
					</g>
					<g>
						<polygon class="st12" points="-63.9,539.4 -59.6,539.4 241.8,440.6 285.2,435.7 400.2,394.7 398.7,394.7 283.3,435.6 
							239.9,440.4 						"/>
					</g>
					<g>
						<polygon class="st12" points="-216.7,540 -212.4,540 329.6,394.8 328.1,394.8 						"/>
					</g>
					<g>
						<polygon class="st12" points="-367.7,540 -363.4,540 -28.8,464.2 -32.5,457.4 259.2,394.8 257.7,394.8 -36.3,457.6 
							-32.7,464.5 						"/>
					</g>
					<g>
						<polygon class="st12" points="171,540 175.3,540 255.8,499.3 234.8,488.9 444,394.8 442.5,394.8 230.7,489.2 251.5,499.7 
													"/>
					</g>
					<g>
						<polygon class="st12" points="-63.9,539.4 -59.6,539.4 241.8,440.6 285.2,435.7 400.2,394.7 398.7,394.7 283.3,435.6 
							239.9,440.4 						"/>
					</g>
					<g>
						<polygon class="st12" points="-216.7,540 -212.4,540 329.6,394.8 328.1,394.8 						"/>
					</g>
					<g>
						<polygon class="st12" points="-367.7,540 -363.4,540 -28.8,464.2 -32.5,457.4 259.2,394.8 257.7,394.8 -36.3,457.6 
							-32.7,464.5 						"/>
					</g>
					<g>
						<polygon class="st12" points="171,540 175.3,540 255.8,499.3 234.8,488.9 444,394.8 442.5,394.8 230.7,489.2 251.5,499.7 
													"/>
					</g>
					<g>
						<polygon class="st12" points="-63.9,539.4 -59.6,539.4 241.8,440.6 285.2,435.7 400.2,394.7 398.7,394.7 283.3,435.6 
							239.9,440.4 						"/>
					</g>
					<g>
						<polygon class="st12" points="-216.7,540 -212.4,540 329.6,394.8 328.1,394.8 						"/>
					</g>
					<g>
						<polygon class="st12" points="-367.7,540 -363.4,540 -28.8,464.2 -32.5,457.4 259.2,394.8 257.7,394.8 -36.3,457.6 
							-32.7,464.5 						"/>
					</g>
					<g>
						<polygon class="st12" points="171,540 175.3,540 255.8,499.3 234.8,488.9 444,394.8 442.5,394.8 230.7,489.2 251.5,499.7 
													"/>
					</g>
					<g>
						<polygon class="st12" points="-63.9,539.4 -59.6,539.4 241.8,440.6 285.2,435.7 400.2,394.7 398.7,394.7 283.3,435.6 
							239.9,440.4 						"/>
					</g>
					<g>
						<polygon class="st12" points="-216.7,540 -212.4,540 329.6,394.8 328.1,394.8 						"/>
					</g>
					<g>
						<polygon class="st12" points="-367.7,540 -363.4,540 -28.8,464.2 -32.5,457.4 259.2,394.8 257.7,394.8 -36.3,457.6 
							-32.7,464.5 						"/>
					</g>
					<g>
						<polygon class="st12" points="-604.4,532.3 -600.1,532.3 142.7,387.1 141.2,387.1 						"/>
					</g>
					<g>
						<polygon class="st12" points="304.2,540 308.5,540 508.3,394.8 506.8,394.8 						"/>
					</g>
				</g>
			</g>
		</g>
		<g>
			<path class="st13" d="M591.3,139.4c0,0.8,0.7,1.5,1.5,1.5s1.5-0.7,1.5-1.5c0-0.8-0.7-1.5-1.5-1.5S591.3,138.6,591.3,139.4z"/>
			<path class="st13" d="M148.8,40.6c0,0.8,0.7,1.5,1.5,1.5c0.8,0,1.5-0.7,1.5-1.5s-0.7-1.5-1.5-1.5
				C149.4,39.1,148.8,39.8,148.8,40.6z"/>
			<path class="st13" d="M404.2,52.4c0,0.8,0.7,1.5,1.5,1.5c0.8,0,1.5-0.7,1.5-1.5c0-0.8-0.7-1.5-1.5-1.5
				C404.8,50.9,404.2,51.6,404.2,52.4z"/>
			<circle class="st13" cx="573.2" cy="194.8" r="1.5"/>
			<path class="st13" d="M387.2,13.3c0,0.8,0.7,1.5,1.5,1.5c0.8,0,1.5-0.7,1.5-1.5c0-0.8-0.7-1.5-1.5-1.5
				C387.9,11.8,387.2,12.5,387.2,13.3z"/>
			<path class="st13" d="M346.2,45.6c0,0.8,0.7,1.5,1.5,1.5c0.8,0,1.5-0.7,1.5-1.5c0-0.8-0.7-1.5-1.5-1.5
				C346.9,44.2,346.2,44.8,346.2,45.6z"/>
			<circle class="st13" cx="263.5" cy="296.8" r="1.5"/>
			<path class="st13" d="M454.6,154c0,0.4,0.3,0.7,0.7,0.7c0.4,0,0.7-0.3,0.7-0.7s-0.3-0.7-0.7-0.7
				C454.9,153.2,454.6,153.5,454.6,154z"/>
			<circle class="st13" cx="256.2" cy="21.8" r="0.7"/>
			<path class="st13" d="M1043,3.6c0,0.8,0.7,1.5,1.5,1.5c0.8,0,1.5-0.7,1.5-1.5s-0.7-1.5-1.5-1.5C1043.7,2.1,1043,2.7,1043,3.6z"/>
			<path class="st13" d="M227.3,311.5c0,0.8,0.7,1.5,1.5,1.5c0.8,0,1.5-0.7,1.5-1.5s-0.7-1.5-1.5-1.5
				C227.9,310,227.3,310.7,227.3,311.5z"/>
			<path class="st13" d="M627.6,28.6c0,0.8,0.7,1.5,1.5,1.5c0.8,0,1.5-0.7,1.5-1.5c0-0.8-0.7-1.5-1.5-1.5
				C628.3,27.1,627.6,27.8,627.6,28.6z"/>
			<circle class="st13" cx="639.2" cy="70.2" r="1.5"/>
			<path class="st13" d="M1133,139.4c0,0.4,0.3,0.7,0.7,0.7s0.7-0.3,0.7-0.7s-0.3-0.7-0.7-0.7S1133,139,1133,139.4z"/>
			<path class="st13" d="M514.7,47c0,0.4,0.3,0.7,0.7,0.7s0.7-0.3,0.7-0.7c0-0.4-0.3-0.7-0.7-0.7S514.7,46.6,514.7,47z"/>
		</g>
	</g>
</g>
<g id="TEXTS">
</g>
</svg>
