<?xml version="1.0" encoding="utf-8"?>
<!-- Generator: Adobe Illustrator 26.0.0, SVG Export Plug-In . SVG Version: 6.00 Build 0)  -->
<svg version="1.1" id="Layer_1" xmlns="http://www.w3.org/2000/svg" xmlns:xlink="http://www.w3.org/1999/xlink" x="0px" y="0px"
	 viewBox="0 0 1227.6 508.1" style="enable-background:new 0 0 1227.6 508.1;" xml:space="preserve">
<style type="text/css">
	
		.st0{clip-path:url(#SVGID_00000134245095842438849830000012463254180792894610_);fill:url(#SVGID_00000038393812616303293050000003966063797922322613_);}
	.st1{opacity:0.7;clip-path:url(#SVGID_00000134245095842438849830000012463254180792894610_);}
	.st2{opacity:0.5;}
	.st3{fill:#292986;}
	.st4{opacity:0.4;}
	.st5{fill:#EC63E3;}
	.st6{fill:#00BDE3;}
	.st7{fill:url(#SVGID_00000075859341168255254920000016132146155113701304_);}
	.st8{clip-path:url(#XMLID_00000012445171077523054890000006985263017912188051_);}
	.st9{fill:#2646A3;}
</style>
<g id="TEXTS">
</g>
<g>
	<defs>
		<rect id="SVGID_1_" width="1226.9" height="511.4"/>
	</defs>
	<clipPath id="SVGID_00000020375453126966532470000007488811058887389871_">
		<use xlink:href="#SVGID_1_"  style="overflow:visible;"/>
	</clipPath>
	
		<linearGradient id="SVGID_00000007430287323423004210000009756680556936012961_" gradientUnits="userSpaceOnUse" x1="852.2647" y1="437.8141" x2="852.2647" y2="-46.1809" gradientTransform="matrix(-1 0 0 1 1466.0647 0)">
		<stop  offset="2.184300e-02" style="stop-color:#4054F0"/>
		<stop  offset="0.5201" style="stop-color:#4835AA"/>
		<stop  offset="0.6306" style="stop-color:#3D2F95"/>
		<stop  offset="0.8255" style="stop-color:#2B2676"/>
		<stop  offset="0.934" style="stop-color:#25236A"/>
	</linearGradient>
	
		<polygon style="clip-path:url(#SVGID_00000020375453126966532470000007488811058887389871_);fill:url(#SVGID_00000007430287323423004210000009756680556936012961_);" points="
		0,508.1 1227.6,508.1 1227.6,0 0,0 	"/>
	<g style="opacity:0.7;clip-path:url(#SVGID_00000020375453126966532470000007488811058887389871_);">
		<g class="st2">
			<path class="st3" d="M989.4,325.5v61.1h-14.6c0.1-3.2,0.2-6.5,0.2-10c0-20.6-2.8-37.3-6.3-37.3c-3.5,0-6.3,16.7-6.3,37.3
				c0,3.4,0.1,6.8,0.2,10h-4.3c0.1-3.2,0.2-6.5,0.2-10c0-20.6-2.8-37.3-6.3-37.3c-3.5,0-6.3,16.7-6.3,37.3c0,3.4,0.1,6.8,0.2,10
				h-10.8v-61.1H989.4z"/>
			<g class="st4">
				<polygon class="st3" points="1049.1,287.5 1058,301.6 1011.9,386 1069.5,386 1069.5,264.9 				"/>
				<path class="st5" d="M1062.5,333.4L1062.5,333.4c0.5,0,0.8-0.3,0.8-0.7v-12.5c0-0.4-0.4-0.7-0.8-0.7l0,0c-0.5,0-0.8,0.3-0.8,0.7
					v12.5C1061.7,333,1062.1,333.4,1062.5,333.4z"/>
				<path class="st5" d="M1049.1,356.8L1049.1,356.8c0.5,0,0.8-0.3,0.8-0.7v-12.5c0-0.4-0.4-0.7-0.8-0.7l0,0c-0.5,0-0.8,0.3-0.8,0.7
					V356C1048.2,356.4,1048.6,356.8,1049.1,356.8z"/>
				<path class="st5" d="M1053.9,369.4L1053.9,369.4c0.5,0,0.8-0.3,0.8-0.7v-37.7c0-0.4-0.4-0.7-0.8-0.7l0,0c-0.5,0-0.8,0.3-0.8,0.7
					v37.7C1053,369.1,1053.4,369.4,1053.9,369.4z"/>
			</g>
			<g class="st4">
				<g>
					<polygon class="st3" points="745.4,327.9 743.2,271.1 770.9,271.1 768.7,335.5 					"/>
					<polygon class="st3" points="768.7,348.2 768.7,402.6 745.4,402.6 745.4,335.5 					"/>
					
						<rect x="749.8" y="320.6" transform="matrix(-1 -1.224647e-16 1.224647e-16 -1 1514.8751 676.2114)" class="st3" width="15.3" height="34.9"/>
				</g>
				<path class="st6" d="M747.7,316L747.7,316c-0.4,0-0.8-0.3-0.8-0.6v-36.6c0-0.4,0.3-0.6,0.8-0.6l0,0c0.4,0,0.8,0.3,0.8,0.6v36.6
					C748.4,315.7,748.1,316,747.7,316z"/>
				<path class="st6" d="M760.7,326.5L760.7,326.5c-0.4,0-0.8-0.3-0.8-0.6v-36.6c0-0.4,0.3-0.6,0.8-0.6l0,0c0.4,0,0.8,0.3,0.8,0.6
					v36.6C761.5,326.2,761.1,326.5,760.7,326.5z"/>
				<path class="st6" d="M760.7,393.7L760.7,393.7c-0.4,0-0.8-0.3-0.8-0.6v-36.6c0-0.4,0.3-0.6,0.8-0.6l0,0c0.4,0,0.8,0.3,0.8,0.6
					v36.6C761.5,393.4,761.1,393.7,760.7,393.7z"/>
				<path class="st6" d="M753.5,309.6L753.5,309.6c-0.4,0-0.8-0.3-0.8-0.6v-11.2c0-0.4,0.3-0.6,0.8-0.6l0,0c0.4,0,0.8,0.3,0.8,0.6
					v11.2C754.3,309.3,754,309.6,753.5,309.6z"/>
				<path class="st6" d="M753.5,373.1L753.5,373.1c-0.4,0-0.8-0.3-0.8-0.6v-11.2c0-0.4,0.3-0.6,0.8-0.6l0,0c0.4,0,0.8,0.3,0.8,0.6
					v11.2C754.3,372.8,754,373.1,753.5,373.1z"/>
			</g>
			<g class="st4">
				<g>
					<polygon class="st3" points="878.7,360.1 880.8,413 855,413 857,352.9 					"/>
					<polygon class="st3" points="857,341.1 857,290.4 878.7,290.4 878.7,352.9 					"/>
					<rect x="860.4" y="334.2" class="st3" width="14.3" height="32.6"/>
				</g>
				<path class="st6" d="M876.6,371.1L876.6,371.1c0.4,0,0.7,0.3,0.7,0.6v34.1c0,0.3-0.3,0.6-0.7,0.6l0,0c-0.4,0-0.7-0.3-0.7-0.6
					v-34.1C875.9,371.4,876.3,371.1,876.6,371.1z"/>
				<path class="st6" d="M864.5,361.3L864.5,361.3c0.4,0,0.7,0.3,0.7,0.6V396c0,0.3-0.3,0.6-0.7,0.6l0,0c-0.4,0-0.7-0.3-0.7-0.6
					v-34.1C863.8,361.6,864.1,361.3,864.5,361.3z"/>
				<path class="st6" d="M864.5,298.7L864.5,298.7c0.4,0,0.7,0.3,0.7,0.6v34.1c0,0.3-0.3,0.6-0.7,0.6l0,0c-0.4,0-0.7-0.3-0.7-0.6
					v-34.1C863.8,298.9,864.1,298.7,864.5,298.7z"/>
				<path class="st6" d="M871.2,377.1L871.2,377.1c0.4,0,0.7,0.3,0.7,0.6v10.4c0,0.3-0.3,0.6-0.7,0.6l0,0c-0.4,0-0.7-0.3-0.7-0.6
					v-10.4C870.5,377.4,870.8,377.1,871.2,377.1z"/>
				<path class="st6" d="M871.2,317.9L871.2,317.9c0.4,0,0.7,0.3,0.7,0.6v10.4c0,0.3-0.3,0.6-0.7,0.6l0,0c-0.4,0-0.7-0.3-0.7-0.6
					v-10.4C870.5,318.1,870.8,317.9,871.2,317.9z"/>
			</g>
			<g class="st4">
				<g>
					<polygon class="st3" points="834.2,360.1 836.3,413 810.4,413 812.5,352.9 					"/>
					<polygon class="st3" points="812.5,341.1 812.5,290.4 834.2,290.4 834.2,352.9 					"/>
					<rect x="815.9" y="334.2" class="st3" width="14.3" height="32.6"/>
				</g>
				<path class="st6" d="M832.1,371.1L832.1,371.1c0.4,0,0.7,0.3,0.7,0.6v34.1c0,0.3-0.3,0.6-0.7,0.6l0,0c-0.4,0-0.7-0.3-0.7-0.6
					v-34.1C831.4,371.4,831.7,371.1,832.1,371.1z"/>
				<path class="st6" d="M820,361.3L820,361.3c0.4,0,0.7,0.3,0.7,0.6V396c0,0.3-0.3,0.6-0.7,0.6l0,0c-0.4,0-0.7-0.3-0.7-0.6v-34.1
					C819.3,361.6,819.6,361.3,820,361.3z"/>
				<path class="st6" d="M820,298.7L820,298.7c0.4,0,0.7,0.3,0.7,0.6v34.1c0,0.3-0.3,0.6-0.7,0.6l0,0c-0.4,0-0.7-0.3-0.7-0.6v-34.1
					C819.3,298.9,819.6,298.7,820,298.7z"/>
				<path class="st6" d="M826.6,377.1L826.6,377.1c0.4,0,0.7,0.3,0.7,0.6v10.4c0,0.3-0.3,0.6-0.7,0.6l0,0c-0.4,0-0.7-0.3-0.7-0.6
					v-10.4C825.9,377.4,826.3,377.1,826.6,377.1z"/>
				<path class="st6" d="M826.6,317.9L826.6,317.9c0.4,0,0.7,0.3,0.7,0.6v10.4c0,0.3-0.3,0.6-0.7,0.6l0,0c-0.4,0-0.7-0.3-0.7-0.6
					v-10.4C825.9,318.1,826.3,317.9,826.6,317.9z"/>
			</g>
			<g class="st4">
				<g>
					<path class="st3" d="M608.9,312.8h2.4h2.4c0,45.7,9.7,80.5,9.7,80.5h-12h-12C599.2,393.3,608.9,358.5,608.9,312.8z"/>
					<ellipse class="st3" cx="611.2" cy="315.3" rx="23" ry="10.2"/>
				</g>
				<path class="st5" d="M621.6,314.8L621.6,314.8c0,0.3-0.3,0.6-0.7,0.6h-25.2c-0.4,0-0.7-0.3-0.7-0.6l0,0c0-0.3,0.3-0.6,0.7-0.6
					h25.2C621.3,314.2,621.6,314.5,621.6,314.8z"/>
			</g>
			<path class="st3" d="M830.1,381.3c0,0-160.8-21.6-216-49.6c-55.2-28,27.2-40.5,27.2-40.5l3.2-13c0,0-113.5,4.6-80.6,46.7
				s266.1,61.1,266.1,61.1V381.3z"/>
			<g>
				<g>
					<polygon class="st3" points="641.3,295.2 638.1,213.7 678,213.7 674.8,306.2 					"/>
					<polygon class="st3" points="674.8,324.3 674.8,402.6 641.3,402.6 641.3,306.2 					"/>
					
						<rect x="647.6" y="284.8" transform="matrix(-1 -1.224647e-16 1.224647e-16 -1 1317.1597 619.7999)" class="st3" width="22" height="50.2"/>
				</g>
				<path class="st6" d="M644.5,278.2L644.5,278.2c-0.6,0-1.1-0.4-1.1-0.9v-52.5c0-0.5,0.5-0.9,1.1-0.9l0,0c0.6,0,1.1,0.4,1.1,0.9
					v52.5C645.6,277.8,645.1,278.2,644.5,278.2z"/>
				<path class="st6" d="M663.3,293.2L663.3,293.2c-0.6,0-1.1-0.4-1.1-0.9v-52.5c0-0.5,0.5-0.9,1.1-0.9l0,0c0.6,0,1.1,0.4,1.1,0.9
					v52.5C664.4,292.8,663.9,293.2,663.3,293.2z"/>
				<path class="st6" d="M663.3,389.8L663.3,389.8c-0.6,0-1.1-0.4-1.1-0.9v-52.5c0-0.5,0.5-0.9,1.1-0.9l0,0c0.6,0,1.1,0.4,1.1,0.9
					v52.5C664.4,389.4,663.9,389.8,663.3,389.8z"/>
				<path class="st6" d="M653,268.9L653,268.9c-0.6,0-1.1-0.4-1.1-0.9v-16c0-0.5,0.5-0.9,1.1-0.9l0,0c0.6,0,1.1,0.4,1.1,0.9v16
					C654.1,268.5,653.6,268.9,653,268.9z"/>
				<path class="st6" d="M653,360.2L653,360.2c-0.6,0-1.1-0.4-1.1-0.9v-16c0-0.5,0.5-0.9,1.1-0.9l0,0c0.6,0,1.1,0.4,1.1,0.9v16
					C654.1,359.8,653.6,360.2,653,360.2z"/>
			</g>
			<g>
				<g>
					<polygon class="st3" points="986.2,363.9 983,445.5 1022.8,445.5 1019.7,352.9 					"/>
					<polygon class="st3" points="1019.7,334.8 1019.7,256.5 986.2,256.5 986.2,352.9 					"/>
					
						<rect x="992.4" y="324.1" transform="matrix(-1 -1.224647e-16 1.224647e-16 -1 2006.8806 698.4384)" class="st3" width="22" height="50.2"/>
				</g>
				<path class="st6" d="M989.4,380.9L989.4,380.9c-0.6,0-1.1,0.4-1.1,0.9v52.5c0,0.5,0.5,0.9,1.1,0.9l0,0c0.6,0,1.1-0.4,1.1-0.9
					v-52.5C990.5,381.4,990,380.9,989.4,380.9z"/>
				<path class="st6" d="M1008.1,365.9L1008.1,365.9c-0.6,0-1.1,0.4-1.1,0.9v52.5c0,0.5,0.5,0.9,1.1,0.9l0,0c0.6,0,1.1-0.4,1.1-0.9
					v-52.5C1009.2,366.3,1008.7,365.9,1008.1,365.9z"/>
				<path class="st6" d="M1008.1,269.3L1008.1,269.3c-0.6,0-1.1,0.4-1.1,0.9v52.5c0,0.5,0.5,0.9,1.1,0.9l0,0c0.6,0,1.1-0.4,1.1-0.9
					v-52.5C1009.2,269.7,1008.7,269.3,1008.1,269.3z"/>
				<path class="st6" d="M997.8,390.2L997.8,390.2c-0.6,0-1.1,0.4-1.1,0.9v16c0,0.5,0.5,0.9,1.1,0.9l0,0c0.6,0,1.1-0.4,1.1-0.9v-16
					C998.9,390.7,998.4,390.2,997.8,390.2z"/>
				<path class="st6" d="M997.8,298.9L997.8,298.9c-0.6,0-1.1,0.4-1.1,0.9v16c0,0.5,0.5,0.9,1.1,0.9l0,0c0.6,0,1.1-0.4,1.1-0.9v-16
					C998.9,299.3,998.4,298.9,997.8,298.9z"/>
			</g>
			<g>
				<g>
					<path class="st3" d="M791.9,322.4h2.4h2.4c0,45.7,9.7,80.5,9.7,80.5h-12h-12C782.2,402.9,791.9,368.1,791.9,322.4z"/>
					<ellipse class="st3" cx="794.2" cy="324.8" rx="23" ry="10.2"/>
				</g>
				<path class="st5" d="M804.6,324.4L804.6,324.4c0,0.3-0.3,0.6-0.7,0.6h-25.2c-0.4,0-0.7-0.3-0.7-0.6l0,0c0-0.3,0.3-0.6,0.7-0.6
					h25.2C804.3,323.8,804.6,324.1,804.6,324.4z"/>
			</g>
			<g>
				<g>
					<path class="st3" d="M839.4,266.5h3.9h3.9c0,76.1,16.1,134.2,16.1,134.2h-20h-20C823.4,400.7,839.4,342.6,839.4,266.5z"/>
					<ellipse class="st3" cx="843.4" cy="270.6" rx="38.4" ry="17"/>
				</g>
				<path class="st5" d="M856.7,270.6L856.7,270.6c0,0.3-0.3,0.6-0.7,0.6h-25.2c-0.4,0-0.7-0.3-0.7-0.6l0,0c0-0.3,0.3-0.6,0.7-0.6
					H856C856.4,270,856.7,270.2,856.7,270.6z"/>
			</g>
			<g>
				<g>
					<path class="st3" d="M966.3,339.6h1.8h1.8c0,35.1,7.4,61.9,7.4,61.9h-9.2h-9.2C958.9,401.5,966.3,374.7,966.3,339.6z"/>
					<path class="st3" d="M985.8,341.4c0,4.3-7.9,7.8-17.7,7.8c-9.8,0-17.7-3.5-17.7-7.8s7.9-7.8,17.7-7.8
						C977.9,333.6,985.8,337.1,985.8,341.4z"/>
				</g>
				<path class="st5" d="M981.4,341.4L981.4,341.4c0,0.3-0.3,0.6-0.7,0.6h-25.2c-0.4,0-0.7-0.3-0.7-0.6l0,0c0-0.3,0.3-0.6,0.7-0.6
					h25.2C981.1,340.8,981.4,341.1,981.4,341.4z"/>
			</g>
			<g>
				<path class="st3" d="M1080.6,382.1c0-13.2-11.2-23.9-24.9-23.9c-13.8,0-24.9,10.7-24.9,23.9c0,1.3,0.1,2.6,0.3,3.8h-10
					c0.1-1.2,0.1-2.5,0.1-3.8c0-13.2-5.1-23.9-11.4-23.9c-6.3,0-11.4,10.7-11.4,23.9c0,1.3,0.1,2.6,0.1,3.8h-29.8
					c0-28.4,26.7-51.4,59.6-51.4c32.9,0,59.6,23,59.6,51.4h-7.7C1080.4,384.7,1080.6,383.4,1080.6,382.1z"/>
				<path class="st5" d="M1025.2,349.8L1025.2,349.8c0,0.3-0.3,0.6-0.7,0.6h-25.2c-0.4,0-0.7-0.3-0.7-0.6l0,0c0-0.3,0.3-0.6,0.7-0.6
					h25.2C1024.9,349.2,1025.2,349.5,1025.2,349.8z"/>
				<path class="st5" d="M1046.9,342.3L1046.9,342.3c0,0.3-0.3,0.6-0.7,0.6h-8.2c-0.4,0-0.7-0.3-0.7-0.6l0,0c0-0.3,0.3-0.6,0.7-0.6
					h8.2C1046.6,341.7,1046.9,342,1046.9,342.3z"/>
				<path class="st5" d="M1035.8,342.3L1035.8,342.3c0,0.3-0.3,0.6-0.7,0.6h-2.8c-0.4,0-0.7-0.3-0.7-0.6l0,0c0-0.3,0.3-0.6,0.7-0.6
					h2.8C1035.5,341.7,1035.8,342,1035.8,342.3z"/>
			</g>
			<g>
				<g>
					<defs>
						<polygon id="XMLID_00000155120239613188386630000011884859732714296714_" points="885.3,211.7 892.9,211.7 902.8,245.5 
							912.2,249.5 926.8,296.1 916.6,292.6 919.1,301.2 930.8,306.8 956.8,400.7 896.7,400.7 889.4,286.9 898.3,291.2 						"/>
					</defs>
					<use xlink:href="#XMLID_00000155120239613188386630000011884859732714296714_"  style="overflow:visible;fill:#292986;"/>
					<clipPath id="XMLID_00000021827141931403831000000016864812071581186694_">
						<use xlink:href="#XMLID_00000155120239613188386630000011884859732714296714_"  style="overflow:visible;"/>
					</clipPath>
				</g>
				<path class="st6" d="M913.1,320.4L913.1,320.4c0.4-0.1,0.7,0.1,0.8,0.5l5,21.3c0.1,0.3-0.2,0.6-0.5,0.7l0,0
					c-0.4,0.1-0.7-0.1-0.8-0.5l-5-21.3C912.5,320.8,912.7,320.5,913.1,320.4z"/>
				<path class="st6" d="M919,345.7L919,345.7c0.4-0.1,0.7,0.1,0.8,0.5l0.8,3.5c0.1,0.3-0.2,0.6-0.5,0.7l0,0
					c-0.4,0.1-0.7-0.1-0.8-0.5l-0.8-3.5C918.4,346.1,918.6,345.7,919,345.7z"/>
				<path class="st6" d="M899.1,253.6L899.1,253.6c0.4,0,0.7,0.2,0.8,0.5l3.7,21.5c0.1,0.3-0.2,0.6-0.6,0.7l0,0
					c-0.4,0-0.7-0.2-0.8-0.5l-3.7-21.5C898.4,253.9,898.7,253.6,899.1,253.6z"/>
				<path class="st6" d="M903.4,279.1L903.4,279.1c0.4,0,0.7,0.2,0.8,0.5l0.6,3.5c0.1,0.3-0.2,0.6-0.6,0.7l0,0
					c-0.4,0-0.7-0.2-0.8-0.5l-0.6-3.5C902.8,279.4,903,279.1,903.4,279.1z"/>
				<path class="st6" d="M931,329.2L931,329.2c0.4-0.1,0.7,0.1,0.8,0.5l10.3,44.1c0.1,0.3-0.2,0.6-0.5,0.7l0,0
					c-0.4,0.1-0.7-0.1-0.8-0.5l-10.3-44.1C930.4,329.6,930.7,329.3,931,329.2z"/>
			</g>
			<g>
				<polygon class="st3" points="727.5,276.1 716.1,294.2 775.3,402.6 701.4,402.6 701.4,247 				"/>
				<path class="st5" d="M710.3,335L710.3,335c-0.6,0-1.1-0.4-1.1-0.9v-16c0-0.5,0.5-0.9,1.1-0.9l0,0c0.6,0,1.1,0.4,1.1,0.9v16
					C711.4,334.6,710.9,335,710.3,335z"/>
				<path class="st5" d="M727.6,365.1L727.6,365.1c-0.6,0-1.1-0.4-1.1-0.9v-16c0-0.5,0.5-0.9,1.1-0.9l0,0c0.6,0,1.1,0.4,1.1,0.9v16
					C728.7,364.6,728.2,365.1,727.6,365.1z"/>
				<path class="st5" d="M721.4,381.3L721.4,381.3c-0.6,0-1.1-0.4-1.1-0.9v-48.4c0-0.5,0.5-0.9,1.1-0.9l0,0c0.6,0,1.1,0.4,1.1,0.9
					v48.4C722.5,380.8,722,381.3,721.4,381.3z"/>
			</g>
			<path class="st3" d="M903.8,339.6v61.1h-14.6c0.1-3.2,0.2-6.5,0.2-10c0-20.6-2.8-37.3-6.3-37.3c-3.5,0-6.3,16.7-6.3,37.3
				c0,3.4,0.1,6.8,0.2,10h-4.3c0.1-3.2,0.2-6.5,0.2-10c0-20.6-2.8-37.3-6.3-37.3c-3.5,0-6.3,16.7-6.3,37.3c0,3.4,0.1,6.8,0.2,10
				h-10.8v-61.1H903.8z"/>
		</g>
		<g>
			<g class="st4">
				<g>
					<polygon class="st3" points="1127.8,298 1125.2,231.6 1157.7,231.6 1155.1,307 					"/>
					<polygon class="st3" points="1155.1,321.8 1155.1,385.5 1127.8,385.5 1127.8,307 					"/>
					
						<rect x="1132.9" y="289.6" transform="matrix(-1 -1.224647e-16 1.224647e-16 -1 2283.8162 620.0421)" class="st3" width="18" height="40.9"/>
				</g>
				<path class="st6" d="M1130.5,284.2L1130.5,284.2c-0.5,0-0.9-0.3-0.9-0.8v-42.8c0-0.4,0.4-0.8,0.9-0.8l0,0c0.5,0,0.9,0.3,0.9,0.8
					v42.8C1131.4,283.8,1131,284.2,1130.5,284.2z"/>
				<path class="st6" d="M1145.7,296.5L1145.7,296.5c-0.5,0-0.9-0.3-0.9-0.8v-42.8c0-0.4,0.4-0.8,0.9-0.8l0,0c0.5,0,0.9,0.3,0.9,0.8
					v42.8C1146.6,296.1,1146.2,296.5,1145.7,296.5z"/>
				<path class="st6" d="M1145.7,375.1L1145.7,375.1c-0.5,0-0.9-0.3-0.9-0.8v-42.8c0-0.4,0.4-0.8,0.9-0.8l0,0c0.5,0,0.9,0.3,0.9,0.8
					v42.8C1146.6,374.8,1146.2,375.1,1145.7,375.1z"/>
				<path class="st6" d="M1137.4,276.6L1137.4,276.6c-0.5,0-0.9-0.3-0.9-0.8v-13.1c0-0.4,0.4-0.8,0.9-0.8l0,0c0.5,0,0.9,0.3,0.9,0.8
					v13.1C1138.2,276.3,1137.8,276.6,1137.4,276.6z"/>
				<path class="st6" d="M1137.4,351L1137.4,351c-0.5,0-0.9-0.3-0.9-0.8v-13.1c0-0.4,0.4-0.8,0.9-0.8l0,0c0.5,0,0.9,0.3,0.9,0.8
					v13.1C1138.2,350.7,1137.8,351,1137.4,351z"/>
			</g>
			<g class="st4">
				<g>
					<polygon class="st3" points="1197.1,341.7 1199.5,403.6 1169.2,403.6 1171.6,333.4 					"/>
					<polygon class="st3" points="1171.6,319.6 1171.6,260.1 1197.1,260.1 1197.1,333.4 					"/>
					<rect x="1175.6" y="311.5" class="st3" width="16.7" height="38.1"/>
				</g>
				<path class="st6" d="M1194.6,354.6L1194.6,354.6c0.5,0,0.8,0.3,0.8,0.7v39.9c0,0.4-0.4,0.7-0.8,0.7l0,0c-0.5,0-0.8-0.3-0.8-0.7
					v-39.9C1193.8,355,1194.2,354.6,1194.6,354.6z"/>
				<path class="st6" d="M1180.4,343.2L1180.4,343.2c0.5,0,0.8,0.3,0.8,0.7v39.9c0,0.4-0.4,0.7-0.8,0.7l0,0c-0.5,0-0.8-0.3-0.8-0.7
					v-39.9C1179.6,343.5,1179.9,343.2,1180.4,343.2z"/>
				<path class="st6" d="M1180.4,269.8L1180.4,269.8c0.5,0,0.8,0.3,0.8,0.7v39.9c0,0.4-0.4,0.7-0.8,0.7l0,0c-0.5,0-0.8-0.3-0.8-0.7
					v-39.9C1179.6,270.1,1179.9,269.8,1180.4,269.8z"/>
				<path class="st6" d="M1188.2,361.7L1188.2,361.7c0.5,0,0.8,0.3,0.8,0.7v12.2c0,0.4-0.4,0.7-0.8,0.7l0,0c-0.5,0-0.8-0.3-0.8-0.7
					v-12.2C1187.4,362,1187.8,361.7,1188.2,361.7z"/>
				<path class="st6" d="M1188.2,292.3L1188.2,292.3c0.5,0,0.8,0.3,0.8,0.7v12.2c0,0.4-0.4,0.7-0.8,0.7l0,0c-0.5,0-0.8-0.3-0.8-0.7
					V293C1187.4,292.6,1187.8,292.3,1188.2,292.3z"/>
			</g>
			<g class="st4">
				<g>
					<path class="st3" d="M967.9,294.6h2.8h2.8c0,53.5,11.3,94.2,11.3,94.2h-14.1h-14.1C956.6,388.9,967.9,348.1,967.9,294.6z"/>
					<ellipse class="st3" cx="970.7" cy="297.5" rx="27" ry="11.9"/>
				</g>
				<path class="st5" d="M982.9,297L982.9,297c0,0.4-0.4,0.7-0.8,0.7h-29.6c-0.4,0-0.8-0.3-0.8-0.7l0,0c0-0.4,0.4-0.7,0.8-0.7h29.6
					C982.5,296.3,982.9,296.6,982.9,297z"/>
			</g>
			<path class="st3" d="M1226.9,360.5c0,0-188.2-25.3-252.8-58.1C909.5,269.6,1006,255,1006,255l3.8-15.2c0,0-132.8,5.4-94.4,54.6
				c38.4,49.2,311.6,71.5,311.6,71.5V360.5z"/>
			<g>
				<g>
					<polygon class="st3" points="1006,259.8 1002.2,164.3 1048.9,164.3 1045.2,272.7 					"/>
					<polygon class="st3" points="1045.2,293.9 1045.2,385.5 1006,385.5 1006,272.7 					"/>
					
						<rect x="1013.3" y="247.6" transform="matrix(-1 -1.224647e-16 1.224647e-16 -1 2052.3379 553.9975)" class="st3" width="25.8" height="58.8"/>
				</g>
				<path class="st6" d="M1009.7,239.8L1009.7,239.8c-0.7,0-1.3-0.5-1.3-1.1v-61.5c0-0.6,0.6-1.1,1.3-1.1l0,0c0.7,0,1.3,0.5,1.3,1.1
					v61.5C1011,239.4,1010.4,239.8,1009.7,239.8z"/>
				<path class="st6" d="M1031.7,257.5L1031.7,257.5c-0.7,0-1.3-0.5-1.3-1.1v-61.5c0-0.6,0.6-1.1,1.3-1.1l0,0c0.7,0,1.3,0.5,1.3,1.1
					v61.5C1032.9,257,1032.4,257.5,1031.7,257.5z"/>
				<path class="st6" d="M1031.7,370.6L1031.7,370.6c-0.7,0-1.3-0.5-1.3-1.1V308c0-0.6,0.6-1.1,1.3-1.1l0,0c0.7,0,1.3,0.5,1.3,1.1
					v61.5C1032.9,370.1,1032.4,370.6,1031.7,370.6z"/>
				<path class="st6" d="M1019.6,229L1019.6,229c-0.7,0-1.3-0.5-1.3-1.1v-18.8c0-0.6,0.6-1.1,1.3-1.1l0,0c0.7,0,1.3,0.5,1.3,1.1
					v18.8C1020.9,228.5,1020.3,229,1019.6,229z"/>
				<path class="st6" d="M1019.6,335.9L1019.6,335.9c-0.7,0-1.3-0.5-1.3-1.1v-18.8c0-0.6,0.6-1.1,1.3-1.1l0,0c0.7,0,1.3,0.5,1.3,1.1
					v18.8C1020.9,335.4,1020.3,335.9,1019.6,335.9z"/>
			</g>
			<g>
				<path class="st3" d="M992.9,392.5c0-15.4-13.1-27.9-29.2-27.9s-29.2,12.5-29.2,27.9c0,1.5,0.1,3,0.4,4.5h-11.8
					c0.1-1.5,0.2-2.9,0.2-4.5c0-15.4-6-27.9-13.4-27.9c-7.4,0-13.4,12.5-13.4,27.9c0,1.5,0.1,3,0.2,4.5h-34.9
					c0-33.2,31.3-60.1,69.8-60.1s69.8,26.9,69.8,60.1h-9C992.8,395.5,992.9,394,992.9,392.5z"/>
				<path class="st5" d="M928.2,354.6L928.2,354.6c0,0.4-0.4,0.7-0.8,0.7h-29.6c-0.4,0-0.8-0.3-0.8-0.7l0,0c0-0.4,0.4-0.7,0.8-0.7
					h29.6C927.8,354,928.2,354.3,928.2,354.6z"/>
				<path class="st5" d="M953.5,345.9L953.5,345.9c0,0.4-0.4,0.7-0.8,0.7h-9.6c-0.4,0-0.8-0.3-0.8-0.7l0,0c0-0.4,0.4-0.7,0.8-0.7
					h9.6C953.1,345.2,953.5,345.5,953.5,345.9z"/>
				<path class="st5" d="M940.5,345.9L940.5,345.9c0,0.4-0.4,0.7-0.8,0.7h-3.3c-0.4,0-0.8-0.3-0.8-0.7l0,0c0-0.4,0.4-0.7,0.8-0.7
					h3.3C940.1,345.2,940.5,345.5,940.5,345.9z"/>
			</g>
			<g>
				<polygon class="st3" points="1098.3,237.4 1085,258.6 1154.2,385.5 1067.7,385.5 1067.7,203.4 				"/>
				<path class="st5" d="M1078.1,306.4L1078.1,306.4c-0.7,0-1.3-0.5-1.3-1.1v-18.8c0-0.6,0.6-1.1,1.3-1.1l0,0c0.7,0,1.3,0.5,1.3,1.1
					v18.8C1079.4,305.9,1078.8,306.4,1078.1,306.4z"/>
				<path class="st5" d="M1098.4,341.6L1098.4,341.6c-0.7,0-1.3-0.5-1.3-1.1v-18.8c0-0.6,0.6-1.1,1.3-1.1l0,0c0.7,0,1.3,0.5,1.3,1.1
					v18.8C1099.6,341.1,1099.1,341.6,1098.4,341.6z"/>
				<path class="st5" d="M1091.1,360.5L1091.1,360.5c-0.7,0-1.3-0.5-1.3-1.1v-56.7c0-0.6,0.6-1.1,1.3-1.1l0,0c0.7,0,1.3,0.5,1.3,1.1
					v56.7C1092.4,360.1,1091.8,360.5,1091.1,360.5z"/>
			</g>
			<g>
				<g>
					<g>
						<path class="st3" d="M1149,227.8h4.6h4.6c0,89.1,18.8,157.1,18.8,157.1h-23.4h-23.4C1130.2,384.9,1149,316.9,1149,227.8z"/>
						<ellipse class="st3" cx="1153.7" cy="232.6" rx="44.9" ry="19.9"/>
					</g>
					<path class="st5" d="M1169.2,232.6L1169.2,232.6c0,0.4-0.4,0.7-0.8,0.7h-29.6c-0.4,0-0.8-0.3-0.8-0.7l0,0
						c0-0.4,0.4-0.7,0.8-0.7h29.6C1168.9,231.9,1169.2,232.2,1169.2,232.6z"/>
				</g>
				<g>
					<g>
						<defs>
							<polygon id="XMLID_00000005239840750411449080000018022384521238008219_" points="1202.7,163.7 1211.6,163.7 1223.2,203.2 
								1234.3,208 1251.3,262.5 1239.3,258.4 1242.3,268.4 1256,275 1286.5,384.9 1216,384.9 1207.5,251.8 1217.9,256.8 							"/>
						</defs>
						<use xlink:href="#XMLID_00000005239840750411449080000018022384521238008219_"  style="overflow:visible;fill:#292986;"/>
						<clipPath id="XMLID_00000118365666667067081470000012350100894395941796_">
							<use xlink:href="#XMLID_00000005239840750411449080000018022384521238008219_"  style="overflow:visible;"/>
						</clipPath>
					</g>
					<path class="st6" d="M1235.3,290.9L1235.3,290.9c0.4-0.1,0.9,0.2,0.9,0.5l5.8,25c0.1,0.4-0.2,0.7-0.6,0.8l0,0
						c-0.4,0.1-0.9-0.2-0.9-0.5l-5.8-25C1234.6,291.4,1234.8,291,1235.3,290.9z"/>
					<path class="st6" d="M1242.2,320.5L1242.2,320.5c0.4-0.1,0.9,0.2,0.9,0.5l1,4.1c0.1,0.4-0.2,0.7-0.6,0.8l0,0
						c-0.4,0.1-0.9-0.2-0.9-0.5l-1-4.1C1241.5,321,1241.7,320.6,1242.2,320.5z"/>
					<path class="st6" d="M1218.8,212.7L1218.8,212.7c0.4-0.1,0.8,0.2,0.9,0.6l4.3,25.2c0.1,0.4-0.2,0.7-0.7,0.8l0,0
						c-0.4,0.1-0.8-0.2-0.9-0.6l-4.3-25.2C1218.1,213.1,1218.4,212.8,1218.8,212.7z"/>
					<path class="st6" d="M1223.9,242.6L1223.9,242.6c0.4-0.1,0.8,0.2,0.9,0.6l0.7,4.1c0.1,0.4-0.2,0.7-0.7,0.8l0,0
						c-0.4,0.1-0.8-0.2-0.9-0.6l-0.7-4.1C1223.2,243,1223.5,242.6,1223.9,242.6z"/>
					<path class="st6" d="M1256.3,301.3L1256.3,301.3c0.4-0.1,0.9,0.2,0.9,0.5l12,51.6c0.1,0.4-0.2,0.7-0.6,0.8l0,0
						c-0.4,0.1-0.9-0.2-0.9-0.5l-12-51.6C1255.6,301.7,1255.8,301.4,1256.3,301.3z"/>
				</g>
				<path class="st3" d="M1224.4,313.4v71.5h-17.1c0.2-3.7,0.3-7.6,0.3-11.7c0-24.1-3.3-43.7-7.3-43.7c-4.1,0-7.3,19.6-7.3,43.7
					c0,4,0.1,7.9,0.3,11.7h-5c0.2-3.7,0.3-7.6,0.3-11.7c0-24.1-3.3-43.7-7.3-43.7s-7.3,19.6-7.3,43.7c0,4,0.1,7.9,0.3,11.7h-12.6
					v-71.5H1224.4z"/>
			</g>
		</g>
		
			<linearGradient id="SVGID_00000164515895478378395200000014201702584678849727_" gradientUnits="userSpaceOnUse" x1="848.3632" y1="453.7706" x2="848.3632" y2="94.4653" gradientTransform="matrix(-1 0 0 1 1466.0647 0)">
			<stop  offset="4.485000e-02" style="stop-color:#00C3FF"/>
			<stop  offset="0.259" style="stop-color:#000000"/>
		</linearGradient>
		<path style="fill:url(#SVGID_00000164515895478378395200000014201702584678849727_);" d="M1306.1,312.4
			c-469.3,32.1-929.3,35.4-1376.8,0v148h1376.8L1306.1,312.4z"/>
		<g>
			<defs>
				<path id="XMLID_00000029018396265146473660000002158979028099783317_" d="M1306.1,359.2c-469.3,45.9-929.3,49.5-1376.8,0v152.2
					h1376.8L1306.1,359.2z"/>
			</defs>
			<use xlink:href="#XMLID_00000029018396265146473660000002158979028099783317_"  style="overflow:visible;fill:#221B4C;"/>
			<clipPath id="XMLID_00000129191637898111060150000005950039269842697908_">
				<use xlink:href="#XMLID_00000029018396265146473660000002158979028099783317_"  style="overflow:visible;"/>
			</clipPath>
			<g style="clip-path:url(#XMLID_00000129191637898111060150000005950039269842697908_);">
				<g>
					<polygon class="st9" points="2200.8,543 2206.9,543 1662.7,458.9 1566.1,451.3 1138,381.9 1135.9,381.9 1563.7,451.6 
						1660.4,459.2 					"/>
				</g>
				<g>
					<polygon class="st9" points="1842.1,543 1848.2,543 1622.1,497.9 1505.8,486.3 1014.9,381.9 1012.8,381.9 1502.8,486.7 
						1619.2,498.3 					"/>
				</g>
				<g>
					<polygon class="st9" points="1508.7,542.4 1514.7,542.4 1113.2,432.7 1133.7,427.3 953,381.8 950.9,381.8 1129.8,427.1 
						1109.2,432.5 					"/>
				</g>
				<g>
					<polygon class="st9" points="1984.3,543 1990.4,543 1089.7,381.9 1087.6,381.9 					"/>
				</g>
				<g>
					<polygon class="st9" points="1299.9,543 1305.9,543 854.8,381.9 852.8,381.9 					"/>
				</g>
				<g>
					<polygon class="st9" points="1088.7,543 1094.7,543 931.7,458.9 869.5,451.3 756.4,381.9 754.3,381.9 866.1,451.6 928.3,459.2 
											"/>
				</g>
				<g>
					<polygon class="st9" points="730,543 736,543 714.5,497.9 650.7,486.3 633.3,381.9 631.2,381.9 646.1,486.7 709.8,498.3 					
						"/>
				</g>
				<g>
					<polygon class="st9" points="399.5,542.4 405.5,542.4 501.3,432.7 546,427.3 571.7,381.8 569.7,381.8 542.9,427.1 498.1,432.5 
											"/>
				</g>
				<g>
					<polygon class="st9" points="872.2,543 878.3,543 708.1,381.9 706,381.9 					"/>
				</g>
				<g>
					<polygon class="st9" points="187.7,543 193.8,543 473.2,381.9 471.1,381.9 					"/>
				</g>
				<g>
					<polygon class="st9" points="2200.8,543 2206.9,543 1662.7,458.9 1566.1,451.3 1138,381.9 1135.9,381.9 1563.7,451.6 
						1660.4,459.2 					"/>
				</g>
				<g>
					<polygon class="st9" points="1842.1,543 1848.2,543 1622.1,497.9 1505.8,486.3 1014.9,381.9 1012.8,381.9 1502.8,486.7 
						1619.2,498.3 					"/>
				</g>
				<g>
					<polygon class="st9" points="1508.7,542.4 1514.7,542.4 1113.2,432.7 1133.7,427.3 953,381.8 950.9,381.8 1129.8,427.1 
						1109.2,432.5 					"/>
				</g>
				<g>
					<polygon class="st9" points="1984.3,543 1990.4,543 1089.7,381.9 1087.6,381.9 					"/>
				</g>
				<g>
					<polygon class="st9" points="1299.9,543 1305.9,543 854.8,381.9 852.8,381.9 					"/>
				</g>
				<g>
					<polygon class="st9" points="1088.7,543 1094.7,543 931.7,458.9 869.5,451.3 756.4,381.9 754.3,381.9 866.1,451.6 928.3,459.2 
											"/>
				</g>
				<g>
					<polygon class="st9" points="730,543 736,543 714.5,497.9 650.7,486.3 633.3,381.9 631.2,381.9 646.1,486.7 709.8,498.3 					
						"/>
				</g>
				<g>
					<polygon class="st9" points="399.5,542.4 405.5,542.4 501.3,432.7 546,427.3 571.7,381.8 569.7,381.8 542.9,427.1 498.1,432.5 
											"/>
				</g>
				<g>
					<polygon class="st9" points="872.2,543 878.3,543 708.1,381.9 706,381.9 					"/>
				</g>
				<g>
					<polygon class="st9" points="187.7,543 193.8,543 473.2,381.9 471.1,381.9 					"/>
				</g>
				<g>
					<polygon class="st9" points="1842.1,543 1848.2,543 1622.1,497.9 1505.8,486.3 1014.9,381.9 1012.8,381.9 1502.8,486.7 
						1619.2,498.3 					"/>
				</g>
				<g>
					<polygon class="st9" points="1508.7,542.4 1514.7,542.4 1113.2,432.7 1133.7,427.3 953,381.8 950.9,381.8 1129.8,427.1 
						1109.2,432.5 					"/>
				</g>
				<g>
					<polygon class="st9" points="1984.3,543 1990.4,543 1089.7,381.9 1087.6,381.9 					"/>
				</g>
				<g>
					<polygon class="st9" points="1299.9,543 1305.9,543 854.8,381.9 852.8,381.9 					"/>
				</g>
				<g>
					<polygon class="st9" points="1088.7,543 1094.7,543 931.7,458.9 869.5,451.3 756.4,381.9 754.3,381.9 866.1,451.6 928.3,459.2 
											"/>
				</g>
				<g>
					<polygon class="st9" points="730,543 736,543 714.5,497.9 650.7,486.3 633.3,381.9 631.2,381.9 646.1,486.7 709.8,498.3 					
						"/>
				</g>
				<g>
					<polygon class="st9" points="399.5,542.4 405.5,542.4 501.3,432.7 546,427.3 571.7,381.8 569.7,381.8 542.9,427.1 498.1,432.5 
											"/>
				</g>
				<g>
					<polygon class="st9" points="872.2,543 878.3,543 708.1,381.9 706,381.9 					"/>
				</g>
				<g>
					<polygon class="st9" points="187.7,543 193.8,543 473.2,381.9 471.1,381.9 					"/>
				</g>
				<g>
					<polygon class="st9" points="2289.5,537 2295.6,537 1751.4,452.9 1654.8,445.3 1226.7,375.9 1224.6,375.9 1652.5,445.6 
						1749.2,453.2 					"/>
				</g>
				<g>
					<polygon class="st9" points="1842.1,543 1848.2,543 1622.1,497.9 1505.8,486.3 1014.9,381.9 1012.8,381.9 1502.8,486.7 
						1619.2,498.3 					"/>
				</g>
				<g>
					<polygon class="st9" points="1508.7,542.4 1514.7,542.4 1113.2,432.7 1133.7,427.3 953,381.8 950.9,381.8 1129.8,427.1 
						1109.2,432.5 					"/>
				</g>
				<g>
					<polygon class="st9" points="1984.3,543 1990.4,543 1089.7,381.9 1087.6,381.9 					"/>
				</g>
				<g>
					<polygon class="st9" points="1299.9,543 1305.9,543 854.8,381.9 852.8,381.9 					"/>
				</g>
				<g>
					<polygon class="st9" points="1088.7,543 1094.7,543 931.7,458.9 869.5,451.3 756.4,381.9 754.3,381.9 866.1,451.6 928.3,459.2 
											"/>
				</g>
				<g>
					<polygon class="st9" points="730,543 736,543 714.5,497.9 650.7,486.3 633.3,381.9 631.2,381.9 646.1,486.7 709.8,498.3 					
						"/>
				</g>
				<g>
					<polygon class="st9" points="399.5,542.4 405.5,542.4 501.3,432.7 546,427.3 571.7,381.8 569.7,381.8 542.9,427.1 498.1,432.5 
											"/>
				</g>
				<g>
					<polygon class="st9" points="872.2,543 878.3,543 708.1,381.9 706,381.9 					"/>
				</g>
				<g>
					<polygon class="st9" points="1.4,543 7.5,543 120,497.9 90.6,486.3 383.3,381.9 381.2,381.9 84.9,486.7 114,498.3 					"/>
				</g>
				<g>
					<polygon class="st9" points="-327.1,542.4 -321.1,542.4 100.5,432.7 161.1,427.3 322,381.8 319.9,381.8 158.5,427.1 
						97.8,432.5 					"/>
				</g>
				<g>
					<polygon class="st9" points="-540.8,543 -534.8,543 223.2,381.9 221.1,381.9 					"/>
				</g>
				<g>
					<polygon class="st9" points="-752,543 -746,543 -278.1,458.9 -283.3,451.3 124.7,381.9 122.6,381.9 -288.5,451.6 -283.5,459.2 
											"/>
				</g>
				<g>
					<polygon class="st9" points="1.4,543 7.5,543 120,497.9 90.6,486.3 383.3,381.9 381.2,381.9 84.9,486.7 114,498.3 					"/>
				</g>
				<g>
					<polygon class="st9" points="-327.1,542.4 -321.1,542.4 100.5,432.7 161.1,427.3 322,381.8 319.9,381.8 158.5,427.1 
						97.8,432.5 					"/>
				</g>
				<g>
					<polygon class="st9" points="-540.8,543 -534.8,543 223.2,381.9 221.1,381.9 					"/>
				</g>
				<g>
					<polygon class="st9" points="-752,543 -746,543 -278.1,458.9 -283.3,451.3 124.7,381.9 122.6,381.9 -288.5,451.6 -283.5,459.2 
											"/>
				</g>
				<g>
					<polygon class="st9" points="1.4,543 7.5,543 120,497.9 90.6,486.3 383.3,381.9 381.2,381.9 84.9,486.7 114,498.3 					"/>
				</g>
				<g>
					<polygon class="st9" points="-327.1,542.4 -321.1,542.4 100.5,432.7 161.1,427.3 322,381.8 319.9,381.8 158.5,427.1 
						97.8,432.5 					"/>
				</g>
				<g>
					<polygon class="st9" points="-540.8,543 -534.8,543 223.2,381.9 221.1,381.9 					"/>
				</g>
				<g>
					<polygon class="st9" points="-752,543 -746,543 -278.1,458.9 -283.3,451.3 124.7,381.9 122.6,381.9 -288.5,451.6 -283.5,459.2 
											"/>
				</g>
				<g>
					<polygon class="st9" points="1.4,543 7.5,543 120,497.9 90.6,486.3 383.3,381.9 381.2,381.9 84.9,486.7 114,498.3 					"/>
				</g>
				<g>
					<polygon class="st9" points="-327.1,542.4 -321.1,542.4 100.5,432.7 161.1,427.3 322,381.8 319.9,381.8 158.5,427.1 
						97.8,432.5 					"/>
				</g>
				<g>
					<polygon class="st9" points="-540.8,543 -534.8,543 223.2,381.9 221.1,381.9 					"/>
				</g>
				<g>
					<polygon class="st9" points="-752,543 -746,543 -278.1,458.9 -283.3,451.3 124.7,381.9 122.6,381.9 -288.5,451.6 -283.5,459.2 
											"/>
				</g>
				<g>
					<polygon class="st9" points="-1083.1,534.5 -1077,534.5 -38.1,373.3 -40.2,373.3 					"/>
				</g>
				<g>
					<polygon class="st9" points="187.7,543 193.8,543 473.2,381.9 471.1,381.9 					"/>
				</g>
			</g>
		</g>
	</g>
</g>
</svg>
