<?xml version="1.0" encoding="utf-8"?>
<!-- Generator: Adobe Illustrator 26.0.0, SVG Export Plug-In . SVG Version: 6.00 Build 0)  -->
<svg version="1.1" xmlns="http://www.w3.org/2000/svg" xmlns:xlink="http://www.w3.org/1999/xlink" x="0px" y="0px"
	 viewBox="0 0 125.97 106.89" style="enable-background:new 0 0 125.97 106.89;" xml:space="preserve">
<style type="text/css">
	.st0{fill:#F7F7F7;}
	.st1{opacity:0.3;fill:url(#SVGID_1_);}
	.st2{fill:#0070FC;}
	.st3{fill:#FCFCFC;}
	.st4{fill:#FFFFFF;}
</style>
<g id="BACKGROUND">
	<rect id="XMLID_232_" x="430.44" y="176.54" class="st0" width="500" height="500"/>
</g>
<g id="OBJECTS">
	
		<radialGradient id="SVGID_1_" cx="680.4449" cy="541.2085" r="88.327" gradientTransform="matrix(1 0 0 0.0897 0 453.3674)" gradientUnits="userSpaceOnUse">
		<stop  offset="5.800000e-07" style="stop-color:#606060"/>
		<stop  offset="0.9997" style="stop-color:#EAEDEE;stop-opacity:0"/>
	</radialGradient>
	<ellipse class="st1" cx="680.44" cy="501.91" rx="124.76" ry="10.99"/>
	<rect x="-120.39" y="-78.6" class="st2" width="30.23" height="30.23"/>
	<g>
		<g>
			<path class="st3" d="M64.92,96.46c-0.27-0.87-0.68-1.68-1.21-2.39c-1.48-2-3.84-3.27-6.46-3.27c-0.26,0-0.51,0.01-0.77,0.04
				c-0.67,0.06-1.3,0.22-1.91,0.43c-0.86,0.3-1.66,0.74-2.35,1.3c-0.58,0.47-1.1,1.01-1.53,1.62c-1.08,1.52-1.65,3.42-1.46,5.42
				c0.4,4.16,3.9,7.28,8,7.28c0.26,0,0.51-0.01,0.77-0.04c4.23-0.4,7.37-4.01,7.27-8.19c0-0.19-0.01-0.38-0.03-0.58
				C65.2,97.52,65.08,96.98,64.92,96.46z"/>
			<path class="st3" d="M107.64,88.3c-0.59-0.48-1.25-0.88-1.97-1.18c-0.88-0.37-1.84-0.59-2.84-0.62c-0.09,0-0.18-0.01-0.27-0.01
				c-0.26,0-0.51,0.01-0.77,0.04c-2.69,0.26-4.94,1.82-6.2,3.99c-0.48,0.84-0.82,1.77-0.97,2.75c-0.1,0.66-0.14,1.33-0.07,2.02
				c0.01,0.09,0.03,0.17,0.04,0.26c0.51,4.03,3.95,7.02,7.96,7.02c0.26,0,0.51-0.01,0.77-0.04c4.42-0.42,7.66-4.35,7.24-8.77
				C110.35,91.54,109.24,89.62,107.64,88.3z"/>
			<path class="st3" d="M35.32,47.1l-1.4-14.69c-0.68-7.12-6.69-12.47-13.7-12.47c-0.44,0-0.88,0.02-1.32,0.06L5.75,21.26
				c-3.49,0.33-6.05,3.43-5.72,6.92c0.31,3.29,3.08,5.75,6.31,5.75c0.2,0,0.41-0.01,0.61-0.03l13.15-1.25c0.03,0,0.07,0,0.1,0
				c0.55,0,1.02,0.42,1.07,0.98l1.4,14.69c0.26,2.72,0.73,5.37,1.39,7.94c0.76-0.78,1.73-1.39,2.83-1.73l9.14-2.82
				C35.71,50.2,35.47,48.67,35.32,47.1z"/>
			<path class="st3" d="M125.73,38.49l-0.72-7.61c-0.31-3.29-3.08-5.75-6.31-5.75c-0.2,0-0.4,0.01-0.61,0.03
				c-3.49,0.33-6.05,3.43-5.72,6.92l0.72,7.61c0.1,1.09,0.15,2.17,0.16,3.24c0.17,13.44-6.59,25.63-17.18,32.81
				c-5.24,3.56-11.42,5.89-18.17,6.53c-1.26,0.12-2.5,0.18-3.73,0.18c-4.92,0-9.67-0.93-14.06-2.64c-4.18-1.62-8.03-3.96-11.39-6.86
				l-1.07,3.09c-0.95,2.73-3.44,4.5-6.33,4.5c-2.78,0-5.24-1.68-6.25-4.27l-2.28-5.85l-3.86-1.96c4.87,8.76,12.19,15.89,20.94,20.57
				c1.79-1.35,3.92-2.2,6.21-2.42c0.39-0.04,0.78-0.06,1.17-0.06h0c5.37,0,9.94,3.42,11.6,8.3c1.75,0.18,3.52,0.28,5.31,0.28
				c1.64,0,3.29-0.08,4.95-0.24c3.94-0.38,7.73-1.2,11.34-2.39c0.35-2.12,1.24-4.12,2.64-5.81c2.09-2.53,5.04-4.09,8.3-4.4
				c0.39-0.04,0.78-0.06,1.17-0.06h0c1.67,0,3.25,0.34,4.7,0.93C119.97,72.61,127.41,56.15,125.73,38.49z"/>
		</g>
		<g>
			<path class="st4" d="M108.74,38.69c-2.24-1.52-4.89-2.69-7.9-3.48c6.72-4.2,9.79-10.5,9.11-17.67
				C108.84,5.85,98.11-1.7,76.82,0.33L49.45,2.94c-7.67,0.73-13.29,7.54-12.56,15.2l2.94,30.87c0.08,0.48,0.17,0.96,0.26,1.43
				l5.78-1.78c0.65-0.2,1.32-0.3,1.99-0.3c2.16,0,4.19,1.06,5.46,2.83c1.27,1.79,1.58,4,0.86,6.08l-3.96,11.37
				c0.2,0.19,0.4,0.39,0.61,0.58c6.43,5.81,14.72,9.02,23.32,9.02c1.11,0,2.23-0.05,3.33-0.16c9.24-0.88,17.6-5.32,23.54-12.5
				c5.93-7.18,8.71-16.23,7.83-25.47L108.74,38.69z M62.9,20.02l12.13-1.16c5.84-0.56,8.68,1.18,9.04,4.93
				c0.36,3.75-2.1,5.99-7.95,6.54l-12.13,1.16L62.9,20.02z M82.44,59.33l-15.66,1.49l-1.16-12.13l15.66-1.49
				c5.73-0.55,8.8,1.28,9.18,5.25C90.85,56.42,88.18,58.79,82.44,59.33z"/>
			<path class="st4" d="M47.88,52.18c-0.28,0-0.57,0.04-0.86,0.13l-18.99,5.86c-2.47,0.76-2.76,4.14-0.45,5.31l7.28,3.69
				c0.63,0.32,1.12,0.86,1.38,1.52l2.41,6.19c0.48,1.23,1.58,1.83,2.68,1.83c1.14,0,2.27-0.65,2.72-1.93l6.54-18.79
				C51.25,54.07,49.76,52.18,47.88,52.18z"/>
		</g>
	</g>
</g>
<g id="TEXTS">
	<text transform="matrix(1 0 0 1 550.4969 560.3497)"><tspan x="0" y="0" style="fill:#003159; font-family:'Montserrat-ExtraBold'; font-size:46px;">Book</tspan><tspan x="128.57" y="0" style="fill:#048ED6; font-family:'Montserrat-ExtraBold'; font-size:46px;">Store</tspan></text>
	<text transform="matrix(1 0 0 1 628.3342 582.887)" style="fill:#048ED6; font-family:'OpenSans-BoldItalic'; font-size:20px;">Slogan Here</text>
</g>
</svg>
