<?xml version="1.0" encoding="utf-8"?>
<!-- Generator: Adobe Illustrator 26.0.0, SVG Export Plug-In . SVG Version: 6.00 Build 0)  -->
<svg version="1.1" id="Layer_1" xmlns="http://www.w3.org/2000/svg" xmlns:xlink="http://www.w3.org/1999/xlink" x="0px" y="0px"
	 viewBox="0 0 200.5 277.2" style="enable-background:new 0 0 200.5 277.2;" xml:space="preserve">
<style type="text/css">
	.st0{fill:#FFFFFF;}
	.st1{enable-background:new    ;}
	.st2{fill:#FACE2F;}
	.st3{clip-path:url(#SVGID_00000152236322598866540840000007417165858140115602_);fill:#221B4C;}
	.st4{clip-path:url(#SVGID_00000140734896783785805550000016920675080080474797_);fill:#9155DF;}
	.st5{clip-path:url(#SVGID_00000080208351447732649250000006693940239817271484_);fill:#FFFFFF;}
	.st6{clip-path:url(#SVGID_00000125561928872993356740000011863549542034644140_);fill:#00BDE3;}
	.st7{fill:#E39824;}
	.st8{fill:#EAB626;}
	.st9{clip-path:url(#SVGID_00000106131348038228071420000007174369469268988077_);fill:#FFF6D2;}
	.st10{clip-path:url(#SVGID_00000034059771776243100090000016417062415746643635_);fill:#FFF6D2;}
	.st11{clip-path:url(#SVGID_00000098912352837665035070000014517096778779043258_);fill:#FFF6D2;}
	.st12{fill:#F6CB2E;}
	.st13{clip-path:url(#SVGID_00000078024440869842843330000016777887842739531193_);}
	.st14{clip-path:url(#SVGID_00000128475038217830590520000011404779153340374438_);}
	
		.st15{opacity:0.46;clip-path:url(#SVGID_00000057125559675397030250000000932558066470804122_);fill:#FFEFB0;enable-background:new    ;}
	.st16{fill:#4E298A;}
	.st17{fill:#007EC9;}
	.st18{clip-path:url(#SVGID_00000000182792557871164630000002324860531945940880_);fill:#9155DF;}
	.st19{clip-path:url(#SVGID_00000147900242691493412420000006484222854771740073_);fill:#FFFFFF;}
	
		.st20{opacity:0.3;clip-path:url(#SVGID_00000104692280783440482340000015189976824618584451_);fill:#9155DF;enable-background:new    ;}
	
		.st21{opacity:0.3;clip-path:url(#SVGID_00000121962328675340729360000011675135704653815714_);fill:#9155DF;enable-background:new    ;}
	.st22{clip-path:url(#SVGID_00000181791311570430374150000017076711962460052918_);fill:#9155DF;}
	.st23{clip-path:url(#SVGID_00000037660393013701836110000009055763655983009928_);fill:#FFFFFF;}
	
		.st24{opacity:0.3;clip-path:url(#SVGID_00000181780499704451178900000003623411876485514418_);fill:#9155DF;enable-background:new    ;}
	
		.st25{opacity:0.3;clip-path:url(#SVGID_00000164473317776192313080000013929752168602969533_);fill:#9155DF;enable-background:new    ;}
	.st26{fill:#221B4C;}
	.st27{clip-path:url(#SVGID_00000006692279025253063030000013459565764243392671_);fill:#FF9874;}
	.st28{clip-path:url(#SVGID_00000044142596456940037930000018435192173374478737_);fill:#FF9874;}
	.st29{fill:#FF9874;}
	.st30{fill:#EC63E3;}
	.st31{fill:#4C37AC;}
	.st32{clip-path:url(#SVGID_00000105385641566110176320000009440997125510958243_);fill:#892A1C;}
	.st33{clip-path:url(#SVGID_00000042704146660941363340000016114386506783689090_);fill:#3A0C06;}
	.st34{clip-path:url(#SVGID_00000125569985775291129220000008103066953670845319_);fill:#FFFFFF;}
	.st35{clip-path:url(#SVGID_00000091697879801053455620000009041131368186458297_);}
	.st36{fill:#892A1C;}
	.st37{clip-path:url(#SVGID_00000150102956884918882300000011985096664559038858_);fill:#3A0C06;}
	.st38{clip-path:url(#SVGID_00000007396474723398188920000008928075287936944291_);fill:#FFFFFF;}
	.st39{clip-path:url(#SVGID_00000072973609279800476660000000165473011381067678_);fill:#E85A57;}
	.st40{clip-path:url(#SVGID_00000054954639844602262300000014357106647244627090_);fill:#FFFFFF;}
	.st41{fill:#E66A54;}
	.st42{fill:#3A0C06;}
	.st43{fill:#00BDE3;}
	.st44{clip-path:url(#SVGID_00000084523874372374313920000007557650701904055983_);fill:#007EC9;}
	.st45{clip-path:url(#SVGID_00000031191690203859986970000008915777765865186182_);fill:#007EC9;}
	.st46{clip-path:url(#SVGID_00000154418174478513208070000006846018838854605728_);fill:#221B4C;}
	.st47{clip-path:url(#SVGID_00000127021008018612513730000015672988204505872823_);fill:#221B4C;}
</style>
<g>
	<g>
		<path class="st0" d="M154.8,107.1c0.3,0,0.6-0.3,0.6-0.6V94.6c0-0.3-0.3-0.6-0.6-0.6s-0.6,0.3-0.6,0.6v11.8
			C154.1,106.8,154.4,107.1,154.8,107.1z"/>
	</g>
	<g>
		<path class="st0" d="M157.2,107.1c0.3,0,0.6-0.3,0.6-0.6v-5.9c0-0.3-0.3-0.6-0.6-0.6s-0.6,0.3-0.6,0.6v5.9
			C156.5,106.8,156.8,107.1,157.2,107.1z"/>
	</g>
	<g>
		<path class="st0" d="M159.8,107.1c0.3,0,0.6-0.3,0.6-0.6V103c0-0.3-0.3-0.6-0.6-0.6s-0.6,0.3-0.6,0.6v3.5
			C159.2,106.8,159.5,107.1,159.8,107.1z"/>
	</g>
</g>
<g>
	<g>
		<path class="st0" d="M12.1,72.1c0.3,0,0.6-0.3,0.6-0.6V59.6c0-0.3-0.3-0.6-0.6-0.6s-0.6,0.3-0.6,0.6v11.8
			C11.5,71.8,11.8,72.1,12.1,72.1z"/>
	</g>
	<g>
		<path class="st0" d="M9.7,72.1c0.3,0,0.6-0.3,0.6-0.6v-5.9c0-0.3-0.3-0.6-0.6-0.6s-0.6,0.3-0.6,0.6v5.9
			C9.1,71.8,9.4,72.1,9.7,72.1z"/>
	</g>
	<g>
		<path class="st0" d="M7,72.1c0.3,0,0.6-0.3,0.6-0.6V68c0-0.3-0.3-0.6-0.6-0.6c-0.3,0-0.6,0.3-0.6,0.6v3.5
			C6.4,71.8,6.7,72.1,7,72.1z"/>
	</g>
</g>
<g>
	<g>
		<path class="st0" d="M36.6,45.1c6.7,0,12.1-5.4,12.1-12.1s-5.4-12.1-12.1-12.1S24.5,26.3,24.5,33C24.4,39.7,29.9,45.1,36.6,45.1z
			 M36.6,21.5c6.4,0,11.5,5.2,11.5,11.5c0,6.4-5.2,11.5-11.5,11.5C30.2,44.5,25,39.4,25,33C25,26.7,30.2,21.5,36.6,21.5z"/>
	</g>
	<g>
		<path class="st0" d="M46.9,34.4c0-0.8,0.6-1.4,1.4-1.4c0.8,0,1.4,0.6,1.4,1.4s-0.6,1.4-1.4,1.4C47.6,35.7,46.9,35.1,46.9,34.4z"/>
	</g>
</g>
<g>
	<g>
		<path class="st0" d="M64.9,173.7h7.2c0.3,0,0.6-0.3,0.6-0.6s-0.3-0.6-0.6-0.6h-7.2c-0.4,0-0.7-0.1-1-0.4l-6.1-6.1
			c-0.2-0.2-0.6-0.2-0.9,0c-0.2,0.2-0.2,0.6,0,0.9L63,173C63.5,173.4,64.2,173.7,64.9,173.7z"/>
	</g>
	<g>
		<path class="st0" d="M51.6,168.2c1.7,0,3.1-1.4,3.1-3.1c0-1.7-1.4-3.1-3.1-3.1c-1.7,0-3.1,1.4-3.1,3.1h1.3c0-1,0.8-1.8,1.8-1.8
			s1.8,0.8,1.8,1.8s-0.8,1.8-1.8,1.8V168.2z"/>
	</g>
	<g>
		<path class="st0" d="M51.6,176.1c1.7,0,3.1-1.4,3.1-3.1c0-1.7-1.4-3.1-3.1-3.1c-1.7,0-3.1,1.4-3.1,3.1h1.3c0-1,0.8-1.8,1.8-1.8
			s1.8,0.8,1.8,1.8s-0.8,1.8-1.8,1.8V176.1z"/>
	</g>
</g>
<g>
	<path class="st0" d="M3,137v6.9H1.4v-5.6H0V137H3z"/>
	<path class="st0" d="M5.6,143.5c-0.4-0.3-0.8-0.7-1-1.2c-0.3-0.5-0.4-1.2-0.4-1.9s0.1-1.4,0.4-1.9s0.6-0.9,1-1.2s1-0.4,1.5-0.4
		c0.6,0,1.1,0.1,1.5,0.4c0.4,0.3,0.8,0.7,1,1.2c0.3,0.5,0.4,1.2,0.4,1.9s-0.1,1.4-0.4,1.9c-0.3,0.5-0.6,0.9-1,1.2s-1,0.4-1.5,0.4
		C6.5,144,6,143.8,5.6,143.5z M8.1,142.1c0.2-0.4,0.4-0.9,0.4-1.7s-0.1-1.3-0.4-1.7c-0.2-0.4-0.6-0.5-1-0.5s-0.7,0.2-1,0.5
		c-0.2,0.4-0.4,0.9-0.4,1.7s0.1,1.3,0.4,1.7c0.2,0.4,0.6,0.5,1,0.5C7.5,142.6,7.9,142.4,8.1,142.1z"/>
	<path class="st0" d="M12.3,143.5c-0.4-0.3-0.8-0.7-1-1.2c-0.3-0.5-0.4-1.2-0.4-1.9s0.1-1.4,0.4-1.9c0.3-0.5,0.6-0.9,1-1.2
		s1-0.4,1.5-0.4c0.6,0,1.1,0.1,1.5,0.4c0.4,0.3,0.8,0.7,1,1.2c0.3,0.5,0.4,1.2,0.4,1.9s-0.1,1.4-0.4,1.9c-0.3,0.5-0.6,0.9-1,1.2
		s-1,0.4-1.5,0.4C13.2,144,12.7,143.8,12.3,143.5z M14.8,142.1c0.2-0.4,0.4-0.9,0.4-1.7s-0.1-1.3-0.4-1.7c-0.2-0.4-0.6-0.5-1-0.5
		s-0.7,0.2-1,0.5c-0.2,0.4-0.4,0.9-0.4,1.7s0.1,1.3,0.4,1.7c0.2,0.4,0.6,0.5,1,0.5S14.5,142.4,14.8,142.1z"/>
	<path class="st0" d="M17.9,140.2c-0.3-0.3-0.5-0.8-0.5-1.4c0-0.6,0.2-1,0.5-1.4c0.3-0.3,0.7-0.5,1.2-0.5s0.9,0.2,1.2,0.5
		c0.3,0.3,0.5,0.8,0.5,1.4c0,0.6-0.2,1-0.5,1.4c-0.3,0.3-0.7,0.5-1.2,0.5S18.2,140.5,17.9,140.2z M19.6,139.6
		c0.1-0.2,0.2-0.5,0.2-0.8c0-0.4-0.1-0.6-0.2-0.8s-0.3-0.3-0.5-0.3s-0.4,0.1-0.5,0.3s-0.2,0.5-0.2,0.8c0,0.4,0.1,0.6,0.2,0.8
		s0.3,0.3,0.5,0.3C19.3,139.9,19.5,139.8,19.6,139.6z M23.2,137h1.2l-4.7,6.9h-1.2L23.2,137z M22.9,143.7c-0.3-0.2-0.5-0.4-0.6-0.7
		s-0.2-0.6-0.2-1s0.1-0.7,0.2-1s0.3-0.5,0.6-0.7c0.3-0.2,0.6-0.2,0.9-0.2c0.5,0,0.9,0.2,1.2,0.5c0.3,0.3,0.5,0.8,0.5,1.4
		c0,0.6-0.2,1-0.5,1.4c-0.3,0.3-0.7,0.5-1.2,0.5C23.4,143.9,23.2,143.8,22.9,143.7z M24.3,142.8c0.1-0.2,0.2-0.5,0.2-0.8
		c0-0.4-0.1-0.6-0.2-0.8s-0.3-0.3-0.5-0.3s-0.4,0.1-0.5,0.3s-0.2,0.5-0.2,0.8c0,0.4,0.1,0.6,0.2,0.8s0.3,0.3,0.5,0.3
		S24.2,143,24.3,142.8z"/>
</g>
<g>
	<g class="st1">
		<g>
			<g>
				<g>
					<polygon id="XMLID_00000144295630328754518650000011593410888098474634_" class="st2" points="59.9,190.2 79.1,226.6 53,231.8 
						33.8,195.5 					"/>
				</g>
			</g>
		</g>
		<g>
			<g>
				<g>
					<polygon id="XMLID_00000160869128767297562520000004916277178538707885_" class="st0" points="58.4,196.3 72.4,223 54.5,226.6 
						40.5,199.9 					"/>
				</g>
				<g>
					<defs>
						<polygon id="SVGID_1_" points="58.4,196.3 72.4,223 54.5,226.6 40.5,199.9 						"/>
					</defs>
					<clipPath id="SVGID_00000023978407600295462530000015353434858974529666_">
						<use xlink:href="#SVGID_1_"  style="overflow:visible;"/>
					</clipPath>
					<path style="clip-path:url(#SVGID_00000023978407600295462530000015353434858974529666_);fill:#221B4C;" d="M29.5,209.4
						c0,0,5.8,8.7,14.5,9.6c8.7,0.9,6.2,7,9.5,8.7c3.4,1.7,11.1-2.4,12,2.3c1,4.7,9.6,0.1,9.6-0.4s-7.3-21.5-7.3-21.5L43,200.7
						l-16,7.9L29.5,209.4z"/>
				</g>
				<g>
					<defs>
						<polygon id="SVGID_00000173160559416846209550000016689493275538759559_" points="58.4,196.3 72.4,223 54.5,226.6 40.5,199.9 
													"/>
					</defs>
					<clipPath id="SVGID_00000164486902509209791290000003401111264434042543_">
						<use xlink:href="#SVGID_00000173160559416846209550000016689493275538759559_"  style="overflow:visible;"/>
					</clipPath>
					<path style="clip-path:url(#SVGID_00000164486902509209791290000003401111264434042543_);fill:#9155DF;" d="M31.4,202
						c0,0,5.8,8.7,14.5,9.6c8.7,0.9,6.2,7,9.5,8.7c3.4,1.7,11.1-2.4,12,2.3c1,4.7,9.6,0.1,9.6-0.4s-7.3-21.5-7.3-21.5l-24.9-7.5
						l-16,7.9L31.4,202z"/>
				</g>
				<g>
					<defs>
						<polygon id="SVGID_00000072983227972908756420000005906287136868766622_" points="58.4,196.3 72.4,223 54.5,226.6 40.5,199.9 
													"/>
					</defs>
					<clipPath id="SVGID_00000163030517511555804710000007870129221920856459_">
						<use xlink:href="#SVGID_00000072983227972908756420000005906287136868766622_"  style="overflow:visible;"/>
					</clipPath>
					<path style="clip-path:url(#SVGID_00000163030517511555804710000007870129221920856459_);fill:#FFFFFF;" d="M41.8,190.2
						c0,0,1.9,14.4,14.6,12.4"/>
				</g>
				<g>
					<defs>
						<polygon id="SVGID_00000044875823868776259580000004902896506919447948_" points="58.4,196.3 72.4,223 54.5,226.6 40.5,199.9 
													"/>
					</defs>
					<clipPath id="SVGID_00000074431229205959967680000011759123423390575763_">
						<use xlink:href="#SVGID_00000044875823868776259580000004902896506919447948_"  style="overflow:visible;"/>
					</clipPath>
					<path style="clip-path:url(#SVGID_00000074431229205959967680000011759123423390575763_);fill:#00BDE3;" d="M36.3,196.3
						c0,0,5.8,8.7,14.5,9.6c8.7,0.9,6.2,7,9.5,8.7c3.4,1.7,11.1-2.4,12,2.3c1,4.7,9.6,0.1,9.6-0.4S74.6,195,74.6,195l-24.9-7.5
						l-16,7.9L36.3,196.3z"/>
				</g>
			</g>
		</g>
		<g>
			<polygon class="st7" points="79.1,226.6 75.9,230.5 49.8,235.7 53,231.8 			"/>
		</g>
		<g>
			<polygon class="st8" points="53,231.8 49.8,235.7 30.6,199.4 33.8,195.5 			"/>
		</g>
	</g>
</g>
<g>
	<g>
		<path id="XMLID_00000132077869069086542060000003144395336808621190_" class="st7" d="M181,32.6c-8.4-0.5-13.9-11-12.8-18.7l0,0
			c0.4-3.3,2.2-6.7,5.4-8c-1.1,0.5-4.2,1.5-5.1,2.2c-2.4,1.6-3.7,4.4-4,7.2l0,0c-1.1,7.7,4.4,18.2,12.8,18.7c1.1,0,2.1-0.2,3-0.5
			L184,32C183.1,32.5,182.1,32.7,181,32.6z"/>
	</g>
	<g>
		<defs>
			<path id="SVGID_00000023974911468966291840000003043711458716990138_" d="M184.3,28c-8.1,2.2-16.6-6.1-18-13.7l0,0
				c-0.7-3.3,0-7.1,2.6-9.3c-0.9,0.8-3.5,2.7-4.2,3.7c-1.8,2.3-2.1,5.3-1.5,8.1l0,0c1.4,7.7,9.9,15.9,18,13.7c1-0.3,1.9-0.8,2.7-1.4
				l3-2.6C186.2,27.2,185.3,27.7,184.3,28z"/>
		</defs>
		<clipPath id="SVGID_00000137825768563283691040000009372347142324011441_">
			<use xlink:href="#SVGID_00000023974911468966291840000003043711458716990138_"  style="overflow:visible;"/>
		</clipPath>
		
			<rect x="159" y="18" transform="matrix(0.9495 -0.3139 0.3139 0.9495 2.2207 53.8293)" style="clip-path:url(#SVGID_00000137825768563283691040000009372347142324011441_);fill:#FFF6D2;" width="18.6" height="4"/>
	</g>
	<g>
		<defs>
			<path id="SVGID_00000047780472194183715940000002652777583698890647_" d="M183.2,28.9c-8.1,2.2-16.6-6.1-18-13.7l0,0
				c-0.7-3.3,0-7.1,2.6-9.3c-0.9,0.8-3.5,2.7-4.2,3.7c-1.8,2.3-2.1,5.3-1.5,8.1l0,0c1.4,7.7,9.9,15.9,18,13.7c1-0.3,1.9-0.8,2.7-1.4
				l3-2.6C185.2,28.1,184.3,28.6,183.2,28.9z"/>
		</defs>
		<clipPath id="SVGID_00000002345832247918613350000013789298247638156455_">
			<use xlink:href="#SVGID_00000047780472194183715940000002652777583698890647_"  style="overflow:visible;"/>
		</clipPath>
		
			<rect x="161.1" y="22.7" transform="matrix(0.9495 -0.3139 0.3139 0.9495 1.1712 54.702)" style="clip-path:url(#SVGID_00000002345832247918613350000013789298247638156455_);fill:#FFF6D2;" width="18.6" height="2"/>
	</g>
	<g>
		<defs>
			<path id="SVGID_00000049181640684541203690000015036487831474034846_" d="M182.6,29.3c-8.1,2.2-16.6-6.1-18-13.7l0,0
				c-0.7-3.3,0-7.1,2.6-9.3c-0.9,0.8-3.5,2.7-4.2,3.7c-1.8,2.3-2.1,5.3-1.5,8.1l0,0c1.4,7.7,9.9,15.9,18,13.7c1-0.3,1.9-0.8,2.7-1.4
				l3-2.6C184.6,28.5,183.7,29.1,182.6,29.3z"/>
		</defs>
		<clipPath id="SVGID_00000039109708045225565750000006049069617792081282_">
			<use xlink:href="#SVGID_00000049181640684541203690000015036487831474034846_"  style="overflow:visible;"/>
		</clipPath>
		
			<rect x="162.2" y="25.6" transform="matrix(0.9495 -0.3139 0.3139 0.9495 0.5298 55.1373)" style="clip-path:url(#SVGID_00000039109708045225565750000006049069617792081282_);fill:#FFF6D2;" width="18.6" height="0.6"/>
	</g>
</g>
<g>
	<path id="XMLID_00000148653662118849183220000000251477321519378328_" class="st12" d="M176.6,5.5c5.8,0.1,11.5,6.3,12.7,13.8
		s-2.5,13.5-8.3,13.4s-11.5-6.3-12.7-13.8C167.1,11.3,170.8,5.4,176.6,5.5z"/>
</g>
<g>
	<defs>
		<path id="SVGID_00000103947811633565332030000008516022782453480584_" d="M176.6,5.5c5.8,0.1,11.5,6.3,12.7,13.8
			s-2.5,13.5-8.3,13.4s-11.5-6.3-12.7-13.8C167.1,11.3,170.8,5.4,176.6,5.5z"/>
	</defs>
	<clipPath id="SVGID_00000069380426032301837910000008517801269696546718_">
		<use xlink:href="#SVGID_00000103947811633565332030000008516022782453480584_"  style="overflow:visible;"/>
	</clipPath>
	<g style="clip-path:url(#SVGID_00000069380426032301837910000008517801269696546718_);">
		<path class="st7" d="M177.2,9.5c4.1,0.1,8.1,4.4,9,9.7s-1.7,9.5-5.8,9.4s-8.1-4.4-9-9.7C170.5,13.6,173.1,9.4,177.2,9.5z"/>
	</g>
</g>
<g>
	<defs>
		<path id="SVGID_00000136385203998175292570000002607458459586743944_" d="M176.6,5.5c5.8,0.1,11.5,6.3,12.7,13.8
			s-2.5,13.5-8.3,13.4s-11.5-6.3-12.7-13.8C167.1,11.3,170.8,5.4,176.6,5.5z"/>
	</defs>
	<clipPath id="SVGID_00000181806736430597586780000017991607976755249842_">
		<use xlink:href="#SVGID_00000136385203998175292570000002607458459586743944_"  style="overflow:visible;"/>
	</clipPath>
	<g style="clip-path:url(#SVGID_00000181806736430597586780000017991607976755249842_);">
		<path class="st12" d="M177.5,11.2c3.4,0.1,6.7,3.7,7.4,8c0.7,4.4-1.4,7.8-4.8,7.8c-3.4-0.1-6.7-3.7-7.4-8
			C172,14.6,174.1,11.1,177.5,11.2z"/>
	</g>
</g>
<g>
	<defs>
		<path id="SVGID_00000177460143543259627090000002515865625258045341_" d="M185.1,5.4c4.8,3.2,6.3,11.5,3.2,18.5s-9.4,10-14.2,6.8
			s-6.3-11.5-3.2-18.5C174,5.2,180.3,2.2,185.1,5.4z"/>
	</defs>
	<clipPath id="SVGID_00000100345792578712522590000007508292482081608876_">
		<use xlink:href="#SVGID_00000177460143543259627090000002515865625258045341_"  style="overflow:visible;"/>
	</clipPath>
	
		<rect x="180" y="1.4" transform="matrix(0.5396 -0.8419 0.8419 0.5396 66.4572 161.6363)" style="opacity:0.46;clip-path:url(#SVGID_00000100345792578712522590000007508292482081608876_);fill:#FFEFB0;enable-background:new    ;" width="2.1" height="37.3"/>
</g>
<g>
	<path class="st16" d="M82.4,123.1c0,0-18.1,8.7-14.8,14.7c3.3,6,4.6,6.1,4.6,6.1s0.8-9.5,9.8-14.3L82.4,123.1z"/>
	<path class="st17" d="M125.4,96.8C130.8,112.6,20,128,54.6,103c6-4.3,25.2-4.3,25.2-4.3L125.4,96.8z"/>
	<g>
		<g>
			<path id="XMLID_00000110461878482475283860000005229433426879631265_" class="st2" d="M136.4,168.8c-1.1,1-10.5,5.4-10.3,10.5
				s5.2,34,15.3,37.9c8.3,3.2,16.5-5.1,11.5-12.2c-13.1-18.8-5-31.3-6.2-32.9S141.2,164.1,136.4,168.8z"/>
		</g>
		<g>
			<defs>
				<path id="SVGID_00000007421794782533501320000015096202558998450098_" d="M136.4,168.8c-1.1,1-10.5,5.4-10.3,10.5
					s5.2,34,15.3,37.9c8.3,3.2,16.5-5.1,11.5-12.2c-13.1-18.8-5-31.3-6.2-32.9S141.2,164.1,136.4,168.8z"/>
			</defs>
			<clipPath id="SVGID_00000129202394336498197880000011201082496422698381_">
				<use xlink:href="#SVGID_00000007421794782533501320000015096202558998450098_"  style="overflow:visible;"/>
			</clipPath>
			<path style="clip-path:url(#SVGID_00000129202394336498197880000011201082496422698381_);fill:#9155DF;" d="M142.6,176.1
				c0,0-13.9-2.6-20.4,4.4c-6.5,7,0,0,0,0l8.1-15.6l24.3,8.6L142.6,176.1z"/>
		</g>
		<g>
			<defs>
				<path id="SVGID_00000067926320551933307870000016302144454052242062_" d="M136.4,168.8c-1.1,1-10.5,5.4-10.3,10.5
					s5.2,34,15.3,37.9c8.3,3.2,16.5-5.1,11.5-12.2c-13.1-18.8-5-31.3-6.2-32.9S141.2,164.1,136.4,168.8z"/>
			</defs>
			<clipPath id="SVGID_00000038387164753335551940000012013067973677599383_">
				<use xlink:href="#SVGID_00000067926320551933307870000016302144454052242062_"  style="overflow:visible;"/>
			</clipPath>
			<path style="clip-path:url(#SVGID_00000038387164753335551940000012013067973677599383_);fill:#FFFFFF;" d="M148.2,217.4
				c0,0-8,1-11.9-10.9c-2.3-7.1-5.2-22.5-7.8-31.9c-2.6-9.4,2.7-8.3,5.1-9.6s-19.2-10.1-19.2-10.1l-4.8,12.9L117,203l13.4,14.6
				c0,0,12.2,3,16.2,1.1"/>
		</g>
		<g>
			<defs>
				<path id="SVGID_00000052808902010412255280000015314115619553542280_" d="M136.4,168.8c-1.1,1-10.5,5.4-10.3,10.5
					s5.2,34,15.3,37.9c8.3,3.2,16.5-5.1,11.5-12.2c-13.1-18.8-5-31.3-6.2-32.9S141.2,164.1,136.4,168.8z"/>
			</defs>
			<clipPath id="SVGID_00000143612768657366296670000009556849119355242893_">
				<use xlink:href="#SVGID_00000052808902010412255280000015314115619553542280_"  style="overflow:visible;"/>
			</clipPath>
			
				<path style="opacity:0.3;clip-path:url(#SVGID_00000143612768657366296670000009556849119355242893_);fill:#9155DF;enable-background:new    ;" d="
				M149.6,182.8c0,0-6.4,0.9-10.2,4.3c-0.6,0.5-0.8,1.3-0.7,2.1l0,0c0.3,1.4,1.7,2.1,3,1.5c2.3-1,6-2.3,9.9-1.8
				c6.4,0.7-0.6-0.8-0.6-0.8L149.6,182.8z"/>
		</g>
		<g>
			<defs>
				<path id="SVGID_00000158002441409017895080000006359910354579819171_" d="M136.4,168.8c-1.1,1-10.5,5.4-10.3,10.5
					s5.2,34,15.3,37.9c8.3,3.2,16.5-5.1,11.5-12.2c-13.1-18.8-5-31.3-6.2-32.9S141.2,164.1,136.4,168.8z"/>
			</defs>
			<clipPath id="SVGID_00000027572441932391193420000007942246579588365193_">
				<use xlink:href="#SVGID_00000158002441409017895080000006359910354579819171_"  style="overflow:visible;"/>
			</clipPath>
			
				<path style="opacity:0.3;clip-path:url(#SVGID_00000027572441932391193420000007942246579588365193_);fill:#9155DF;enable-background:new    ;" d="
				M152.1,192.7c0,0-6.4,0.9-10.2,4.3c-0.6,0.5-0.8,1.3-0.7,2.1l0,0c0.3,1.4,1.7,2.1,3,1.5c2.3-1,6-2.3,9.9-1.8
				c6.4,0.7-0.6-0.8-0.6-0.8L152.1,192.7z"/>
		</g>
	</g>
	<g>
		<g>
			<path id="XMLID_00000124157765703445328830000012598889977919789996_" class="st2" d="M122.7,223.9c2.2,0.4,10.2-2.3,13,6.7
				c1.3,4.2,5.8,21.1,11.1,26.1c5.3,4.9,8.3,17.6-2.6,20c-10.9,2.4-14.9-5.8-15-14.9s-3.7-19.2-10.4-24.3
				C112.1,232.4,114.6,222.4,122.7,223.9z"/>
		</g>
		<g>
			<defs>
				<path id="SVGID_00000155858306252038277350000007822229498572445113_" d="M122.7,223.9c2.2,0.4,10.2-2.3,13,6.7
					c1.3,4.2,5.8,21.1,11.1,26.1c5.3,4.9,8.3,17.6-2.6,20c-10.9,2.4-14.9-5.8-15-14.9s-3.7-19.2-10.4-24.3
					C112.1,232.4,114.6,222.4,122.7,223.9z"/>
			</defs>
			<clipPath id="SVGID_00000010307582641150639510000001921131932396070578_">
				<use xlink:href="#SVGID_00000155858306252038277350000007822229498572445113_"  style="overflow:visible;"/>
			</clipPath>
			<path style="clip-path:url(#SVGID_00000010307582641150639510000001921131932396070578_);fill:#9155DF;" d="M124,226.9
				c0,0,12.1,3.9,14.2,12.1c2.1,8.3,0,0,0,0l0.3-15.7l-22.8-3.6L124,226.9z"/>
		</g>
		<g>
			<defs>
				<path id="SVGID_00000056427574752693012580000007085742855084763526_" d="M122.7,223.9c2.2,0.4,10.2-2.3,13,6.7
					c1.3,4.2,5.8,21.1,11.1,26.1c5.3,4.9,8.3,17.6-2.6,20c-10.9,2.4-14.9-5.8-15-14.9s-3.7-19.2-10.4-24.3
					C112.1,232.4,114.6,222.4,122.7,223.9z"/>
			</defs>
			<clipPath id="SVGID_00000114770024797155328360000000850162445323365554_">
				<use xlink:href="#SVGID_00000056427574752693012580000007085742855084763526_"  style="overflow:visible;"/>
			</clipPath>
			<path style="clip-path:url(#SVGID_00000114770024797155328360000000850162445323365554_);fill:#FFFFFF;" d="M123.6,222.9
				c0,0,6,4.1,7.9,10.5s8.5,20.1,14.8,26.1s4.1,14.4,1.9,15.6c-2.1,1.2,5.2,4.4,5.2,4.4l4.3-11.5l-6.8-31.5l-12-13
				c0,0-8.7-1.2-12.2,0.5"/>
		</g>
		<g>
			<defs>
				<path id="SVGID_00000023280040425759391330000002319336567145080236_" d="M122.7,223.9c2.2,0.4,10.2-2.3,13,6.7
					c1.3,4.2,5.8,21.1,11.1,26.1c5.3,4.9,8.3,17.6-2.6,20c-10.9,2.4-14.9-5.8-15-14.9s-3.7-19.2-10.4-24.3
					C112.1,232.4,114.6,222.4,122.7,223.9z"/>
			</defs>
			<clipPath id="SVGID_00000152259017712435708960000012520571233988082308_">
				<use xlink:href="#SVGID_00000023280040425759391330000002319336567145080236_"  style="overflow:visible;"/>
			</clipPath>
			
				<path style="opacity:0.3;clip-path:url(#SVGID_00000152259017712435708960000012520571233988082308_);fill:#9155DF;enable-background:new    ;" d="
				M121.4,245.2c0,0,4.8-3.1,9.4-3.2c0.7,0,1.3,0.4,1.7,1l0,0c0.6,1.1,0.1,2.4-1.1,2.8c-2.2,0.7-5.4,2-7.7,4.6
				c-3.9,4.2-0.1-0.9-0.1-0.9L121.4,245.2z"/>
		</g>
		<g>
			<defs>
				<path id="SVGID_00000072240216532018445230000010915680487416154499_" d="M122.7,223.9c2.2,0.4,10.2-2.3,13,6.7
					c1.3,4.2,5.8,21.1,11.1,26.1c5.3,4.9,8.3,17.6-2.6,20c-10.9,2.4-14.9-5.8-15-14.9s-3.7-19.2-10.4-24.3
					C112.1,232.4,114.6,222.4,122.7,223.9z"/>
			</defs>
			<clipPath id="SVGID_00000009572438335220573970000014379758062286770090_">
				<use xlink:href="#SVGID_00000072240216532018445230000010915680487416154499_"  style="overflow:visible;"/>
			</clipPath>
			
				<path style="opacity:0.3;clip-path:url(#SVGID_00000009572438335220573970000014379758062286770090_);fill:#9155DF;enable-background:new    ;" d="
				M125.5,253.3c0,0,4.8-3.1,9.4-3.2c0.7,0,1.3,0.4,1.7,1l0,0c0.6,1.1,0.1,2.4-1.1,2.8c-2.2,0.7-5.4,2-7.7,4.6
				c-3.9,4.2-0.1-0.9-0.1-0.9L125.5,253.3z"/>
		</g>
	</g>
	<g>
		<g>
			<path id="XMLID_00000064345591640236316390000018250112250078829499_" class="st26" d="M76.5,107.5c0,0-4.5,40.5,19.7,68
				c0,0,21,56.9,27.6,59.6c6.6,2.7,0.4-59.6-8.8-68c-2.5-2.3-7.7-30-7.7-33.4c0.1-3.3,0.2-5.9,3.6-5.5c3.4,0.4,25.3,8.9,35.4,11.1
				c0,0-5.1,6.9-6,9.8c-0.9,2.7-4.9,25.1-3.2,26.3c1.8,1.2,35.5-35,36.7-39.9c1.1-4.8-15.9-22.7-58.8-31.1
				C114.9,104.5,98.4,112,76.5,107.5z"/>
		</g>
		<g>
			<defs>
				<path id="SVGID_00000137129404665991317560000005913140399717882784_" d="M76.5,107.5c0,0-4.5,40.5,19.7,68
					c0,0,21,56.9,27.6,59.6c6.6,2.7,0.4-59.6-8.8-68c-2.5-2.3-7.7-30-7.7-33.4c0.1-3.3,0.2-5.9,3.6-5.5c3.4,0.4,25.3,8.9,35.4,11.1
					c0,0-5.1,6.9-6,9.8c-0.9,2.7-4.9,25.1-3.2,26.3c1.8,1.2,35.5-35,36.7-39.9c1.1-4.8-15.9-22.7-58.8-31.1
					C114.9,104.5,98.4,112,76.5,107.5z"/>
			</defs>
			<clipPath id="SVGID_00000002363528824109408150000006870897553087027080_">
				<use xlink:href="#SVGID_00000137129404665991317560000005913140399717882784_"  style="overflow:visible;"/>
			</clipPath>
			<path style="clip-path:url(#SVGID_00000002363528824109408150000006870897553087027080_);fill:#FF9874;" d="M158.8,154.4
				c-4.4,4.8-14.9,8.2-19.5-0.6c-4.6-8.7,0,0,0,0l-8.7,8.5l0.9,24.7l30.8-9.8L158.8,154.4"/>
		</g>
		<g>
			<defs>
				<path id="SVGID_00000096025013807196817020000001243958875547640203_" d="M76.5,107.5c0,0-4.5,40.5,19.7,68
					c0,0,21,56.9,27.6,59.6c6.6,2.7,0.4-59.6-8.8-68c-2.5-2.3-7.7-30-7.7-33.4c0.1-3.3,0.2-5.9,3.6-5.5c3.4,0.4,25.3,8.9,35.4,11.1
					c0,0-5.1,6.9-6,9.8c-0.9,2.7-4.9,25.1-3.2,26.3c1.8,1.2,35.5-35,36.7-39.9c1.1-4.8-15.9-22.7-58.8-31.1
					C114.9,104.5,98.4,112,76.5,107.5z"/>
			</defs>
			<clipPath id="SVGID_00000076570775017589760940000009395411152906650802_">
				<use xlink:href="#SVGID_00000096025013807196817020000001243958875547640203_"  style="overflow:visible;"/>
			</clipPath>
			<path style="clip-path:url(#SVGID_00000076570775017589760940000009395411152906650802_);fill:#FF9874;" d="M125.7,206.9
				c0,0-2.4,8.8-15.1,4.7c-12.7-4.2,0,0,0,0l-4.2,2.7l18.5,29l8.2-7.1L125.7,206.9"/>
		</g>
	</g>
	<path class="st29" d="M186.8,75.6c0,0,4.9-0.7,6.7-2.1c1.9-1.4,2.2,1.6,1.3,3.7c-0.8,2.1-7.5,1.4-7.5,1.4S185.6,77.1,186.8,75.6z"
		/>
	<path class="st29" d="M45.4,128.7c0,0,3.5-3.5,4.1-5.7c0.6-2.3,2.7,0,3.3,2.1c0.6,2.2-5.2,5.6-5.2,5.6S45.4,130.7,45.4,128.7z"/>
	<path class="st29" d="M49.6,134.8c-0.1,2.1,12.3,5.7,13.8,5.6c2.7-0.1,1.5-2.6,0.6-2.8c-0.8-0.2-7-1.4-10.9-4.6
		c-0.7-0.6-1.7-0.6-2.4-0.1C50.2,133.3,49.7,133.9,49.6,134.8z"/>
	<path class="st29" d="M46.8,138.2c-0.2,2.1,13.2,6.2,14.8,6.2c2.9,0,1.6-2.6,0.7-2.8c-0.9-0.2-7.7-1.8-11.8-5.1
		c-0.6-0.5-1.5-0.6-2.2-0.2C47.6,136.6,46.9,137.2,46.8,138.2z"/>
	<path class="st29" d="M43.6,140.9c-0.6,2.1,10.9,8.1,12.3,8.4c2.7,0.5,2-2.3,1.2-2.7c-0.7-0.3-6.6-2.9-9.7-6.7
		c-0.6-0.7-1.5-1-2.3-0.6C44.5,139.6,43.8,140.1,43.6,140.9z"/>
	<path class="st29" d="M40.3,142.8c-1,1.9,7.1,9,8.3,9.4c2.2,0.8,2.3-1.9,1.7-2.4c-0.5-0.4-4.5-3.3-6.3-7.1
		c-0.5-1.1-1.9-1.5-2.9-0.8C40.8,142.1,40.5,142.4,40.3,142.8z"/>
	<path class="st30" d="M115.5,104.6c0,0-33.7,42.8-47.9,33.3l4.7,8.5c0,0,16.1,4,48.2-40.8C118.9,104.8,117.3,104.4,115.5,104.6z"/>
	<g>
		<g>
			<path id="XMLID_00000111904295886253250340000015419973476696995493_" class="st31" d="M107.3,92.9l7.7,11.6
				c-9.7,7-22.3,6.4-34,4.7L74.9,61l15.5,3.6l8.9,6.7L107.3,92.9z"/>
		</g>
	</g>
	<path class="st26" d="M65,42.3c0,0,13.1,12.4,37.1,12.2L92,67.3l-17.2-6.2C74.8,61.1,65.8,51.7,65,42.3z"/>
	<path class="st31" d="M85.4,55.1c0,0-1.7,3.9-1.4,9.6l-7.1-2.8c0,0-1-9-0.2-13.3C76.7,48.6,77.9,54.2,85.4,55.1z"/>
	<path class="st29" d="M101.8,27.5c0,0,1.7,8.1-2.8,12.8c-4.4,4.6-6.9,6.3-6.7,8.1c0.4,3.2-6.5,7.6-9.8,9.1c0,0-13.2-8-10.2-26.7
		S98.8,15.6,101.8,27.5z"/>
	<g>
		<g>
			<path id="XMLID_00000137120267513352324620000006474479327441882756_" class="st0" d="M84.1,41.7c0,0,4.3-8.7-3-10.9
				C79.4,31,75.6,39.5,84.1,41.7z"/>
		</g>
		<g>
			<defs>
				<path id="SVGID_00000059294698847598731430000017445970123486363533_" d="M84.1,41.7c0,0,4.3-8.7-3-10.9
					C79.4,31,75.6,39.5,84.1,41.7z"/>
			</defs>
			<clipPath id="SVGID_00000104682206017160832600000007586219319405401504_">
				<use xlink:href="#SVGID_00000059294698847598731430000017445970123486363533_"  style="overflow:visible;"/>
			</clipPath>
			<path style="clip-path:url(#SVGID_00000104682206017160832600000007586219319405401504_);fill:#892A1C;" d="M83.7,37.8
				c-1.1,1.8-3.2,2.6-4.6,1.7c-1.4-0.9-1.6-3.1-0.5-4.9c1.1-1.8,3.2-2.6,4.6-1.7C84.6,33.8,84.9,36,83.7,37.8z"/>
		</g>
		<g>
			<defs>
				<path id="SVGID_00000126325170867326063790000003836599594855601541_" d="M84.1,41.7c0,0,4.3-8.7-3-10.9
					C79.4,31,75.6,39.5,84.1,41.7z"/>
			</defs>
			<clipPath id="SVGID_00000023966474014284888680000012432373423262907278_">
				<use xlink:href="#SVGID_00000126325170867326063790000003836599594855601541_"  style="overflow:visible;"/>
			</clipPath>
			<path style="clip-path:url(#SVGID_00000023966474014284888680000012432373423262907278_);fill:#3A0C06;" d="M82.3,37.4
				c-0.6,1-1.8,1.4-2.5,0.9c-0.8-0.5-0.9-1.7-0.3-2.7s1.8-1.4,2.5-0.9C82.8,35.2,82.9,36.4,82.3,37.4z"/>
		</g>
		<g>
			<defs>
				<path id="SVGID_00000000909890852560452730000008802609783099008386_" d="M84.1,41.7c0,0,4.3-8.7-3-10.9
					C79.4,31,75.6,39.5,84.1,41.7z"/>
			</defs>
			<clipPath id="SVGID_00000000221999675779917770000013604875913022522514_">
				<use xlink:href="#SVGID_00000000909890852560452730000008802609783099008386_"  style="overflow:visible;"/>
			</clipPath>
			<path style="clip-path:url(#SVGID_00000000221999675779917770000013604875913022522514_);fill:#FFFFFF;" d="M82.1,38.6
				c-0.6-0.8-0.9-1.7-0.5-1.9c0.4-0.3,1.2,0.1,1.8,0.9c0.6,0.8,0.9,1.7,0.5,1.9C83.6,39.8,82.8,39.4,82.1,38.6z"/>
		</g>
	</g>
	<g>
		<g>
			<path id="XMLID_00000106850956736545900180000014019340980593234580_" class="st0" d="M88.5,44.3c0,0,3.1-7.6,8.5-5.2
				C97,39,93.8,47.7,88.5,44.3z"/>
		</g>
		<g>
			<defs>
				<path id="SVGID_00000126317906505942610450000013253256809515730110_" d="M88.5,44.3c0,0,3.1-7.6,8.5-5.2
					C97,39,93.8,47.7,88.5,44.3z"/>
			</defs>
			<clipPath id="SVGID_00000072262685172641457760000018259494239230437014_">
				<use xlink:href="#SVGID_00000126317906505942610450000013253256809515730110_"  style="overflow:visible;"/>
			</clipPath>
			<g style="clip-path:url(#SVGID_00000072262685172641457760000018259494239230437014_);">
				<g>
					
						<ellipse id="XMLID_00000083065872035582730160000015033217567301170098_" transform="matrix(0.7071 -0.7071 0.7071 0.7071 -2.79 76.6056)" class="st36" cx="91.1" cy="41.7" rx="3.2" ry="2"/>
				</g>
				<g>
					<defs>
						
							<ellipse id="SVGID_00000108278604482421761530000008234297488188320915_" transform="matrix(0.7071 -0.7071 0.7071 0.7071 -2.79 76.6056)" cx="91.1" cy="41.7" rx="3.2" ry="2"/>
					</defs>
					<clipPath id="SVGID_00000043432981483015410930000004973666285260670600_">
						<use xlink:href="#SVGID_00000108278604482421761530000008234297488188320915_"  style="overflow:visible;"/>
					</clipPath>
					<path style="clip-path:url(#SVGID_00000043432981483015410930000004973666285260670600_);fill:#3A0C06;" d="M92.1,42.5
						c-0.6,1-1.8,1.4-2.5,0.9c-0.8-0.5-0.9-1.7-0.3-2.7s1.8-1.4,2.5-0.9C92.6,40.3,92.7,41.5,92.1,42.5z"/>
				</g>
			</g>
		</g>
		<g>
			<defs>
				<path id="SVGID_00000151504402215626133630000003100669910184741252_" d="M88.5,44.3c0,0,3.1-7.6,8.5-5.2
					C97,39,93.8,47.7,88.5,44.3z"/>
			</defs>
			<clipPath id="SVGID_00000023265365054872807420000006488741416999903395_">
				<use xlink:href="#SVGID_00000151504402215626133630000003100669910184741252_"  style="overflow:visible;"/>
			</clipPath>
			<path style="clip-path:url(#SVGID_00000023265365054872807420000006488741416999903395_);fill:#FFFFFF;" d="M91.4,44
				c-0.5-0.6-0.7-1.3-0.4-1.5c0.3-0.2,0.9,0.1,1.4,0.7c0.5,0.6,0.7,1.3,0.4,1.5C92.5,44.9,91.9,44.6,91.4,44z"/>
		</g>
	</g>
	<g>
		<g>
			<path id="XMLID_00000142878811401994939320000013969537756791417781_" class="st36" d="M80.9,52.4c2.9,2.3,6.5-2.1,6.2-2.9
				c-0.3-0.8-6.1-6.7-8.4-5.6C76.5,45,79.2,51,80.9,52.4z"/>
		</g>
		<g>
			<defs>
				<path id="SVGID_00000163070029663279648980000005866835707420253873_" d="M80.9,52.4c2.9,2.3,6.5-2.1,6.2-2.9
					c-0.3-0.8-6.1-6.7-8.4-5.6C76.5,45,79.2,51,80.9,52.4z"/>
			</defs>
			<clipPath id="SVGID_00000008122983663380588770000003604156592757513142_">
				<use xlink:href="#SVGID_00000163070029663279648980000005866835707420253873_"  style="overflow:visible;"/>
			</clipPath>
			<path style="clip-path:url(#SVGID_00000008122983663380588770000003604156592757513142_);fill:#E85A57;" d="M76.7,48.4
				c0.8-1.5,3.4-1.6,5.8-0.4c2.4,1.3,3.8,3.5,3,5s-3.4,1.6-5.8,0.4C77.3,52.1,75.9,49.9,76.7,48.4z"/>
		</g>
		<g>
			<defs>
				<path id="SVGID_00000182520061897346537160000006076503626385394850_" d="M80.9,52.4c2.9,2.3,6.5-2.1,6.2-2.9
					c-0.3-0.8-6.1-6.7-8.4-5.6C76.5,45,79.2,51,80.9,52.4z"/>
			</defs>
			<clipPath id="SVGID_00000003811864464854277360000006788021748460719777_">
				<use xlink:href="#SVGID_00000182520061897346537160000006076503626385394850_"  style="overflow:visible;"/>
			</clipPath>
			<path style="clip-path:url(#SVGID_00000003811864464854277360000006788021748460719777_);fill:#FFFFFF;" d="M78,44.3L77.7,43
				l2.1-0.8l8.9,6.2l-0.9,1c-0.5,0.6-1.4,0.5-1.9-0.1c-0.6-0.8-1.6-1.9-2.9-2.8c-1.6-1-3.1-1.3-4-1.4C78.6,45.1,78.2,44.7,78,44.3z"
				/>
		</g>
	</g>
	<path class="st41" d="M84,43.9c-0.1,0.3,0.5,0.9,1.5,1.4s1.8,0.6,2,0.3S87,44.7,86,44.3C85,43.7,84.1,43.6,84,43.9z"/>
	<path class="st42" d="M79,37.4c-1-2.5-0.4-5.5,1.5-7.5c1.4,0.4,2.6,1.1,3.6,2.2c0.9,1,1.3,2.3,1.3,3.6c-0.2-0.6-0.4-1.2-0.7-1.7
		c-0.9-1.6-2.5-2.6-4.2-3.2l0.4-0.1C79.3,32.5,78.8,35,79,37.4L79,37.4z"/>
	<path class="st42" d="M91.5,40c1.3-1.9,4-2.3,6-1.2c-0.6,1.7-1.6,3.2-3,4.4c0.4-0.7,0.8-1.4,1.1-2.1c0.3-0.7,0.7-1.4,0.9-2.1
		l0.2,0.5C95,38.6,93.1,38.9,91.5,40L91.5,40z"/>
	<path class="st36" d="M78.8,29.4c2.4-3.3,6.3-2.4,7.5,1.4c0.1,0.4,0.3,0.9,0.3,1.3c-0.3-0.4-0.5-0.7-0.7-1.1
		C84,27.8,81.8,27.3,78.8,29.4L78.8,29.4z"/>
	<path class="st36" d="M99,37.2c0.9-3.6-1.7-4.4-4.7-2c-0.3,0.3-0.7,0.6-1,0.9c0.4-0.2,0.7-0.4,1.1-0.6C97.3,33.9,98.7,34.4,99,37.2
		L99,37.2z"/>
	<path class="st43" d="M65,42.3c-0.8-2.7-4.7,0-3.1,2.8c1.7,2.8,14.1,22.5,20,23.5C82,68.6,68.4,53.1,65,42.3z"/>
	<path class="st43" d="M100.2,54.1c0.5-1.5,3.5-0.5,2.5,1.1s-7.6,11.4-11,12C91.7,67.2,98.2,60.4,100.2,54.1z"/>
	<g>
		<g>
			<path id="XMLID_00000067929489812150457920000000648475843968346517_" class="st43" d="M74.8,61.1c8.3,5.4,12.7,5.9,13.7,17
				s-2,30.9-5.8,32.7s-24.8-10.2-28.2-7.8c0,0,14.9-9.5,17.1-10.1c2.2-0.5-12.5-11-12.5-11S45.4,102,34.7,97c0,0,1.8-6.9-9.5-7.4
				c0,0-3.2-6.4-2.3-10.3c0.9-3.9,18.2-14.3,18.4-15.7c0.2-1.4,3.4-12,6.2-13.6C50.3,48.4,68.5,57,74.8,61.1z"/>
		</g>
		<g>
			<defs>
				<path id="SVGID_00000005989425744509618220000007753106481953439128_" d="M74.8,61.1c8.3,5.4,12.7,5.9,13.7,17s-2,30.9-5.8,32.7
					s-24.8-10.2-28.2-7.8c0,0,14.9-9.5,17.1-10.1c2.2-0.5-12.5-11-12.5-11S45.4,102,34.7,97c0,0,1.8-6.9-9.5-7.4
					c0,0-3.2-6.4-2.3-10.3c0.9-3.9,18.2-14.3,18.4-15.7c0.2-1.4,3.4-12,6.2-13.6C50.3,48.4,68.5,57,74.8,61.1z"/>
			</defs>
			<clipPath id="SVGID_00000165936352235774168070000001126977391454858661_">
				<use xlink:href="#SVGID_00000005989425744509618220000007753106481953439128_"  style="overflow:visible;"/>
			</clipPath>
			<path style="clip-path:url(#SVGID_00000165936352235774168070000001126977391454858661_);fill:#007EC9;" d="M59.1,81.9
				c8.5-5.8,14.9-6.9,17.3-1.6c2.4,5.3-7.2,9.1-3.5,12.5c11.7,10.6-13.8,9.9-22.5,8.2C41.7,99.3,59.1,81.9,59.1,81.9"/>
		</g>
	</g>
	<g>
		<g>
			<path id="XMLID_00000016766700097824070420000011752456405328791454_" class="st43" d="M93.7,64.9c0,0,9.3-3.8,14.1-0.9
				c4.8,2.8,22.9-4.6,30.4-1.1S153,80.2,144.7,86S133,86,133,86s-18.6,4.2-24,1.7c0,0,7.6,8.5,16.3,9.2c0,0-8.6,3.7-16.4,0.7
				C101.1,94.4,84.5,68.1,93.7,64.9z"/>
		</g>
		<g>
			<defs>
				<path id="SVGID_00000069367247098130749750000013526422246925764255_" d="M93.7,64.9c0,0,9.3-3.8,14.1-0.9
					c4.8,2.8,22.9-4.6,30.4-1.1S153,80.2,144.7,86S133,86,133,86s-18.6,4.2-24,1.7c0,0,7.6,8.5,16.3,9.2c0,0-8.6,3.7-16.4,0.7
					C101.1,94.4,84.5,68.1,93.7,64.9z"/>
			</defs>
			<clipPath id="SVGID_00000134213501556478505730000016846703114191772056_">
				<use xlink:href="#SVGID_00000069367247098130749750000013526422246925764255_"  style="overflow:visible;"/>
			</clipPath>
			<path style="clip-path:url(#SVGID_00000134213501556478505730000016846703114191772056_);fill:#007EC9;" d="M109.1,87.6
				c-4.7-7.7,2.3-8.6,10.3-6c8.1,2.5,13.2,0.4,15.8-1.2c2.6-1.6,6.8,7.8,13.2,3.9s5.7,2.4,5.7,2.4l-21.8,5.2
				C132.3,91.9,116.8,91.7,109.1,87.6"/>
		</g>
	</g>
	<path class="st26" d="M173.8,87.8c0,0,13.2,6.3,13.9,5.7c0.7-0.6,4.6-11.2-0.2-18.8c0,0-7.7,2.8-14.7,7.5
		C172.8,82.3,171.1,85.5,173.8,87.8z"/>
	<path class="st2" d="M140.2,181.6c-9-8.7,3.3-22.3,8.8-19.4c5.5,3,9.7,4.8,8.3,7.1c-1.4,2.4-9,6.8-10.4,8
		C145.6,178.6,146.2,187.4,140.2,181.6z"/>
	<path class="st2" d="M127.4,238.7c2.9-10.8-13.4-15.8-16.2-11s-5.2,8.1-3.1,9.3c2.2,1.2,10,1,11.7,1.4S125.5,245.9,127.4,238.7z"/>
	<path class="st26" d="M31.7,135.8c0,0,2.7-5.7,6.1-5.5c3.3,0.2,14.3,0.8,14.8,1.4c2,2.3-4.1,14.8-12.3,13.9
		C34.4,144.9,31.7,135.8,31.7,135.8z"/>
	<path class="st26" d="M39.4,131.2c0,0,5.5-3.2,6.4-2.9c0.9,0.4,2.2,1.5,2.1,2c-0.1,0.6-2.9,3.5-2.9,3.5L39.4,131.2z"/>
	<path class="st30" d="M184.3,82c0.4-1.2,1.3-2.2,2.5-2.6c2.8-1,9.1-3.4,9.9-3c1,0.6-10.8,22.9-13.4,22.9c-2.6,0-3.3-3-3-4.8
		C180.7,93.2,183.2,85.6,184.3,82z"/>
	<g>
		<g>
			<path id="XMLID_00000145766705476298939560000005893148967141324932_" class="st29" d="M181.9,87.5c0.4,1,5,7.6,5.9,7.5
				c0.8-0.2,9-10.3,9-11.9c0.1-1.6-9.8-3.7-10.9-3.3C184.8,80,181.5,86.5,181.9,87.5z"/>
		</g>
		<g>
			<defs>
				<path id="SVGID_00000099651170734483699120000004835209270123260346_" d="M181.9,87.5c0.4,1,5,7.6,5.9,7.5
					c0.8-0.2,9-10.3,9-11.9c0.1-1.6-9.8-3.7-10.9-3.3C184.8,80,181.5,86.5,181.9,87.5z"/>
			</defs>
			<clipPath id="SVGID_00000175301814235781948940000005782799116422168975_">
				<use xlink:href="#SVGID_00000099651170734483699120000004835209270123260346_"  style="overflow:visible;"/>
			</clipPath>
			<path style="clip-path:url(#SVGID_00000175301814235781948940000005782799116422168975_);fill:#221B4C;" d="M190.6,88.2
				c0,0,1.6,3.5-1.9,3c0,0-0.6,4.2-3.1,2.6s0.6,4.8,0.6,4.8l10-4.7c2.8-5.8,3.6-10.8-1.5-13.4c0.8,2.1,0.5,3.7-1.8,4.5
				C192.9,86.6,192.3,87.7,190.6,88.2z"/>
		</g>
	</g>
	<g>
		<path class="st30" d="M187.2,97.3c2.4,0,9.2-0.3,12.3-6.5c3-5.7-1.1-10.9-5.4-12.4l-0.8,1.8l0.9,0.4c2.9,1.4,4.3,4.9,2.1,9
			c-3.8,7.2-9.7,5.8-10.9,5.7l-0.3,1.9C186,97.3,185.9,97.3,187.2,97.3z"/>
	</g>
	<g>
		<g>
			<path id="XMLID_00000168812756135093990540000012673504774601034640_" class="st30" d="M102.1,38.6c0,0,11.5-6.5,6.1-23.7
				l-3.2,7.6c0,0,0.1-11-8-13.2S85.3,2.9,83.6,0c0,0,0.5,6.4,3.1,9c0,0-8.3-5-14-3c0,0,5.4,4,6.2,5.5c0,0-27.2-6-18.3,22.2
				c0,0-1.1-11,6.8-12.4c0,0-5.8,10.2,7.2,27.2c-4-9.9-2.6-17.2-0.8-24.2C73.7,24.2,88.5,39.5,102.1,38.6z"/>
		</g>
	</g>
	<path class="st30" d="M102.9,34.6c0,0,11.7-9,14.2,4c0,0-5.3-8.7-14.2-1"/>
	<g>
		<path class="st29" d="M73.3,28c0,0-3.9-3.8-6.9,0s-1.5,10.9,8.2,11.8C74.6,39.8,76.9,30.9,73.3,28z"/>
		<path class="st41" d="M73.9,33c0,0-2.3-6.4-5.2-4.4c-2.9,1.9-1.5,8.9,4,9.5s-2.3-2.9-2-4.5C71.1,31.9,74.8,34.9,73.9,33z"/>
	</g>
	<path class="st26" d="M72.2,24.3c1.9-1.6,2.7-2.2,13.5,2.5c10.8,4.8,20.7,11.8,19.2,14.5c-1.4,2.6-3.8,8-7.9,8
		c-3.2,0-7.1-2.8-8.7-4c-0.4-0.3-0.6-0.9-0.5-1.4c0.3-1.3,0.8-3.8,0-4.1c-1.2-0.4-3.1,3.5-5,2.9c-1.9-0.5-10-3.5-11.7-6.5
		S70.3,26,72.2,24.3z"/>
	<path class="st26" d="M42.4,92.8c0,0-12.8,8.5-14.6,10c-1.8,1.5,10,27.6,10,27.6l-6.1,5.5c0,0-18.7-33.4-19-38.7
		c-0.3-5.3,17.6-15.3,20.4-17C40.6,75.8,52.1,85.7,42.4,92.8z"/>
	<path class="st26" d="M172.8,82.3c0,0-29.7-8.5-32.5-9.3s-6.9,7,0,11.2l33.5,3.6C172.4,86,172.1,84.2,172.8,82.3z"/>
	<g>
		<g>
			<path id="XMLID_00000145029588066045131290000000870352955504439224_" class="st30" d="M85.7,140.4c-7.6,2.2-12.5,9.6-11.7,12.7
				c0.8,3,10.9,21.1,14.6,21.6s12.2-6,13.4-9.9C103.2,160.7,88.8,139.5,85.7,140.4z"/>
		</g>
		<g>
			<defs>
				<path id="SVGID_00000139975146934328526580000000210910562866494135_" d="M85.7,140.4c-7.6,2.2-12.5,9.6-11.7,12.7
					c0.8,3,10.9,21.1,14.6,21.6s12.2-6,13.4-9.9C103.2,160.7,88.8,139.5,85.7,140.4z"/>
			</defs>
			<clipPath id="SVGID_00000011744925023860585880000016148111599652849815_">
				<use xlink:href="#SVGID_00000139975146934328526580000000210910562866494135_"  style="overflow:visible;"/>
			</clipPath>
			<path style="clip-path:url(#SVGID_00000011744925023860585880000016148111599652849815_);fill:#221B4C;" d="M84.7,143.5
				c-0.6,0.7-0.3,1.6,0,2.3c0.8,1.5,2,2.7,2.8,4.3c1,2.5-2.9,5-4.6,6.2c-1.4,0.9-2.9,1.8-4.5,2.4c1.4-1,2.7-2,4.1-3.1
				c1.3-1,2.7-2.1,3.6-3.4c0.5-0.6,0.9-1.4,0.6-1.8c-0.3-0.7-0.8-1.4-1.3-2.2C84.7,146.9,83.2,144.8,84.7,143.5L84.7,143.5z"/>
		</g>
	</g>
	<path class="st2" d="M100.7,43.3c-6.7-6.8-16.6-12-26.2-12.4C83.5,34.1,92.3,38.6,100.7,43.3L100.7,43.3z"/>
	<g>
		<path class="st26" d="M82.9,99.6c0.3,1.9-1.1,3.7-3,4s-3.7-1.1-4-3s1.1-3.7,3-4C80.9,96.3,82.7,97.7,82.9,99.6z"/>
		<path class="st0" d="M83,99.3c0.3,1.9-1.1,3.7-3,4s-3.7-1.1-4-3s1.1-3.7,3-4C81,96.1,82.8,97.4,83,99.3z"/>
		<g>
			
				<rect x="79.1" y="98.6" transform="matrix(0.9908 -0.1356 0.1356 0.9908 -12.6841 11.6875)" class="st30" width="0.7" height="0.7"/>
			
				<rect x="79.7" y="97.8" transform="matrix(0.9908 -0.1355 0.1355 0.9908 -12.567 11.7533)" class="st30" width="0.7" height="0.7"/>
			
				<rect x="80.4" y="97.8" transform="matrix(0.9908 -0.1356 0.1356 0.9908 -12.5566 11.8537)" class="st30" width="0.7" height="0.7"/>
			
				<rect x="80.1" y="100.6" transform="matrix(0.9908 -0.1356 0.1356 0.9908 -12.9505 11.8375)" class="st30" width="0.7" height="0.7"/>
			
				<rect x="79.5" y="101.4" transform="matrix(0.9908 -0.1356 0.1356 0.9908 -13.0598 11.7621)" class="st30" width="0.7" height="0.7"/>
			
				<rect x="80.7" y="99.9" transform="matrix(0.9908 -0.1355 0.1355 0.9908 -12.8342 11.9004)" class="st30" width="0.7" height="0.7"/>
			
				<rect x="81.2" y="99.1" transform="matrix(0.9908 -0.1356 0.1356 0.9908 -12.731 11.9802)" class="st30" width="0.7" height="0.7"/>
			
				<rect x="81.1" y="98.4" transform="matrix(0.9908 -0.1356 0.1356 0.9908 -12.6373 11.9625)" class="st30" width="0.7" height="0.7"/>
			
				<rect x="79.1" y="98.7" transform="matrix(0.9908 -0.1356 0.1356 0.9908 -12.6973 11.689)" class="st30" width="0.7" height="0.7"/>
			
				<rect x="78.3" y="98.1" transform="matrix(0.9908 -0.1356 0.1356 0.9908 -12.6236 11.5749)" class="st30" width="0.7" height="0.7"/>
			
				<rect x="77.6" y="98.2" transform="matrix(0.9908 -0.1356 0.1356 0.9908 -12.6438 11.481)" class="st30" width="0.7" height="0.7"/>
			
				<rect x="78.7" y="100.8" transform="matrix(0.9908 -0.1356 0.1356 0.9908 -12.9857 11.6531)" class="st30" width="0.7" height="0.7"/>
			
				<rect x="79.5" y="101.4" transform="matrix(0.9908 -0.1355 0.1355 0.9908 -13.05 11.7582)" class="st30" width="0.7" height="0.7"/>
			
				<rect x="77.9" y="100.2" transform="matrix(0.9908 -0.1356 0.1356 0.9908 -12.9123 11.5388)" class="st30" width="0.7" height="0.7"/>
			
				<rect x="77.1" y="99.6" transform="matrix(0.9908 -0.1355 0.1355 0.9908 -12.8285 11.4226)" class="st30" width="0.7" height="0.7"/>
			
				<rect x="77.1" y="98.9" transform="matrix(0.9908 -0.1356 0.1356 0.9908 -12.7436 11.4134)" class="st30" width="0.7" height="0.7"/>
		</g>
	</g>
	<g>
		<path class="st26" d="M78.8,90.4c-0.2,1.3,0.7,2.4,2,2.6s2.4-0.7,2.6-2s-0.7-2.4-2-2.6C80.1,88.2,79,89.1,78.8,90.4z"/>
		<path class="st0" d="M78.7,90.2c-0.2,1.3,0.7,2.4,2,2.6s2.4-0.7,2.6-2s-0.7-2.4-2-2.6C80,88.1,78.9,88.9,78.7,90.2z"/>
		<g>
			
				<rect x="80.8" y="89.8" transform="matrix(0.1355 -0.9908 0.9908 0.1355 -19.1578 158.1453)" class="st30" width="0.5" height="0.5"/>
			
				<rect x="80.4" y="89.3" transform="matrix(0.1355 -0.9908 0.9908 0.1355 -19.0092 157.3145)" class="st30" width="0.5" height="0.5"/>
			
				<rect x="80" y="89.2" transform="matrix(0.1355 -0.9908 0.9908 0.1355 -19.2538 156.8437)" class="st30" width="0.5" height="0.5"/>
			
				<rect x="80.2" y="91.1" transform="matrix(0.1355 -0.9908 0.9908 0.1355 -20.9718 158.6773)" class="st30" width="0.5" height="0.5"/>
			
				<rect x="80.6" y="91.6" transform="matrix(0.1355 -0.9908 0.9908 0.1355 -21.1209 159.5082)" class="st30" width="0.5" height="0.5"/>
			
				<rect x="79.8" y="90.5" transform="matrix(0.1355 -0.9908 0.9908 0.1355 -20.7073 157.7748)" class="st30" width="0.5" height="0.5"/>
			
				<rect x="79.4" y="90" transform="matrix(0.1357 -0.9907 0.9907 0.1357 -20.5875 156.9268)" class="st30" width="0.5" height="0.5"/>
			
				<rect x="79.4" y="89.6" transform="matrix(0.1355 -0.9908 0.9908 0.1355 -20.1643 156.5924)" class="st30" width="0.5" height="0.5"/>
			
				<rect x="80.8" y="89.7" transform="matrix(0.1357 -0.9907 0.9907 0.1357 -19.0308 158.0666)" class="st30" width="0.5" height="0.5"/>
			
				<rect x="81.3" y="89.3" transform="matrix(0.1355 -0.9908 0.9908 0.1355 -18.2547 158.1737)" class="st30" width="0.5" height="0.5"/>
			
				<rect x="81.8" y="89.4" transform="matrix(0.1357 -0.9907 0.9907 0.1357 -17.9772 158.7612)" class="st30" width="0.5" height="0.5"/>
			
				<rect x="81.1" y="91.1" transform="matrix(0.1355 -0.9908 0.9908 0.1355 -20.2093 159.543)" class="st30" width="0.5" height="0.5"/>
			
				<rect x="80.5" y="91.5" transform="matrix(0.1355 -0.9908 0.9908 0.1355 -21.0441 159.335)" class="st30" width="0.5" height="0.5"/>
			
				<rect x="81.6" y="90.7" transform="matrix(0.1357 -0.9907 0.9907 0.1357 -19.4063 159.7244)" class="st30" width="0.5" height="0.5"/>
			
				<rect x="82.1" y="90.4" transform="matrix(0.1355 -0.9908 0.9908 0.1355 -18.6123 159.9173)" class="st30" width="0.5" height="0.5"/>
			
				<rect x="82.1" y="89.9" transform="matrix(0.1357 -0.9907 0.9907 0.1357 -18.1941 159.5406)" class="st30" width="0.5" height="0.5"/>
		</g>
	</g>
</g>
</svg>
