<?xml version="1.0" encoding="utf-8"?>
<!-- Generator: Adobe Illustrator 26.0.0, SVG Export Plug-In . SVG Version: 6.00 Build 0)  -->
<svg version="1.1" id="Layer_1" xmlns="http://www.w3.org/2000/svg" xmlns:xlink="http://www.w3.org/1999/xlink" x="0px" y="0px"
	 viewBox="0 0 49.8 86.3" style="enable-background:new 0 0 49.8 86.3;" xml:space="preserve">
<style type="text/css">
	.st0{fill:none;stroke:#0A51ED;stroke-miterlimit:10;}
	.st1{fill:#3C6EFD;}
	.st2{opacity:0.2;fill:#3C6EFD;enable-background:new    ;}
	.st3{opacity:0.5;fill:#FFFFFF;enable-background:new    ;}
	.st4{opacity:0.2;fill:#FFFFFF;enable-background:new    ;}
</style>
<g>
	<path class="st0" d="M6.9,23.6c0,0,5.8-4.9,10.8,0s6,35,6,35"/>
	<path class="st0" d="M24.1,64.4c0,0-3.4-35.4,9.5-50.2"/>
	<path class="st0" d="M22.8,60.7c0,0,2.6-40.2-7.1-49.2"/>
	<path class="st0" d="M24.1,60.7c0,0,0.2-26.6,7.4-30.7s10.9,9.3,10.9,9.3"/>
	<path class="st0" d="M21.2,60.7c0,0,1.2-20.4-4.4-27.7S5.3,36.1,5.3,36.1"/>
	<path class="st0" d="M23.2,63.4c0,0-3.6-47.7,2.4-55.8"/>
</g>
<g>
	<path class="st1" d="M37.7,33.8c0,0-3.6,1.3-2.5,4.5c1.1,3.1,12.4,8.3,12.4,8.3s4.8-4.4,0.4-11.5S37.8,31.6,37.7,33.8z"/>
	<path class="st2" d="M37.7,33.8c0,0-3.6,1.3-2.5,4.5c1.1,3.1,12.4,8.3,12.4,8.3s4.8-4.4,0.4-11.5S37.8,31.6,37.7,33.8z"/>
</g>
<g>
	<path class="st1" d="M22,27.8c0,0,3.8-0.2,4,3.1s-8.3,12.4-8.3,12.4s-6-2.1-4.7-10.3S21.1,25.8,22,27.8z"/>
	<path class="st2" d="M22,27.8c0,0,3.8-0.2,4,3.1s-8.3,12.4-8.3,12.4s-6-2.1-4.7-10.3S21.1,25.8,22,27.8z"/>
</g>
<g>
	<path class="st1" d="M18.8,12c0,0,2.6-0.3,2.3-1.8c-0.2-1.6-9.9-5.6-15.7,0.9c0,0,3.7,6.3,9,6.4C19.8,17.6,18.8,12,18.8,12z"/>
	<path class="st2" d="M18.8,12c0,0,2.6-0.3,2.3-1.8c-0.2-1.6-9.9-5.6-15.7,0.9c0,0,3.7,6.3,9,6.4C19.8,17.6,18.8,12,18.8,12z"/>
</g>
<g>
	<path class="st1" d="M23.6,8.3c0,0-2.3,1.1-3-0.3C20,6.5,26.1-2,34.4,0.4c0,0,0.2,7.3-4.2,10.2C25.7,13.5,23.6,8.3,23.6,8.3z"/>
	<path class="st2" d="M23.6,8.3c0,0-2.3,1.1-3-0.3C20,6.5,26.1-2,34.4,0.4c0,0,0.2,7.3-4.2,10.2C25.7,13.5,23.6,8.3,23.6,8.3z"/>
</g>
<g>
	<path class="st1" d="M11.5,32.5c0,0,1.8-1.4-0.1-2.1c-2-0.7-11.3-0.5-11.4,8.8c0,0,10.9,1.8,12.2-1.7
		C13.6,33.9,11.5,32.5,11.5,32.5z"/>
	<path class="st2" d="M11.5,32.5c0,0,1.8-1.4-0.1-2.1c-2-0.7-11.3-0.5-11.4,8.8c0,0,10.9,1.8,12.2-1.7
		C13.6,33.9,11.5,32.5,11.5,32.5z"/>
</g>
<g>
	<path class="st1" d="M33.6,11.8c0,0-1.8-1.4,0.1-2.1c2-0.7,11.3-0.5,11.4,8.7c0,0-10.9,1.8-12.2-1.7C31.5,13.2,33.6,11.8,33.6,11.8
		z"/>
	<path class="st2" d="M33.6,11.8c0,0-1.8-1.4,0.1-2.1c2-0.7,11.3-0.5,11.4,8.7c0,0-10.9,1.8-12.2-1.7C31.5,13.2,33.6,11.8,33.6,11.8
		z"/>
</g>
<g>
	<path class="st1" d="M27.9,19.3c0,0-0.2-1.7,1.2-1.1c1.4,0.7,6.3,5.9,1.2,10.9c0,0-6.8-5-5.6-7.6S27.9,19.3,27.9,19.3z"/>
	<path class="st2" d="M27.9,19.3c0,0-0.2-1.7,1.2-1.1c1.4,0.7,6.3,5.9,1.2,10.9c0,0-6.8-5-5.6-7.6S27.9,19.3,27.9,19.3z"/>
</g>
<g>
	<path class="st1" d="M9.9,21.7c0,0,1.1-1.4-0.5-1.6c-1.5-0.2-8.5,1.7-6.8,8.6c0,0,8.4-0.6,8.8-3.5S9.9,21.7,9.9,21.7z"/>
	<path class="st2" d="M9.9,21.7c0,0,1.1-1.4-0.5-1.6c-1.5-0.2-8.5,1.7-6.8,8.6c0,0,8.4-0.6,8.8-3.5S9.9,21.7,9.9,21.7z"/>
</g>
<polygon class="st1" points="38.4,86.3 9.5,86.3 6.3,54.6 41.5,54.6 "/>
<polygon class="st3" points="38.4,86.3 9.5,86.3 6.3,54.6 41.5,54.6 "/>
<rect x="4.8" y="51.1" class="st1" width="38.2" height="7"/>
<rect x="4.8" y="51.1" class="st4" width="38.2" height="7"/>
<g>
	<path class="st1" d="M-9.9,37.3l-29.7,2c0,0-0.4-15.9-2.8-24.1c-0.2-1.1-0.6-2.2-1-3.5c-0.5-1.7-1.2-3.6-1.9-5.7
		c-0.2-0.5-0.6-1.7-1.1-3.1c-0.9-2.4-0.2-4.9,1.5-6.5c0.8-0.8,1.8-1.4,3-1.6c2.2-0.5,4.3-0.9,5.5-1.1C-32-7-27.5-7.4-23-7.6
		c3.8,0,8,0.2,10.4,0.4c1.3,0.1,2.1,0.2,2.1,0.2S-9.6-6.8-9-1.3C-8.5,3.9-8.7,18.5-9.9,37.3z"/>
</g>
</svg>
