<?xml version="1.0" encoding="utf-8"?>
<!-- Generator: Adobe Illustrator 26.0.0, SVG Export Plug-In . SVG Version: 6.00 Build 0)  -->
<svg version="1.1" id="Layer_1" xmlns="http://www.w3.org/2000/svg" xmlns:xlink="http://www.w3.org/1999/xlink" x="0px" y="0px"
	 viewBox="0 0 234.1 280.7" style="enable-background:new 0 0 234.1 280.7;" xml:space="preserve">
<style type="text/css">
	.st0{display:none;}
	.st1{display:inline;}
	.st2{fill:#407BFF;}
	.st3{opacity:0.9;fill:#FFFFFF;enable-background:new    ;}
	.st4{fill:#A86907;}
	.st5{fill:#EC63E3;}
	.st6{clip-path:url(#SVGID_00000001654886205671872190000000326195172351340950_);fill:#9155DF;}
	.st7{clip-path:url(#SVGID_00000160165543383396502210000003595880171929852335_);fill:#FFFFFF;}
	
		.st8{opacity:0.3;clip-path:url(#SVGID_00000174582819651463479080000005105840252303033748_);fill:#9155DF;enable-background:new    ;}
	
		.st9{opacity:0.3;clip-path:url(#SVGID_00000174596464643925383100000017081303245722454942_);fill:#9155DF;enable-background:new    ;}
	.st10{clip-path:url(#SVGID_00000144338168550863122040000005239221738149722046_);fill:#9155DF;}
	.st11{clip-path:url(#SVGID_00000174571382203647417150000001524019879853937842_);fill:#FFFFFF;}
	
		.st12{opacity:0.3;clip-path:url(#SVGID_00000178163397442747764110000018370924470634135950_);fill:#9155DF;enable-background:new    ;}
	
		.st13{opacity:0.3;clip-path:url(#SVGID_00000142163329797281954760000004141792177364222598_);fill:#9155DF;enable-background:new    ;}
	.st14{fill:#221B4C;}
	.st15{fill:#FF9874;}
	.st16{fill:#E66A54;}
	.st17{clip-path:url(#SVGID_00000102517203994541439730000002232047821659211703_);fill:#4C37AC;}
	.st18{fill:#4E298A;}
	.st19{fill:#9155DF;}
	.st20{clip-path:url(#SVGID_00000111178192586821615390000017132305286136663705_);fill:#DEBBFF;}
	.st21{clip-path:url(#SVGID_00000037691349819712307760000018355143660694126981_);fill:#DEBBFF;}
	
		.st22{opacity:0.23;clip-path:url(#SVGID_00000070817899936997742730000008600865362018821533_);fill:#4E298A;enable-background:new    ;}
	.st23{fill:#007EC9;}
	.st24{clip-path:url(#SVGID_00000103247034520872995650000008007793806265530001_);fill:#00BDE3;}
	.st25{fill:#E39824;}
	.st26{fill:#FFFFFF;}
	.st27{clip-path:url(#SVGID_00000160900955531649073220000004345846769343840950_);fill:#892A1C;}
	.st28{clip-path:url(#SVGID_00000062187769566979384460000014085361764720614534_);fill:#3A0C06;}
	.st29{clip-path:url(#SVGID_00000014614606439196827350000001969261583832260015_);fill:#FFFFFF;}
	.st30{clip-path:url(#SVGID_00000013161381856944646010000013539174848643247264_);}
	.st31{fill:#892A1C;}
	.st32{clip-path:url(#SVGID_00000042732761036561944760000005687491180117129886_);fill:#3A0C06;}
	.st33{clip-path:url(#SVGID_00000172428582962417218790000008434184674027531941_);fill:#FFFFFF;}
	.st34{clip-path:url(#SVGID_00000181809648821115826190000003232476799506994863_);fill:#E85A57;}
	.st35{clip-path:url(#SVGID_00000109013930174860249940000005063997713000597149_);fill:#FFFFFF;}
	.st36{fill:#3A0C06;}
	.st37{clip-path:url(#SVGID_00000126322203970451397300000010264798136829592762_);fill:#00BDE3;}
	.st38{fill:#FACE2F;}
	
		.st39{opacity:0.59;clip-path:url(#SVGID_00000079474666002673841360000003350979628202918061_);fill:#E39824;enable-background:new    ;}
	
		.st40{opacity:0.59;clip-path:url(#SVGID_00000170278482795127038210000012058768515637775495_);fill:#E39824;enable-background:new    ;}
	.st41{clip-path:url(#SVGID_00000135664561798942447260000015625975937404367517_);fill:#221B4C;}
	.st42{clip-path:url(#SVGID_00000064313202647767537080000013570439608149890183_);fill:#221B4C;}
	.st43{enable-background:new    ;}
	.st44{fill:#EAB626;}
	.st45{clip-path:url(#SVGID_00000054266538576894958220000009459692725463384763_);fill:#FFFFFF;}
</style>
<g id="Background_Simple" class="st0">
	<g class="st1">
		<path class="st2" d="M-271.5,387.2c-19.7-41.3-24.5-92.6-5.4-135c17.2-38.2,55.5-63.1,96.4-68.9c49.2-7,86.6,12.7,106.1,58.7
			c9,21.2,13.7,47.3,30.6,64c22.3,22.1,54,3.4,80.5,11.2c30.4,8.9,35.8,44.7,32.6,71.8c-7.9,66.5-73.9,94.3-132.9,101.8
			c-64.2,8.1-134.2-10.9-178.7-59.6C-253.7,418.7-263.7,403.7-271.5,387.2z"/>
		<path class="st3" d="M-271.5,387.2c-19.7-41.3-24.5-92.6-5.4-135c17.2-38.2,55.5-63.1,96.4-68.9c49.2-7,86.6,12.7,106.1,58.7
			c9,21.2,13.7,47.3,30.6,64c22.3,22.1,54,3.4,80.5,11.2c30.4,8.9,35.8,44.7,32.6,71.8c-7.9,66.5-73.9,94.3-132.9,101.8
			c-64.2,8.1-134.2-10.9-178.7-59.6C-253.7,418.7-263.7,403.7-271.5,387.2z"/>
	</g>
</g>
<g>
	<g>
		<path class="st4" d="M114.8,137.6c0,0,53.4-24.9,31-31s-29.8,2.9-29.8,2.9L114.8,137.6z"/>
		<g>
			<g>
				<path id="XMLID_00000136382862769787917050000014591085010229647539_" class="st5" d="M65,229.6c-2,0.7-9.6-0.8-11,7.8
					c-0.6,4.1-2.6,20.1-6.8,25.3s-5.4,17.2,4.9,18s12.9-7.2,11.8-15.6s1-18,6.4-23.5C75.8,236.1,72.3,227.2,65,229.6z"/>
			</g>
			<g>
				<defs>
					<path id="SVGID_1_" d="M65,229.6c-2,0.7-9.6-0.8-11,7.8c-0.6,4.1-2.6,20.1-6.8,25.3s-5.4,17.2,4.9,18s12.9-7.2,11.8-15.6
						s1-18,6.4-23.5C75.8,236.1,72.3,227.2,65,229.6z"/>
				</defs>
				<clipPath id="SVGID_00000151534763481896120480000010257418790346237361_">
					<use xlink:href="#SVGID_1_"  style="overflow:visible;"/>
				</clipPath>
				<path style="clip-path:url(#SVGID_00000151534763481896120480000010257418790346237361_);fill:#9155DF;" d="M64.2,232.5
					c0,0-10.6,5.1-11.4,12.9c-0.8,7.8,0,0,0,0L50.5,231l20.4-6.2L64.2,232.5z"/>
			</g>
			<g>
				<defs>
					<path id="SVGID_00000013871405192391626640000002782871044060431755_" d="M65,229.6c-2,0.7-9.6-0.8-11,7.8
						c-0.6,4.1-2.6,20.1-6.8,25.3s-5.4,17.2,4.9,18s12.9-7.2,11.8-15.6s1-18,6.4-23.5C75.8,236.1,72.3,227.2,65,229.6z"/>
				</defs>
				<clipPath id="SVGID_00000073687906845749469980000002836055964641401230_">
					<use xlink:href="#SVGID_00000013871405192391626640000002782871044060431755_"  style="overflow:visible;"/>
				</clipPath>
				<path style="clip-path:url(#SVGID_00000073687906845749469980000002836055964641401230_);fill:#FFFFFF;" d="M64,228.8
					c0,0-5,4.5-5.8,10.6c-0.9,6.1-5.2,19.4-10.2,25.7s-1.9,13.7,0.2,14.5c2.1,0.8-4.2,4.7-4.2,4.7l-5.4-10l2.2-29.7l9.3-13.5
					c0,0,7.8-2.2,11.2-1.1"/>
			</g>
			<g>
				<defs>
					<path id="SVGID_00000039846481020631988450000008844317583737838485_" d="M65,229.6c-2,0.7-9.6-0.8-11,7.8
						c-0.6,4.1-2.6,20.1-6.8,25.3s-5.4,17.2,4.9,18s12.9-7.2,11.8-15.6s1-18,6.4-23.5C75.8,236.1,72.3,227.2,65,229.6z"/>
				</defs>
				<clipPath id="SVGID_00000044177613430269747600000015400813747885570734_">
					<use xlink:href="#SVGID_00000039846481020631988450000008844317583737838485_"  style="overflow:visible;"/>
				</clipPath>
				
					<path style="opacity:0.3;clip-path:url(#SVGID_00000044177613430269747600000015400813747885570734_);fill:#9155DF;enable-background:new    ;" d="
					M68.9,248.9c0,0-4.8-2.2-9-1.7c-0.6,0.1-1.2,0.5-1.4,1.1l0,0c-0.4,1.1,0.2,2.2,1.4,2.4c2.1,0.3,5.2,1.2,7.6,3.2
					c4.1,3.4-0.1-0.9-0.1-0.9L68.9,248.9z"/>
			</g>
			<g>
				<defs>
					<path id="SVGID_00000129186754985832553490000003213863786359993502_" d="M65,229.6c-2,0.7-9.6-0.8-11,7.8
						c-0.6,4.1-2.6,20.1-6.8,25.3s-5.4,17.2,4.9,18s12.9-7.2,11.8-15.6s1-18,6.4-23.5C75.8,236.1,72.3,227.2,65,229.6z"/>
				</defs>
				<clipPath id="SVGID_00000035497852084810772900000000427647423327682469_">
					<use xlink:href="#SVGID_00000129186754985832553490000003213863786359993502_"  style="overflow:visible;"/>
				</clipPath>
				
					<path style="opacity:0.3;clip-path:url(#SVGID_00000035497852084810772900000000427647423327682469_);fill:#9155DF;enable-background:new    ;" d="
					M66.2,256.9c0,0-4.8-2.2-9-1.7c-0.6,0.1-1.2,0.5-1.4,1.1l0,0c-0.4,1.1,0.2,2.2,1.4,2.4c2.1,0.3,5.2,1.2,7.6,3.2
					c4.1,3.4-0.1-0.9-0.1-0.9L66.2,256.9z"/>
			</g>
		</g>
		<g>
			<g>
				<path id="XMLID_00000099642146980568193650000009071507001940707986_" class="st5" d="M53.7,186.2c1,0.7,9.2,3.2,9.6,7.5
					c0.4,4.2-0.4,28.4-8.2,32.7c-6.4,3.5-14.1-2.3-10.8-8.7c8.6-16.9,0.5-26.2,1.3-27.6C46.4,188.6,49.2,182.9,53.7,186.2z"/>
			</g>
			<g>
				<defs>
					<path id="SVGID_00000088846082171947305350000013958399015254878868_" d="M53.7,186.2c1,0.7,9.2,3.2,9.6,7.5
						c0.4,4.2-0.4,28.4-8.2,32.7c-6.4,3.5-14.1-2.3-10.8-8.7c8.6-16.9,0.5-26.2,1.3-27.6C46.4,188.6,49.2,182.9,53.7,186.2z"/>
				</defs>
				<clipPath id="SVGID_00000050659587838191993380000010108264979183595680_">
					<use xlink:href="#SVGID_00000088846082171947305350000013958399015254878868_"  style="overflow:visible;"/>
				</clipPath>
				<path style="clip-path:url(#SVGID_00000050659587838191993380000010108264979183595680_);fill:#9155DF;" d="M49.4,192.9
					c0,0,11.1-3.7,17.2,1.2c6.1,5,0,0,0,0l-8.4-11.9L39.3,192L49.4,192.9z"/>
			</g>
			<g>
				<defs>
					<path id="SVGID_00000057861668579056457790000002711031172819222917_" d="M53.7,186.2c1,0.7,9.2,3.2,9.6,7.5
						c0.4,4.2-0.4,28.4-8.2,32.7c-6.4,3.5-14.1-2.3-10.8-8.7c8.6-16.9,0.5-26.2,1.3-27.6C46.4,188.6,49.2,182.9,53.7,186.2z"/>
				</defs>
				<clipPath id="SVGID_00000137094863779809258790000002902687748068854414_">
					<use xlink:href="#SVGID_00000057861668579056457790000002711031172819222917_"  style="overflow:visible;"/>
				</clipPath>
				<path style="clip-path:url(#SVGID_00000137094863779809258790000002902687748068854414_);fill:#FFFFFF;" d="M49.5,227.2
					c0,0,6.7-0.1,8.5-10.3c1.1-6,1.7-19,2.8-27c1-8-3.1-6.5-5.2-7.3c-2.1-0.8,14.6-10.5,14.6-10.5l5.4,10l-2.2,29.7l-9.3,13.5
					c0,0-9.7,3.8-13.1,2.7"/>
			</g>
			<g>
				<defs>
					<path id="SVGID_00000116202159615771207070000006915915664778937764_" d="M53.7,186.2c1,0.7,9.2,3.2,9.6,7.5
						c0.4,4.2-0.4,28.4-8.2,32.7c-6.4,3.5-14.1-2.3-10.8-8.7c8.6-16.9,0.5-26.2,1.3-27.6C46.4,188.6,49.2,182.9,53.7,186.2z"/>
				</defs>
				<clipPath id="SVGID_00000065776355941840973880000006151253878865389756_">
					<use xlink:href="#SVGID_00000116202159615771207070000006915915664778937764_"  style="overflow:visible;"/>
				</clipPath>
				
					<path style="opacity:0.3;clip-path:url(#SVGID_00000065776355941840973880000006151253878865389756_);fill:#9155DF;enable-background:new    ;" d="
					M44.5,199.1c0,0,5.3,0,8.9,2.3c0.5,0.3,0.8,1,0.8,1.6l0,0c-0.1,1.1-1.2,1.9-2.3,1.6c-2-0.6-5.2-1.2-8.3-0.4
					c-5.1,1.3,0.4-0.8,0.4-0.8L44.5,199.1z"/>
			</g>
			<g>
				<defs>
					<path id="SVGID_00000104701539663846215840000005208279208783413634_" d="M53.7,186.2c1,0.7,9.2,3.2,9.6,7.5
						c0.4,4.2-0.4,28.4-8.2,32.7c-6.4,3.5-14.1-2.3-10.8-8.7c8.6-16.9,0.5-26.2,1.3-27.6C46.4,188.6,49.2,182.9,53.7,186.2z"/>
				</defs>
				<clipPath id="SVGID_00000104674772251776233860000010137529979545733528_">
					<use xlink:href="#SVGID_00000104701539663846215840000005208279208783413634_"  style="overflow:visible;"/>
				</clipPath>
				
					<path style="opacity:0.3;clip-path:url(#SVGID_00000104674772251776233860000010137529979545733528_);fill:#9155DF;enable-background:new    ;" d="
					M43.5,207.5c0,0,5.3,0,8.9,2.3c0.5,0.3,0.8,1,0.8,1.6l0,0c-0.1,1.1-1.2,1.9-2.3,1.6c-2-0.6-5.2-1.2-8.3-0.4
					c-5.1,1.3,0.4-0.8,0.4-0.8L43.5,207.5z"/>
			</g>
		</g>
		<path class="st14" d="M39.4,49c0,0-5.4,4.1-6.2,3.6s0.3-5.7,0.3-5.7l4.8-1.1L39.4,49z"/>
		<path class="st15" d="M25.2,14.2c-0.2,1.9,2.8,12.9,2.3,23l4.8-1.4c0,0-1.1-13.1-1.3-16.6C30.7,12.7,25.4,12.3,25.2,14.2z"/>
		<path class="st15" d="M36.8,14.9c-0.9,1.7-1.9,13-5.8,22.4l5,0.3c0,0,3.5-12.7,4.6-16.1C42.5,15.4,37.7,13.2,36.8,14.9z"/>
		<path class="st14" d="M27,55.3c0,0-9.7-14-9.3-15c0.4-1,8.6-7.6,18.8-5c0,0-0.3,9.6-3.1,19C33.5,54.4,30.6,57.3,27,55.3z"/>
		<path class="st15" d="M214.8,128c0.5,2.4,15.7,2.6,17.3,2.1c3.1-1,0.8-3.4-0.2-3.4c-1,0.1-9.7,0.6-15-2.4
			C216.9,124.3,214.4,125.7,214.8,128z"/>
		<path class="st15" d="M216.2,124.1c0.7,1.7,16.1-0.6,17.1-1.7c1.1-1.1,0.2-3.3-0.8-3c-1,0.2-9.1,2.8-14.6,1.6
			C217.9,120.9,215.5,122.5,216.2,124.1z"/>
		<path class="st15" d="M216.3,125.9c0.6,1.8,16.1,0.7,17.2-0.3c1.2-1,0.4-3.2-0.6-3.1c-1,0.2-9.3,2.1-14.7,0.4
			C218.2,122.9,215.7,124.3,216.3,125.9z"/>
		<path class="st15" d="M217.8,122.4c1,1.5,11.8-2.1,12.3-3.2s-0.7-3-1.4-2.7s-6,3.5-10.5,2.8C218.2,119.3,216.9,121,217.8,122.4z"
			/>
		<g>
			<g>
				<polygon id="XMLID_00000016775977017372045200000016505375212042439868_" class="st16" points="83.2,111.5 80.9,119.1 
					115.3,115.5 110.1,65.6 93.7,74.4 85.7,84.7 				"/>
			</g>
			<g>
				<defs>
					<polygon id="SVGID_00000108999596748203677260000017341420370273091734_" points="83.2,111.5 80.9,119.1 115.3,115.5 
						110.1,65.6 93.7,74.4 85.7,84.7 					"/>
				</defs>
				<clipPath id="SVGID_00000005267933359511790650000017441162421848336573_">
					<use xlink:href="#SVGID_00000108999596748203677260000017341420370273091734_"  style="overflow:visible;"/>
				</clipPath>
				<path style="clip-path:url(#SVGID_00000005267933359511790650000017441162421848336573_);fill:#4C37AC;" d="M110,104.2
					c0,0-12.5-4.5-26.4,3.3s0,0,0,0L89,78.8c0,0,6.1,7.9,24.4-7.4L110,104.2z"/>
			</g>
		</g>
		<path class="st18" d="M119.5,129.2c0,0,21.1,6.8,18.4,13.8c-2.7,7-4.1,7.3-4.1,7.3s-2.3-10.3-12.9-14.2L119.5,129.2z"/>
		<path class="st18" d="M74.7,163.7c-3.2,3,7.5,21.3,14,24.5s13.7,5.3,15.4,1.1c1.7-4.2-3.5-18.2-3.5-18.2l-12.1-13L74.7,163.7z"/>
		<path class="st18" d="M64.6,164.6c-4.3,3.5-21.8-12.6-21.8-12.6l16.8-16.8L64.6,164.6z"/>
		<path class="st14" d="M85.8,161.2c0,0-24,73.4-23.8,78.5c0.2,5,0.8,4,3.6,3c2.8-1.1,18-31.6,20.1-37.5s18-29.6,18-29.6
			S99.3,159.1,85.8,161.2z"/>
		<path class="st14" d="M58.2,148.8c0,0-8.1,2.4-11.8,2.3c0,0,3.5,3.3,5,7.7s3.2,34.4,1.5,35.4s-6,0.8-7.4-4.2s-22.8-53.3-17.8-56.2
			c5.1-2.9,29.8-0.3,29.8-0.3L58.2,148.8z"/>
		<g>
			<g>
				<path id="XMLID_00000001622381287236169610000016012320314073760187_" class="st19" d="M82.7,117.2c0,0-48.2,10.2-54.9,16.6
					c0,0,30.5-1.5,36.7,30.8c0,0,15.9-12.5,17.6-10.7c1.6,1.8-7.4,9.9-7.4,9.9s18.4-0.5,22.4,11.3c4.1,11.8,6.9,9.9,7,14.4
					c0,0,9.4-9.6,8.6-18.6c-0.8-9.1,9.2-14,10-19.8c0.7-5.8-5.7-32.4-5.7-32.4S95,104.8,82.7,117.2z"/>
			</g>
			<g>
				<defs>
					<path id="SVGID_00000018957912067290769260000016859144866722455471_" d="M82.7,117.2c0,0-48.2,10.2-54.9,16.6
						c0,0,30.5-1.5,36.7,30.8c0,0,15.9-12.5,17.6-10.7c1.6,1.8-7.4,9.9-7.4,9.9s18.4-0.5,22.4,11.3c4.1,11.8,6.9,9.9,7,14.4
						c0,0,9.4-9.6,8.6-18.6c-0.8-9.1,9.2-14,10-19.8c0.7-5.8-5.7-32.4-5.7-32.4S95,104.8,82.7,117.2z"/>
				</defs>
				<clipPath id="SVGID_00000153679548102457726970000013832846275749651085_">
					<use xlink:href="#SVGID_00000018957912067290769260000016859144866722455471_"  style="overflow:visible;"/>
				</clipPath>
				<path style="clip-path:url(#SVGID_00000153679548102457726970000013832846275749651085_);fill:#DEBBFF;" d="M120.9,136.2
					c-0.8,6.7,0.2,15.2-11.8,21.9c-12,6.6,7.4,15.5-5,31.3s19,8.4,19,8.4l31.8-30.2l-3.8-17.3L120.9,136.2"/>
			</g>
			<g>
				<defs>
					<path id="SVGID_00000020379219467722416130000017714370282469068703_" d="M82.7,117.2c0,0-48.2,10.2-54.9,16.6
						c0,0,30.5-1.5,36.7,30.8c0,0,15.9-12.5,17.6-10.7c1.6,1.8-7.4,9.9-7.4,9.9s18.4-0.5,22.4,11.3c4.1,11.8,6.9,9.9,7,14.4
						c0,0,9.4-9.6,8.6-18.6c-0.8-9.1,9.2-14,10-19.8c0.7-5.8-5.7-32.4-5.7-32.4S95,104.8,82.7,117.2z"/>
				</defs>
				<clipPath id="SVGID_00000059992808982632269720000001962775203935428793_">
					<use xlink:href="#SVGID_00000020379219467722416130000017714370282469068703_"  style="overflow:visible;"/>
				</clipPath>
				<path style="clip-path:url(#SVGID_00000059992808982632269720000001962775203935428793_);fill:#DEBBFF;" d="M66,121.6
					c0,0-36.1,10.7-49,17.2c-12.8,6.5-3.7-10.8-3.7-10.8l47.8-12L66,121.6"/>
			</g>
			<g>
				<defs>
					<path id="SVGID_00000009575988097756128920000015454566162300863919_" d="M82.7,117.2c0,0-48.2,10.2-54.9,16.6
						c0,0,30.5-1.5,36.7,30.8c0,0,15.9-12.5,17.6-10.7c1.6,1.8-7.4,9.9-7.4,9.9s18.4-0.5,22.4,11.3c4.1,11.8,6.9,9.9,7,14.4
						c0,0,9.4-9.6,8.6-18.6c-0.8-9.1,9.2-14,10-19.8c0.7-5.8-5.7-32.4-5.7-32.4S95,104.8,82.7,117.2z"/>
				</defs>
				<clipPath id="SVGID_00000019672752356153794460000007350258511105273242_">
					<use xlink:href="#SVGID_00000009575988097756128920000015454566162300863919_"  style="overflow:visible;"/>
				</clipPath>
				
					<path style="opacity:0.23;clip-path:url(#SVGID_00000019672752356153794460000007350258511105273242_);fill:#4E298A;enable-background:new    ;" d="
					M81,164.2c0,0,13.7-11.1,5.6-24.3s-7.2,9.5-13.9,9.1c-6.7-0.4-19.1,0.4-18.3,12.1c0.9,11.7,7.9,15.9,7.9,15.9L81,164.2"/>
			</g>
		</g>
		<g>
			<g>
				<path id="XMLID_00000075133843674636562440000004501618635911006883_" class="st23" d="M89.5,22.4c0,0,0.8-20.3,24-21.7
					c23.2-1.4,21.6,18.1,22.4,25.2c1.2,10.7,15.9,12.3,19.2-2.7c1.4,6.4-1.2,17.6-16.3,15.2c0,0,23.8,11.9,8.6,28
					c-8,14.9-2.5,1-27.9-1.7c-26.2-2.8-14.4-26.8-16-31.4S89.5,22.4,89.5,22.4z"/>
			</g>
			<g>
				<defs>
					<path id="SVGID_00000037665312895052925110000008628782111275997335_" d="M89.5,22.4c0,0,0.8-20.3,24-21.7
						c23.2-1.4,21.6,18.1,22.4,25.2c1.2,10.7,15.9,12.3,19.2-2.7c1.4,6.4-1.2,17.6-16.3,15.2c0,0,23.8,11.9,8.6,28
						c-8,14.9-2.5,1-27.9-1.7c-26.2-2.8-14.4-26.8-16-31.4S89.5,22.4,89.5,22.4z"/>
				</defs>
				<clipPath id="SVGID_00000092427056385319779130000010214048653745085874_">
					<use xlink:href="#SVGID_00000037665312895052925110000008628782111275997335_"  style="overflow:visible;"/>
				</clipPath>
				<path style="clip-path:url(#SVGID_00000092427056385319779130000010214048653745085874_);fill:#00BDE3;" d="M96.3,9.7
					c0,0,10.9-9.4,25-5.1s8.5,20.4,12.8,25.5c4.3,5.2,18,13.3,21.1-7c3.1-20.2-39-41.1-39-41.1C95.7-10.2,88.3-1,96.3,9.7"/>
			</g>
		</g>
		<path class="st19" d="M76.7,23.1c0,0-8-9.4-17.8-8.6c0,0,1.1,9.6,9.3,17.9L76.7,23.1z"/>
		<path class="st19" d="M97.7,19.5c0,0,3.1-12-3.2-19.5c0,0-7.1,6.5-9.2,17.9L97.7,19.5z"/>
		<path class="st25" d="M115.3,41.4c0,0-11,18-38.1,25.2L92.5,78L110,65.7C110.1,65.6,117.3,52.2,115.3,41.4z"/>
		<path class="st16" d="M96.2,62.1c0,0,3.1,3.8,4.6,10.4l7.1-5.3c0,0-1.7-10.5-3.8-15.1C104,52.1,104.4,58.8,96.2,62.1z"/>
		<path class="st15" d="M69.2,36c0,0,0.6,9.7,7.1,13.6c6.4,3.9,9.7,5,10,7.1c0.5,3.7,9.7,6.6,13.9,7.2c0,0,12.4-13,3.3-33.2
			C94.3,10.5,68.9,21.7,69.2,36z"/>
		<g>
			<g>
				<path id="XMLID_00000116946422090916047410000016998418661465587842_" class="st26" d="M93.5,46.7c0,0-7.6-8.5,0-13.3
					C95.6,33.1,102.4,41.5,93.5,46.7z"/>
			</g>
			<g>
				<defs>
					<path id="SVGID_00000087391512374426788670000013166270844818213553_" d="M93.5,46.7c0,0-7.6-8.5,0-13.3
						C95.6,33.1,102.4,41.5,93.5,46.7z"/>
				</defs>
				<clipPath id="SVGID_00000147924934924536047080000000968339662628574123_">
					<use xlink:href="#SVGID_00000087391512374426788670000013166270844818213553_"  style="overflow:visible;"/>
				</clipPath>
				<path style="clip-path:url(#SVGID_00000147924934924536047080000000968339662628574123_);fill:#892A1C;" d="M92.8,42.2
					c1.9,1.7,4.4,1.9,5.7,0.5c1.3-1.4,0.9-4-1-5.7s-4.4-1.9-5.7-0.5C90.5,37.9,91,40.5,92.8,42.2z"/>
			</g>
			<g>
				<defs>
					<path id="SVGID_00000097484884664696690290000004938597368870823603_" d="M93.5,46.7c0,0-7.6-8.5,0-13.3
						C95.6,33.1,102.4,41.5,93.5,46.7z"/>
				</defs>
				<clipPath id="SVGID_00000077284493409051705030000003375525093405127587_">
					<use xlink:href="#SVGID_00000097484884664696690290000004938597368870823603_"  style="overflow:visible;"/>
				</clipPath>
				<path style="clip-path:url(#SVGID_00000077284493409051705030000003375525093405127587_);fill:#3A0C06;" d="M94.3,41.2
					c1,0.9,2.4,1,3.1,0.3c0.7-0.8,0.5-2.2-0.5-3.1c-1-0.9-2.4-1-3.1-0.3C93,38.9,93.2,40.3,94.3,41.2z"/>
			</g>
			<g>
				<defs>
					<path id="SVGID_00000119111309623559023130000016245673994726554031_" d="M93.5,46.7c0,0-7.6-8.5,0-13.3
						C95.6,33.1,102.4,41.5,93.5,46.7z"/>
				</defs>
				<clipPath id="SVGID_00000088126443250252607280000005370103058861378221_">
					<use xlink:href="#SVGID_00000119111309623559023130000016245673994726554031_"  style="overflow:visible;"/>
				</clipPath>
				<path style="clip-path:url(#SVGID_00000088126443250252607280000005370103058861378221_);fill:#FFFFFF;" d="M94.8,42.5
					c0.5-1.1,0.5-2.1,0-2.4c-0.5-0.2-1.3,0.5-1.7,1.6c-0.5,1.1-0.5,2.1,0,2.4C93.6,44.3,94.3,43.6,94.8,42.5z"/>
			</g>
		</g>
		<g>
			<g>
				<path id="XMLID_00000148644010208769699950000003916522196597810570_" class="st26" d="M89.4,50.9c0,0-5.9-7.6-11.2-3.3
					C78.2,47.6,84.5,56.4,89.4,50.9z"/>
			</g>
			<g>
				<defs>
					<path id="SVGID_00000092426061215262038770000009214957510273952430_" d="M89.4,50.9c0,0-5.9-7.6-11.2-3.3
						C78.2,47.6,84.5,56.4,89.4,50.9z"/>
				</defs>
				<clipPath id="SVGID_00000065757819559716552150000013860745790496358298_">
					<use xlink:href="#SVGID_00000092426061215262038770000009214957510273952430_"  style="overflow:visible;"/>
				</clipPath>
				<g style="clip-path:url(#SVGID_00000065757819559716552150000013860745790496358298_);">
					<g>
						<path id="XMLID_00000039834256528862884870000007983488187091632544_" class="st31" d="M84.6,50.8c1.8,1,3.8,0.9,4.4-0.2
							c0.6-1.1-0.3-2.9-2.1-3.9c-1.8-1-3.8-0.9-4.4,0.2C81.8,48.1,82.8,49.8,84.6,50.8z"/>
					</g>
					<g>
						<defs>
							<path id="SVGID_00000119092673374275876910000013443586983848286343_" d="M84.6,50.8c1.8,1,3.8,0.9,4.4-0.2
								c0.6-1.1-0.3-2.9-2.1-3.9c-1.8-1-3.8-0.9-4.4,0.2C81.8,48.1,82.8,49.8,84.6,50.8z"/>
						</defs>
						<clipPath id="SVGID_00000070820311975155166830000014721603925883873425_">
							<use xlink:href="#SVGID_00000119092673374275876910000013443586983848286343_"  style="overflow:visible;"/>
						</clipPath>
						<path style="clip-path:url(#SVGID_00000070820311975155166830000014721603925883873425_);fill:#3A0C06;" d="M84.8,49.9
							c1,0.9,2.4,1,3.1,0.3s0.5-2.2-0.5-3.1c-1-0.9-2.4-1-3.1-0.3C83.5,47.6,83.8,49,84.8,49.9z"/>
					</g>
				</g>
			</g>
			<g>
				<defs>
					<path id="SVGID_00000035489362640222182330000005689136454496450733_" d="M89.4,50.9c0,0-5.9-7.6-11.2-3.3
						C78.2,47.6,84.5,56.4,89.4,50.9z"/>
				</defs>
				<clipPath id="SVGID_00000034806011835605873540000007584151555077498043_">
					<use xlink:href="#SVGID_00000035489362640222182330000005689136454496450733_"  style="overflow:visible;"/>
				</clipPath>
				<path style="clip-path:url(#SVGID_00000034806011835605873540000007584151555077498043_);fill:#FFFFFF;" d="M86.1,51.4
					c0.4-0.8,0.4-1.7,0-1.8c-0.4-0.2-1,0.4-1.4,1.2s-0.4,1.7,0,1.8C85.1,52.8,85.7,52.3,86.1,51.4z"/>
			</g>
		</g>
		<g>
			<g>
				<path id="XMLID_00000080195056475367701120000018394411508542891156_" class="st31" d="M100.4,57.7c-2.6,3.5-7.9-0.4-7.9-1.3
					c0.1-1,4.8-9.5,7.7-8.9C103.2,48,102,55.6,100.4,57.7z"/>
			</g>
			<g>
				<defs>
					<path id="SVGID_00000022527757981141811540000009250466372779268510_" d="M100.4,57.7c-2.6,3.5-7.9-0.4-7.9-1.3
						c0.1-1,4.8-9.5,7.7-8.9C103.2,48,102,55.6,100.4,57.7z"/>
				</defs>
				<clipPath id="SVGID_00000007420942773125749520000015596439436030886546_">
					<use xlink:href="#SVGID_00000022527757981141811540000009250466372779268510_"  style="overflow:visible;"/>
				</clipPath>
				<path style="clip-path:url(#SVGID_00000007420942773125749520000015596439436030886546_);fill:#E85A57;" d="M104,51.9
					c-1.3-1.4-4.3-0.8-6.6,1.4c-2.3,2.2-3.2,5.1-1.8,6.5c1.3,1.4,4.3,0.8,6.6-1.4C104.5,56.3,105.3,53.3,104,51.9z"/>
			</g>
			<g>
				<defs>
					<path id="SVGID_00000136392473610563472150000006073198026518742418_" d="M100.4,57.7c-2.6,3.5-7.9-0.4-7.9-1.3
						c0.1-1,4.8-9.5,7.7-8.9C103.2,48,102,55.6,100.4,57.7z"/>
				</defs>
				<clipPath id="SVGID_00000152222555172703120380000013978005676444228745_">
					<use xlink:href="#SVGID_00000136392473610563472150000006073198026518742418_"  style="overflow:visible;"/>
				</clipPath>
				<path style="clip-path:url(#SVGID_00000152222555172703120380000013978005676444228745_);fill:#FFFFFF;" d="M101.2,47.6V46
					l-2.6-0.2l-8.1,9.7l1.3,0.9c0.7,0.5,1.8,0.2,2.1-0.6c0.4-1.1,1.2-2.7,2.4-4c1.5-1.6,3.1-2.4,4.1-2.8
					C100.8,48.7,101.2,48.2,101.2,47.6z"/>
			</g>
		</g>
		<path class="st16" d="M94.3,49c0.2,0.3-0.3,1.2-1.2,2c-0.9,0.8-1.9,1.2-2.1,0.9s0.3-1.2,1.2-2C93.1,49.2,94.1,48.7,94.3,49z"/>
		<path class="st36" d="M98,40.2c0.4-3.1-1.3-6.4-4-8c-1.4,0.9-2.6,2.1-3.3,3.6c-0.7,1.4-0.8,3-0.4,4.5c0-0.7,0-1.5,0.2-2.2
			c0.5-2,2-3.8,3.7-4.8h-0.5C96.1,34.8,97.5,37.4,98,40.2L98,40.2z"/>
		<path class="st36" d="M84.7,47c-2-1.8-5.3-1.4-7.2,0.5c1.2,1.8,2.8,3.1,4.7,4c-0.7-0.7-1.3-1.4-1.9-2.1c-0.6-0.7-1.2-1.4-1.7-2.1
			L78.5,48C80.2,46.5,82.5,46.2,84.7,47L84.7,47z"/>
		<path class="st31" d="M95.7,31.1c-3.7-3-7.8-0.8-8.1,3.8c0,0.5,0,1,0,1.6c0.2-0.5,0.3-1,0.5-1.5C89.4,31,91.7,29.7,95.7,31.1
			L95.7,31.1z"/>
		<path class="st31" d="M75.4,46.2c-2.1-3.8,0.5-5.5,4.6-3.7c0.5,0.2,0.9,0.4,1.4,0.7c-0.5-0.1-0.9-0.2-1.4-0.3
			C76.3,41.9,74.8,42.9,75.4,46.2L75.4,46.2z"/>
		<g>
			<g>
				<path id="XMLID_00000168837693415514160320000011054845723285256860_" class="st23" d="M100.6,32.2c0,0-9.6-4.2-11.1-7.8
					c0,0-5.1,8.4-9.7,8.6c0,0-1.5,3.7-4.4,4.3c0,0-0.9,5.7-4,6.7c0,0-9.5-13.1,3-23.2c10.5-8.6,22.5-9.9,28.5,5.8L100.6,32.2z"/>
			</g>
			<g>
				<defs>
					<path id="SVGID_00000168111031457610118900000016228224267525403327_" d="M100.6,32.2c0,0-9.6-4.2-11.1-7.8
						c0,0-5.1,8.4-9.7,8.6c0,0-1.5,3.7-4.4,4.3c0,0-0.9,5.7-4,6.7c0,0-9.5-13.1,3-23.2c10.5-8.6,22.5-9.9,28.5,5.8L100.6,32.2z"/>
				</defs>
				<clipPath id="SVGID_00000039833385911963302400000006321586137048482945_">
					<use xlink:href="#SVGID_00000168111031457610118900000016228224267525403327_"  style="overflow:visible;"/>
				</clipPath>
				<path style="clip-path:url(#SVGID_00000039833385911963302400000006321586137048482945_);fill:#00BDE3;" d="M102.9,26.7
					c0,0-7.9-17.1-24-7.4C62.8,28.9,71.4,44,71.4,44L54.6,22.9L89.3-2.9l28.9,10.7L102.9,26.7"/>
			</g>
		</g>
		<g>
			<path class="st15" d="M101.5,27.8c0,0,3.2-5.5,7.8-2.1s5.1,11.8-5.7,15.8C103.6,41.5,98.4,32.2,101.5,27.8z"/>
			<path class="st16" d="M102.4,33.7c0,0,0.6-7.9,4.5-6.6s4.4,9.6-1.6,12c-6,2.4,1.7-3.9,0.9-5.7C105.2,31.6,102,36.1,102.4,33.7z"
				/>
		</g>
		<path class="st38" d="M115.3,41.4c0.1-3.3,5.3-1.4,4.3,2.2c-1,3.7-9,29.7-15.3,32.7C104.3,76.3,114.8,54.7,115.3,41.4z"/>
		<path class="st38" d="M79.2,65.6c-1-1.6-4.1,0.5-2.5,2s12.1,10.5,16.1,10.1C92.9,77.7,83.4,72.1,79.2,65.6z"/>
		<g>
			<g>
				<path id="XMLID_00000158712702692219486310000002297079581030748300_" class="st38" d="M110.1,65.6
					c-7.7,8.7-12.5,10.5-10.2,23.4s11.7,34.2,16.6,35.1s24.8-19.2,29.4-17.5c0,0-19.8-6.2-22.4-6.1s10.7-16.3,10.7-16.3
					s26.9,11.6,30.1,11.3c0,0-2.1-9.1,10.6-13.1c0,0,1.6-8.3-0.6-12.4c-2.2-4.1-24.9-10.5-25.6-12c-0.6-1.6-7.5-12.5-11.2-13.4
					C133.7,43.8,115.8,59.1,110.1,65.6z"/>
			</g>
			<g>
				<defs>
					<path id="SVGID_00000155119397275230330760000008659769359665949071_" d="M110.1,65.6c-7.7,8.7-12.5,10.5-10.2,23.4
						s11.7,34.2,16.6,35.1s24.8-19.2,29.4-17.5c0,0-19.8-6.2-22.4-6.1s10.7-16.3,10.7-16.3s26.9,11.6,30.1,11.3
						c0,0-2.1-9.1,10.6-13.1c0,0,1.6-8.3-0.6-12.4c-2.2-4.1-24.9-10.5-25.6-12c-0.6-1.6-7.5-12.5-11.2-13.4
						C133.7,43.8,115.8,59.1,110.1,65.6z"/>
				</defs>
				<clipPath id="SVGID_00000067933875821663605060000003802898031221584299_">
					<use xlink:href="#SVGID_00000155119397275230330760000008659769359665949071_"  style="overflow:visible;"/>
				</clipPath>
				
					<path style="opacity:0.59;clip-path:url(#SVGID_00000067933875821663605060000003802898031221584299_);fill:#E39824;enable-background:new    ;" d="
					M134.1,84.2c-11.4-4-18.9-3.2-20,3.5s11,8.1,7.8,13.1c-10,15.6,18.6,6.9,27.9,2.3C159.1,98.5,134.1,84.2,134.1,84.2"/>
			</g>
		</g>
		<path class="st5" d="M80.6,115.4c0,0,43.2,40.2,57.3,27.6l-3.8,10c0,0-15.8,9.6-57.7-34.5L80.6,115.4z"/>
		<g>
			<g>
				<path id="XMLID_00000175292827434567513780000009996771040893956515_" class="st38" d="M89.8,75.7c0,0-11.7-1.4-16.2,3.3
					C69,83.7,46.3,80.9,39,87.1c-7.4,6.3-11.4,24.1-0.2,28.1s13.1-3.6,13.1-3.6s22.3-1.1,27.6-5.5c0,0-6,11.9-15.5,15.4
					c0,0,10.8,1.5,18.7-4.3C90.6,111.4,101.2,76.5,89.8,75.7z"/>
			</g>
			<g>
				<defs>
					<path id="SVGID_00000118370608487905720020000012809226911572047246_" d="M89.8,75.7c0,0-11.7-1.4-16.2,3.3
						C69,83.7,46.3,80.9,39,87.1c-7.4,6.3-11.4,24.1-0.2,28.1s13.1-3.6,13.1-3.6s22.3-1.1,27.6-5.5c0,0-6,11.9-15.5,15.4
						c0,0,10.8,1.5,18.7-4.3C90.6,111.4,101.2,76.5,89.8,75.7z"/>
				</defs>
				<clipPath id="SVGID_00000127738221245903299550000007464155494933740962_">
					<use xlink:href="#SVGID_00000118370608487905720020000012809226911572047246_"  style="overflow:visible;"/>
				</clipPath>
				
					<path style="opacity:0.59;clip-path:url(#SVGID_00000127738221245903299550000007464155494933740962_);fill:#E39824;enable-background:new    ;" d="
					M79.5,106.1c2.9-10.1-5.2-9-13.5-3.6S51.2,107,47.8,106s-5.3,10.9-13.6,8.5c-8.4-2.4-5.6,4.5-5.6,4.5l26.2-0.8
					C54.7,118.1,72,113.1,79.5,106.1"/>
			</g>
		</g>
		<path class="st19" d="M164.2,95.6c0,0,34,23.5,34.5,23.6c0.5,0,3.8-4.4,3.1-5.4c-0.8-1-18.8-16.7-27-31.3
			C174.7,82.5,161,80.8,164.2,95.6z"/>
		<path class="st14" d="M198.7,119.2c0,0-1.2,3.1-0.3,3.6c0.8,0.6,3.9,2.1,4.7,1.6c0.9-0.5,1.1-1.8,1.1-1.8s10.6,6.6,11.6,6.2
			c1-0.4,3.3-8.3,3.4-9.6c0,0-13.9-2-17.5-5.5L198.7,119.2z"/>
		<path class="st15" d="M198.7,123c0,0-1.2,5.7-3,7.7c-1.8,2.1,1.7,2.7,4.2,1.9s2.2-8.7,2.2-8.7S200.6,121.8,198.7,123z"/>
		<path class="st19" d="M50.9,92c3.2,7.1-10.8,7.6-13.1,6.2C35.5,96.9,27,55.3,27,55.3s1.5,1.5,6.5-0.9C33.5,54.4,46.7,82.6,50.9,92
			z"/>
		<g>
			<g>
				<path id="XMLID_00000084510652617411869880000007337604223252897939_" class="st15" d="M22,45.3c-1.1-0.7-7.4-7.8-6.9-8.7
					c0.4-0.9,9-6.1,10.8-5.8c1.8,0.4,2.7,10.5,2.1,11.6C27.2,43.6,23,46,22,45.3z"/>
			</g>
			<g>
				<defs>
					<path id="SVGID_00000086679185177252560760000015182687586751099292_" d="M22,45.3c-1.1-0.7-7.4-7.8-6.9-8.7
						c0.4-0.9,9-6.1,10.8-5.8c1.8,0.4,2.7,10.5,2.1,11.6C27.2,43.6,23,46,22,45.3z"/>
				</defs>
				<clipPath id="SVGID_00000152237696024236770220000013171079123588034235_">
					<use xlink:href="#SVGID_00000086679185177252560760000015182687586751099292_"  style="overflow:visible;"/>
				</clipPath>
				<path style="clip-path:url(#SVGID_00000152237696024236770220000013171079123588034235_);fill:#221B4C;" d="M27.1,33
					c0,0-5.4-1.2-5.7,3c0,0-6.7,0.2-5.6,3.5s-5.3-1.9-5.3-1.9l8-10.1l8.6,0.7V33"/>
			</g>
		</g>
		<g>
			<g>
				<path id="XMLID_00000000214264566325083860000018218294997650266041_" class="st15" d="M29.7,40.7c-1.2,1.7,6,7.7,9.1,8.5
					c3.1,0.8,4.2-3,3.1-4.1C40.8,44,31.7,37.9,29.7,40.7z"/>
			</g>
			<g>
				<defs>
					<path id="SVGID_00000038392799796601275920000008916087730648790424_" d="M29.7,40.7c-1.2,1.7,6,7.7,9.1,8.5
						c3.1,0.8,4.2-3,3.1-4.1C40.8,44,31.7,37.9,29.7,40.7z"/>
				</defs>
				<clipPath id="SVGID_00000065065260988664822720000002029536626982888116_">
					<use xlink:href="#SVGID_00000038392799796601275920000008916087730648790424_"  style="overflow:visible;"/>
				</clipPath>
				<path style="clip-path:url(#SVGID_00000065065260988664822720000002029536626982888116_);fill:#221B4C;" d="M38.2,42.5
					c0,0,1.4,2.6-3.2,4.7c-4.5,2.1,0,0,0,0l2.7,2.7l3.8,0.3l1.8-2.9l0.3-2.7L38.2,42.5"/>
			</g>
		</g>
		<path class="st5" d="M52,197c6.4-8.1-5.3-17.9-9.4-14.8c-4.2,3-7.4,5-6,6.8s8.2,4.5,9.4,5.4C47.3,195.2,47.7,202.5,52,197z"/>
		<path class="st5" d="M62.6,243.7c-4-9.5,10.2-16.1,13.5-12.1c3.2,4,5.8,6.8,4,8.1c-1.8,1.4-9.1,2.2-10.5,2.7
			C68.1,242.9,65.3,250.1,62.6,243.7z"/>
	</g>
	<g>
		<g>
			<path class="st26" d="M65.8,61.4c-2.9,0-5.2-2.4-5.1-5.3c0-2.9,2.4-5.2,5.3-5.1c2.9,0,5.2,2.4,5.1,5.3
				C71,59.2,68.7,61.5,65.8,61.4z M65.9,52.3c-2.1,0-3.9,1.7-3.9,3.8s1.7,3.9,3.8,3.9c2.1,0,3.9-1.7,3.9-3.8
				C69.8,54.1,68.1,52.4,65.9,52.3z"/>
		</g>
		<g>
			<path class="st26" d="M58.3,52.8L46,52.6c-0.4,0-0.6-0.3-0.6-0.7s0.3-0.6,0.7-0.6l12.3,0.2c0.4,0,0.6,0.3,0.6,0.7
				C58.9,52.5,58.6,52.8,58.3,52.8z"/>
		</g>
		<g>
			<path class="st26" d="M58.2,55.3l-6.1-0.1c-0.4,0-0.6-0.3-0.6-0.7s0.3-0.6,0.7-0.6l6.1,0.1c0.4,0,0.6,0.3,0.6,0.7
				C58.9,55,58.6,55.3,58.2,55.3z"/>
		</g>
		<g>
			<path class="st26" d="M16.9,136.4c-0.4,0-0.6-0.3-0.6-0.7l0.2-12.3c0-0.4,0.3-0.6,0.7-0.6c0.4,0,0.6,0.3,0.6,0.7l-0.2,12.3
				C17.5,136.1,17.2,136.4,16.9,136.4z"/>
		</g>
		<g>
			<path class="st26" d="M14.4,136.4c-0.4,0-0.6-0.3-0.6-0.7l0.1-6.1c0-0.4,0.3-0.6,0.7-0.6s0.6,0.3,0.6,0.7l-0.1,6.1
				C15,136.1,14.7,136.4,14.4,136.4z"/>
		</g>
		<g>
			<path class="st26" d="M11.6,136.3c-0.4,0-0.6-0.3-0.6-0.7V132c0-0.4,0.3-0.6,0.7-0.6s0.6,0.3,0.6,0.7v3.6
				C12.3,136,12,136.3,11.6,136.3z"/>
		</g>
		<g>
			<path class="st26" d="M147.5,140c-0.4,0-0.6-0.3-0.6-0.7l0.2-12.3c0-0.4,0.3-0.6,0.7-0.6s0.6,0.3,0.6,0.7l-0.2,12.3
				C148.1,139.7,147.8,140,147.5,140z"/>
		</g>
		<g>
			<path class="st26" d="M150,140.1c-0.4,0-0.6-0.3-0.6-0.7l0.1-6.1c0-0.4,0.3-0.6,0.7-0.6s0.6,0.3,0.6,0.7l-0.1,6.1
				C150.6,139.8,150.3,140.1,150,140.1z"/>
		</g>
		<g>
			<path class="st26" d="M152.7,140.1c-0.4,0-0.6-0.3-0.6-0.7v-3.6c0-0.4,0.3-0.6,0.7-0.6s0.6,0.3,0.6,0.7v3.6
				C153.4,139.8,153.1,140.1,152.7,140.1z"/>
		</g>
		<g>
			<g>
				<path class="st26" d="M13.5,105.6C6.5,105.5,1,99.8,1,92.9C1.1,86,6.8,80.4,13.7,80.5s12.5,5.8,12.4,12.7
					C26.1,100.1,20.4,105.7,13.5,105.6z M13.8,81.1C7.2,81,1.7,86.3,1.7,92.9c-0.1,6.6,5.2,12,11.8,12.1s12-5.2,12.1-11.8
					C25.7,86.6,20.4,81.2,13.8,81.1z"/>
			</g>
			<g>
				<path class="st26" d="M2.8,94.3c0-0.8-0.6-1.4-1.4-1.4S0,93.5,0,94.3s0.6,1.4,1.4,1.4C2.2,95.7,2.8,95.1,2.8,94.3z"/>
			</g>
		</g>
		<g>
			<g class="st43">
				<g>
					<polygon class="st38" points="210.3,33.6 214.5,41.9 207.3,43.5 203.1,35.2 					"/>
				</g>
				<g>
					<polygon class="st25" points="214.5,41.9 209.6,46.5 202.4,48.2 207.3,43.5 					"/>
				</g>
				<g>
					<polygon class="st44" points="207.3,43.5 202.4,48.2 198.2,39.9 203.1,35.2 					"/>
				</g>
			</g>
		</g>
		<g>
			<g>
				<g>
					<path id="XMLID_00000146457923148036665080000005256613671807651987_" class="st5" d="M194.9,78.7l6.7-0.8l10.3,12.3l-1.9,5.2
						c-0.4,1,0.1,2.2,1.1,2.6c1.9,0.8,5,1.3,8.2-1.6c4.3-3.9,6-17.7,4.2-20.1s-4.8-0.8-6.3-2.4c-1.4-1.6,0.1-6.8-2.5-9
						c-2.7-2.2-15.2,0.2-19.9,2.7c0,0-4.1,3.3-2.1,9.8C193.1,78.2,194,78.8,194.9,78.7z"/>
				</g>
				<g>
					<defs>
						<path id="SVGID_00000181794977854157143260000015605881755413588363_" d="M194.9,78.7l6.7-0.8l10.3,12.3l-1.9,5.2
							c-0.4,1,0.1,2.2,1.1,2.6c1.9,0.8,5,1.3,8.2-1.6c4.3-3.9,6-17.7,4.2-20.1s-4.8-0.8-6.3-2.4c-1.4-1.6,0.1-6.8-2.5-9
							c-2.7-2.2-15.2,0.2-19.9,2.7c0,0-4.1,3.3-2.1,9.8C193.1,78.2,194,78.8,194.9,78.7z"/>
					</defs>
					<clipPath id="SVGID_00000100381479217373278670000000425581971170313655_">
						<use xlink:href="#SVGID_00000181794977854157143260000015605881755413588363_"  style="overflow:visible;"/>
					</clipPath>
					<path style="clip-path:url(#SVGID_00000100381479217373278670000000425581971170313655_);fill:#FFFFFF;" d="M212.4,61.5
						c0,0-0.8,10.6,2.9,14.4s12,2,12,2S219.3,61.1,212.4,61.5z"/>
				</g>
			</g>
			<path class="st14" d="M208.8,67.4c-1.1,0.5-1.4,2.3-0.7,3.8c0.8,1.6,2.3,2.4,3.4,1.9c1.1-0.5,1.4-2.3,0.7-3.8
				C211.4,67.7,209.9,66.9,208.8,67.4z"/>
			<path class="st19" d="M211.6,66.1c-1.1,0.5-1.4,2.3-0.7,3.8c0.8,1.6,2.3,2.4,3.4,1.9c1.1-0.5,1.4-2.3,0.7-3.8
				C214.2,66.4,212.7,65.5,211.6,66.1z"/>
			<path class="st14" d="M218.1,79.8c-0.8,0.4-1,1.6-0.5,2.7s1.6,1.7,2.4,1.4s1-1.6,0.5-2.7C220,80,218.9,79.4,218.1,79.8z"/>
			<path class="st14" d="M213.4,80.4c-0.8,0.4-1,1.6-0.5,2.7s1.6,1.7,2.4,1.4c0.8-0.4,1-1.6,0.5-2.7C215.3,80.6,214.2,80,213.4,80.4
				z"/>
			<path class="st14" d="M206.9,76l1.8,2.4c0.3,0.4,0.8,0.4,1.1,0.2l0,0c0.4-0.3,0.4-0.8,0.2-1.1l-1.8-2.4c-0.3-0.4-0.8-0.4-1.1-0.2
				l0,0C206.7,75.1,206.7,75.6,206.9,76z"/>
			<path class="st19" d="M210.6,71l2-0.9c0.4-0.2,0.6-0.7,0.4-1.1l0,0c-0.2-0.4-0.7-0.6-1.1-0.4l-2,0.9c-0.4,0.2-0.6,0.7-0.4,1.1
				l0,0C209.7,71,210.2,71.2,210.6,71z"/>
			<path class="st14" d="M205,77.4l1.8,2.4c0.3,0.4,0.8,0.4,1.1,0.2l0,0c0.4-0.3,0.4-0.8,0.2-1.1l-1.8-2.4c-0.3-0.4-0.8-0.4-1.1-0.2
				l0,0C204.8,76.5,204.7,77.1,205,77.4z"/>
		</g>
	</g>
</g>
</svg>
