<?xml version="1.0" encoding="utf-8"?>
<!-- Generator: Adobe Illustrator 26.0.0, SVG Export Plug-In . SVG Version: 6.00 Build 0)  -->
<svg version="1.1" id="Layer_1" xmlns="http://www.w3.org/2000/svg" xmlns:xlink="http://www.w3.org/1999/xlink" x="0px" y="0px"
	 viewBox="0 0 144.7 257.4" style="enable-background:new 0 0 144.7 257.4;" xml:space="preserve">
<style type="text/css">
	.st0{display:none;}
	.st1{display:inline;}
	.st2{fill:#407BFF;}
	.st3{opacity:0.9;fill:#FFFFFF;enable-background:new    ;}
	.st4{fill:#263238;}
	.st5{opacity:0.2;enable-background:new    ;}
	.st6{fill:#FFFFFF;}
	.st7{fill:#3C6EFD;}
	.st8{opacity:0.4;fill:#FFFFFF;enable-background:new    ;}
	.st9{opacity:0.5;fill:#FFFFFF;enable-background:new    ;}
	.st10{opacity:0.5;enable-background:new    ;}
	.st11{fill:#1252E0;}
	.st12{opacity:0.2;fill:#FFFFFF;enable-background:new    ;}
	.st13{fill:#EBB376;}
	.st14{opacity:0.1;enable-background:new    ;}
	.st15{opacity:0.6;fill:#FFFFFF;enable-background:new    ;}
	.st16{fill:#D58745;}
	.st17{fill:none;stroke:#263238;stroke-width:0.7247;stroke-linecap:round;stroke-linejoin:round;stroke-miterlimit:10;}
	.st18{fill:none;stroke:#263238;stroke-width:0.708;stroke-linecap:round;stroke-linejoin:round;stroke-miterlimit:10;}
	.st19{fill:none;stroke:#FFFFFF;stroke-linecap:round;stroke-linejoin:round;stroke-miterlimit:10;}
</style>
<g id="Background_Simple" class="st0">
	<g class="st1">
		<path class="st2" d="M-92.1,366.3c-19.7-41.3-24.5-92.6-5.4-135c17.2-38.2,55.5-63.1,96.4-68.9c49.2-7,86.6,12.7,106.1,58.7
			c9,21.2,13.7,47.3,30.6,64c22.3,22.1,54,3.4,80.5,11.2c30.4,8.9,35.8,44.7,32.6,71.8c-7.9,66.5-73.9,94.3-132.9,101.8
			C51.6,478-18.4,459-62.9,410.3C-74.3,397.8-84.3,382.8-92.1,366.3z"/>
		<path class="st3" d="M-92.1,366.3c-19.7-41.3-24.5-92.6-5.4-135c17.2-38.2,55.5-63.1,96.4-68.9c49.2-7,86.6,12.7,106.1,58.7
			c9,21.2,13.7,47.3,30.6,64c22.3,22.1,54,3.4,80.5,11.2c30.4,8.9,35.8,44.7,32.6,71.8c-7.9,66.5-73.9,94.3-132.9,101.8
			C51.6,478-18.4,459-62.9,410.3C-74.3,397.8-84.3,382.8-92.1,366.3z"/>
	</g>
</g>
<g>
	<polyline class="st4" points="64,242.7 64.1,242.3 65.8,222.5 73,222.5 67.8,242.7 	"/>
	<polyline class="st4" points="130.7,242.7 130.7,242.3 129,222.5 121.8,222.5 126.9,242.7 	"/>
</g>
<g>
	<polyline class="st4" points="54.5,242.7 54.6,242.3 57.8,222.5 65,222.5 58.3,242.7 	"/>
	<polyline class="st4" points="140.2,242.7 140.2,242.3 136.9,222.5 129.7,222.5 136.4,242.7 	"/>
</g>
<g class="st5">
	<polyline class="st6" points="54.5,242.7 54.6,242.3 57.8,222.5 65,222.5 58.3,242.7 	"/>
	<polyline class="st6" points="140.2,242.7 140.2,242.3 136.9,222.5 129.7,222.5 136.4,242.7 	"/>
</g>
<path class="st7" d="M140.8,104.1H54c-2.2,0-4,1.8-4,4V223c0,2.2,1.8,4,4,4h86.8c2.2,0,4-1.8,4-4V108.1
	C144.7,105.9,143,104.1,140.8,104.1z"/>
<path class="st8" d="M140.8,104.1H54c-2.2,0-4,1.8-4,4V223c0,2.2,1.8,4,4,4h86.8c2.2,0,4-1.8,4-4V108.1
	C144.7,105.9,143,104.1,140.8,104.1z"/>
<g>
	<rect x="53.8" y="130.9" class="st9" width="87" height="44.3"/>
	<rect x="53.8" y="178.2" class="st9" width="87" height="44.3"/>
	<rect x="53.8" y="108.5" class="st9" width="87" height="19.4"/>
</g>
<path class="st10" d="M104.5,111.7H90.2c-0.9,0-1.7-0.5-2-1.3l-1-1.9h20.2l-1,1.9C106.1,111.2,105.3,111.7,104.5,111.7z"/>
<path class="st10" d="M104.5,134.1H90.2c-0.9,0-1.7-0.5-2-1.3l-1-1.9h20.2l-1,1.9C106.1,133.6,105.3,134.1,104.5,134.1z"/>
<path class="st10" d="M104.5,181.4H90.2c-0.9,0-1.7-0.5-2-1.3l-1-1.9h20.2l-1,1.9C106.1,180.9,105.3,181.4,104.5,181.4z"/>
<polygon class="st2" points="122.7,90.6 130.2,104.1 120.8,104.1 "/>
<polygon class="st11" points="122.7,90.6 130.2,104.1 120.8,104.1 "/>
<polygon class="st7" points="125.2,104.1 107.5,104.1 113,81.2 130.7,81.2 "/>
<polygon class="st9" points="109.9,102.3 114.6,83 128.3,83 123.6,102.3 "/>
<polygon class="st11" points="73.4,93.7 69,104.1 80.7,104.1 "/>
<polygon class="st7" points="97.4,104.1 74.9,104.1 69.6,87.8 92.1,87.8 "/>
<polygon class="st12" points="97.4,104.1 74.9,104.1 69.6,87.8 92.1,87.8 "/>
<polygon class="st9" points="76.1,101.8 72.4,90.2 90.9,90.2 94.6,101.8 "/>
<path class="st7" d="M104.1,20.7l-42.9-0.4c-2,0-3.7-1.7-3.6-3.7L58,3.7c0-2,1.7-3.7,3.7-3.6l42.9,0.4c2,0,3.7,1.7,3.6,3.7
	l-0.4,12.9C107.8,19.1,106.1,20.8,104.1,20.7z"/>
<path class="st7" d="M82,17.5c0,0-5.4,12-17.3,15.7c0,0,6.6-3.7,6.3-16.3L82,17.5z"/>
<g>
	<path class="st6" d="M68.6,10.2l1,0.6l-0.5,0.8l-1-0.6v1.1h-0.9V11l-1,0.6l-0.5-0.8l1-0.6l-1-0.6l0.5-0.8l1,0.6V8.3h0.9v1.1l1-0.6
		l0.5,0.8L68.6,10.2z"/>
	<path class="st6" d="M74.8,10.2l1,0.6l-0.5,0.8l-1-0.6v1.1h-0.9V11l-1,0.6L72,10.8l1-0.6l-1-0.6l0.5-0.8l1,0.6V8.3h0.9v1.1l1-0.6
		l0.5,0.8L74.8,10.2z"/>
	<path class="st6" d="M80.9,10.2l1,0.6l-0.5,0.8l-1-0.6v1.1h-0.9V11l-1,0.6L78,10.8l1-0.6l-1-0.6l0.5-0.8l1,0.6V8.3h0.9v1.1l1-0.6
		l0.5,0.8L80.9,10.2z"/>
	<path class="st6" d="M87.1,10.2l1,0.6l-0.5,0.8l-1-0.6v1.1h-0.9V11l-1,0.6l-0.5-0.8l1-0.6l-1-0.6l0.5-0.8l1,0.6V8.3h0.9v1.1l1-0.6
		l0.5,0.8L87.1,10.2z"/>
	<path class="st6" d="M93.2,10.2l1,0.6l-0.5,0.8l-1-0.6v1.1h-0.9V11l-1,0.6l-0.5-0.8l1-0.6l-1-0.6l0.5-0.8l1,0.6V8.3h0.9v1.1l1-0.6
		l0.5,0.8L93.2,10.2z"/>
	<path class="st6" d="M99.3,10.2l1,0.6l-0.5,0.8l-1-0.6v1.1H98V11l-1,0.6l-0.5-0.8l1-0.6l-1-0.6L97,8.9l1,0.6V8.4h0.9v1.1l1-0.6
		l0.5,0.8L99.3,10.2z"/>
</g>
<g>
	<path class="st13" d="M36.1,41.8c5.7,0.9,11.3,18.5,13.7,20s0.3-16.5,0.3-16.5l4.6-0.6c0,0,5.4,27.1-2.5,26.9
		c-6-0.2-13.2-10.2-15-15.3L36.1,41.8z"/>
	<path class="st14" d="M52.2,71.6c-3.6-0.1-7.7-3.8-10.8-7.9c-2-2.6-3.5-5.4-4.2-7.4l-0.6-7.4l-0.6-7c5.7,0.9,11.3,18.5,13.7,20
		S50,45.4,50,45.4l4.6-0.6C54.7,44.6,60.1,71.8,52.2,71.6z"/>
</g>
<path class="st5" d="M41.5,63.6c-2-2.6-3.5-5.4-4.2-7.4l-0.6-7.4l0,0C36.7,48.8,42.9,55.1,41.5,63.6z"/>
<path class="st4" d="M15.1,5.4c0,0-10.2-0.1-9.7,13.9s10.3,14.2,7,18.3c0,0,8.2,4.2,18.5,0c0,0-1.8-0.7-0.9-3.3s5.6-6.2,6-11.7
	S25.6,4,15.1,5.4z"/>
<path class="st4" d="M25.1,32.2c0,0,13-2.4,10.8-14.8C34.2,7.3,29.5,4,25.1,2.6c-3.7-1.2-7.6-0.1-10.3,3.5c0,0-8.8-2.5-7.3,12
	S18.6,38.8,25.1,32.2z"/>
<polygon class="st13" points="48.8,239.3 43,236.3 45.1,227.7 47.1,219.8 54.4,222.2 51.4,231.2 "/>
<path class="st4" d="M41.4,235c0.3-0.6,8.1,3.9,8.1,3.9s2.4,7.5,6.7,11c4.2,3.5,0.1,5.1-5.2,2.4c-5.4-2.7-9.4-4.7-13.2-6.6
	S37.9,241.7,41.4,235z"/>
<g>
	<path class="st7" d="M52.2,242.6c-1-0.7-2-2-2.3-2.3c0,0,0,0,0-0.1l0,0l0,0v-0.1l0,0l0,0c0,0,0,0,0-0.1l0,0l0,0c0,0,0-0.1,0.1-0.1
		c0.1-0.1,1.7-1.6,3-1.5c0.4,0,0.8,0.2,1,0.5c0.3,0.4,0.3,0.7,0.2,0.9c-0.2,0.4-1,0.5-1.8,0.6c0.7,0.3,1.4,0.6,1.7,1.1
		c0.2,0.2,0.2,0.5,0.2,0.8c-0.1,0.5-0.4,0.7-0.6,0.8C53.2,243.2,52.7,243,52.2,242.6z M50.7,240.6c0.9,1.1,2.2,2.3,2.7,2.1
		c0,0,0.2,0,0.3-0.4c0-0.1,0-0.3-0.1-0.4C53.2,241.3,51.7,240.8,50.7,240.6z M53.4,239.1c-0.1-0.1-0.3-0.2-0.5-0.2
		c-0.7,0-1.7,0.6-2.2,1c1.4,0.1,2.9,0.1,3.1-0.3c0.1-0.1-0.1-0.3-0.2-0.4C53.5,239.3,53.5,239.2,53.4,239.1z"/>
</g>
<polygon class="st5" points="51.4,231.4 45.1,227.9 47.1,219.9 54.4,222.2 "/>
<polygon class="st13" points="38.6,246.5 32,246.5 30.1,238 28.4,230.2 36.1,229.1 37.5,238.3 "/>
<path class="st4" d="M29.8,246.3c0-0.7,9-0.2,9-0.2s5.5,5.6,10.9,6.9c5.3,1.3,2.4,4.5-3.6,4.5s-10.5,0-14.8,0
	C27,257.4,29.7,253.8,29.8,246.3z"/>
<g>
	<path class="st7" d="M43.5,248.4c-1.3,0-3.2-0.9-3.7-1.1c0,0-0.1,0-0.1-0.1l0,0l0,0l0,0c0-0.1,0-0.1,0-0.2c0-0.1,0.8-2.2,2-2.7
		c0.4-0.2,0.8-0.1,1.2,0c0.4,0.2,0.6,0.4,0.6,0.8c0,0.5-0.7,0.9-1.4,1.3c0.8-0.1,1.5-0.1,2,0.2c0.3,0.1,0.4,0.3,0.5,0.6
		c0.1,0.5,0,0.8-0.2,1C44.1,248.3,43.8,248.4,43.5,248.4z M40.6,247.1c1.3,0.6,3,1.1,3.4,0.7c0,0,0.1-0.1,0.1-0.5
		c0-0.1-0.1-0.2-0.3-0.3C43.2,246.7,41.6,246.9,40.6,247.1z M42.2,244.6c-0.1,0-0.2,0-0.4,0.1c-0.7,0.3-1.2,1.2-1.5,1.9
		c1.3-0.5,2.6-1.2,2.6-1.6c0-0.1-0.2-0.2-0.3-0.3C42.5,244.7,42.4,244.6,42.2,244.6z"/>
</g>
<polygon class="st5" points="37.5,238.5 30.1,238.2 28.4,230.3 36.1,229.1 "/>
<g>
	<path class="st4" d="M6.4,91l16.2-2.6l14.7-3l4,24c0,0,20.7,30,25.7,50.6s-13.8,68.5-13.8,68.5l-8.7-3.8c0,0,6-46,5.9-51.6
		c-0.1-3.6-11.9-20.2-20.2-31.4c-0.2,2.8,2.4,30.8,2.4,30.8l5.8,61.4H27.7C-9.8,117.5,6.4,91,6.4,91z"/>
	<path class="st15" d="M27.7,233.9h10.9l-5.8-61.4c0,0-2.7-28.2-2.4-30.8c1.6,2.2,3.4,4.6,5.2,7.1c7.3,10.1,14.9,21.4,15,24.3
		c0.1,5.5-5.9,51.6-5.9,51.6l8.6,3.8c0,0,18.8-47.9,13.8-68.5c-5-20.6-25.7-50.6-25.7-50.6l-4-24l-14.7,3L6.4,91
		C6.4,91-9.8,117.5,27.7,233.9z"/>
</g>
<polygon class="st7" points="44.1,220.8 56.9,225.2 54,229.6 43.5,225.8 "/>
<polygon class="st7" points="26.1,232.4 39.8,230.6 39.1,235.7 27.8,237.1 "/>
<path class="st5" d="M30.3,141.7c1.6,2.2,3.4,4.6,5.2,7.1c-2.9-14.8-6.2-29.3-6.2-29.3C28.5,131.2,30.3,141.7,30.3,141.7z"/>
<g>
	<path class="st7" d="M37.1,86.3l-29.7,2c0,0-0.4-15.9-2.8-24.1c-0.2-1.1-0.6-2.2-1-3.5C3.1,59,2.4,57.1,1.7,55
		c-0.2-0.5-0.6-1.7-1.1-3.1c-0.9-2.4-0.2-4.9,1.5-6.5c0.8-0.8,1.8-1.4,3-1.6c2.2-0.5,4.3-0.9,5.5-1.1C15,42,19.5,41.6,24,41.4
		c3.8,0,8,0.2,10.4,0.4c1.3,0.1,2.1,0.2,2.1,0.2s0.9,0.2,1.5,5.7C38.5,52.9,38.3,67.5,37.1,86.3z"/>
</g>
<path class="st13" d="M22.9,47.8c-7.5-1.3-9.6-4.7-9.6-4.7c5-4.3,1.4-12.3,1.4-12.3l9,2.1c-0.3,1.5-0.5,2.7-0.5,3.8
	c-0.3,5.5,2.1,5.7,2.1,5.7C26.8,45.5,22.9,47.8,22.9,47.8z"/>
<path class="st5" d="M23.8,33c-0.3,1.5-0.5,2.7-0.5,3.8c-4.3-1.2-8.4-5.9-8.4-5.9L23.8,33z"/>
<g>
	<path class="st13" d="M23.1,7.3C31,8,33.1,12.5,33,20.6c-0.2,10.2-3.1,17.2-12.7,14.1C7.2,30.6,10.1,6.2,23.1,7.3z"/>
	<path class="st16" d="M27.9,19.7c0,0,0.9,2.1,2,3.5c0,0-0.8,1-2.2,0.7L27.9,19.7z"/>
	<g>
		<path class="st4" d="M23.2,18.7c0,0.6-0.4,1.1-0.9,1.1c-0.4,0-0.7-0.6-0.7-1.2s0.4-1.1,0.9-1.1C22.9,17.5,23.2,18,23.2,18.7z"/>
		<path class="st4" d="M22.3,17.4l1.4-0.5C23.7,17,23,18.1,22.3,17.4z"/>
	</g>
	<g>
		<path class="st4" d="M31.2,19.1c0,0.6-0.4,1.1-0.9,1.1c-0.4,0-0.7-0.6-0.7-1.2s0.4-1.1,0.9-1.1S31.3,18.4,31.2,19.1z"/>
		<path class="st4" d="M30.3,17.8l1.4-0.5C31.8,17.4,31,18.5,30.3,17.8z"/>
	</g>
	<path class="st17" d="M23.6,13.2c0,0-2.2-0.5-3.5,0.9"/>
	<path class="st17" d="M29.3,13.4c0,0,1.4-0.4,3.1,0.9"/>
	<path class="st4" d="M13.3,19.8c0,0,4.3-6.1,4.1-11.2c0,0,16.1-5,15.5,10.9c0,0,2.8-13.9-10.7-15.4C8.8,2.6,7.1,22.4,13.5,28.9
		C13.5,28.9,10.7,23.6,13.3,19.8z"/>
	<path class="st13" d="M14.5,21.6c0.1-1.3-1.1-3.5-3.4-3.5C8.6,18.1,7,23,13,24.8C13.8,25,14.3,24.2,14.5,21.6z"/>
	<path class="st18" d="M27.2,27.2c0,0-3.3,0.3-4.2-2.8"/>
</g>
<path class="st18" d="M17.6,8.3c0,0,12.1-1.7,15.3,8.7"/>
<g>
	<path class="st13" d="M53.2,34.2c0,0,4.1-0.1,4.3,0.7c0.1,0.7-0.1,6.8-0.7,7.6c-0.5,0.8-2.1,2.1-2.1,2.1l0.4,10.7l-2.5,0.9
		l-2.2-9.8c0,0-2.5-2.5-1.8-5.6C49.4,37.6,53.2,34.2,53.2,34.2z"/>
	<path class="st14" d="M53.2,34.2c0,0,4.1-0.1,4.3,0.7c0.1,0.7-0.1,6.8-0.7,7.6c-0.5,0.8-2.1,2.1-2.1,2.1l0.4,10.7l-2.5,0.9
		l-2.2-9.8c0,0-2.5-2.5-1.8-5.6C49.4,37.6,53.2,34.2,53.2,34.2z"/>
</g>
<g>
	<path class="st4" d="M46.2,39.5c0,0.4,0.3,0.7,0.7,0.7l7-0.5c0.4,0,0.7-0.4,0.7-0.8l0.5-14c0-0.4-0.3-0.8-0.7-0.8l-7,0.5
		c-0.4,0-0.7,0.5-0.7,0.9L46.2,39.5z"/>
	<path class="st9" d="M47.4,25.4l-0.5,14.1c0,0.4,0.2,0.7,0.6,0.6l6-0.5c0.4,0,1.1-0.3,1.1-0.7l0.5-14.2c0-0.4-0.7-0.7-1.1-0.6
		l-6,0.5C47.7,24.6,47.5,25,47.4,25.4z"/>
</g>
<path class="st13" d="M39,50.1l2.7-6.2c0,0,0.9-8.4,1.3-9.3c0.4-0.9,7.2-0.6,8-0.6c0.7-0.1,0.6,8.3-0.1,9.2
	c-0.7,0.9-3.5,1.6-3.5,1.6l-4.3,8.3L39,50.1z"/>
<path class="st13" d="M31.5,46.8c-0.7,2.9-3.5,5.1-9.2,5c-3.6,0-6.6-1.4-9-3.1c-2.7-2-4.5-4.3-5.3-5.5c0.8-0.1,1.7-0.3,2.5-0.4
	c4.4-0.7,8.9-1.1,13.4-1.3c2.4,0,4.9,0.1,7,0.2C31.7,43.4,31.9,45.2,31.5,46.8z"/>
<g>
	<polygon class="st4" points="7.4,86.1 6.1,91.5 38.1,89.8 37.2,84.5 	"/>
	<g>
		<path class="st19" d="M24.5,86.2l0.4,3.5c0,0.4,0.4,0.7,0.8,0.6l4.6-0.4c0.4,0,0.7-0.4,0.6-0.8l-0.3-3.4c0-0.4-0.4-0.7-0.7-0.6
			l-4.7,0.3C24.7,85.4,24.4,85.8,24.5,86.2z"/>
		<line class="st19" x1="28.2" y1="87.3" x2="30" y2="87.3"/>
	</g>
</g>
<path class="st5" d="M11.8,63.2c-2.8,1-6-0.8-8.1-2.4c-0.5-1.7-1.2-3.6-1.9-5.7c-0.2-0.5-0.6-1.7-1.1-3.1c-0.9-2.4-0.2-4.9,1.5-6.5
	C7.5,50.6,15.6,61.9,11.8,63.2z"/>
<path class="st13" d="M2,44.8c2.4-1.9,5.9-1.4,7.7,1.1c4.4,6.3,11.8,16.7,12.6,17.3c1.3,0.7,10.9-8.1,19.4-19.3l5.2,2
	c0,0-13.5,27.8-23.1,27.9C16.6,73.9,5.9,59.3,0.9,52C-0.6,49.7-0.2,46.6,2,44.8L2,44.8z"/>
<path class="st5" d="M11.8,96c0,0-2.4,6.6-8.5,9v2.4c0,0,8.8-3.8,10.1-10L11.8,96z"/>
<polygon class="st5" points="4.9,130.9 13.4,129.3 15.4,146.3 7.3,147.5 6.1,136.4 13.4,135.4 13,131.2 12.9,134.9 4.7,136.2 "/>
</svg>
